# Blender v2.78 (sub 0) OBJ File: 'chest.blend'
# www.blender.org
o obj.chest.000_Cube
v 0.135397 -0.084115 -0.086000
v 0.135397 -0.084115 0.086000
v -0.134529 -0.084115 0.086000
v -0.134529 -0.084115 -0.086000
v 0.135397 0.032121 -0.086000
v 0.135397 0.032121 0.086000
v -0.134529 0.032121 0.086000
v -0.134529 0.032121 -0.086000
v -0.134440 0.081885 -0.000003
v 0.135471 0.081885 -0.000003
v -0.134440 0.069662 -0.053089
v 0.135471 0.069662 -0.053089
v -0.134440 0.032077 -0.085898
v 0.135471 0.032077 -0.085898
v -0.134440 0.032077 0.085893
v 0.135471 0.032077 0.085893
v -0.134440 0.069662 0.053084
v 0.135471 0.069662 0.053084
vt 0.4998 0.1933
vt 0.0002 0.2940
vt 0.0002 0.1933
vt 0.4998 0.2940
vt 0.0002 0.3864
vt 0.1590 0.9105
vt 0.0608 0.8878
vt 0.0002 0.8182
vt 0.4998 0.0925
vt 0.0002 0.0925
vt 0.4998 0.0002
vt 0.0002 0.0002
vt 0.4771 0.8182
vt 0.6359 0.9104
vt 0.3183 0.9104
vt 0.4998 0.3864
vt 0.3178 0.8183
vt 0.2572 0.8879
vt 0.3789 0.8408
vt 0.5752 0.8408
vt 0.9998 0.3864
vt 0.5002 0.0683
vt 0.9998 0.0683
vt 0.4998 0.3868
vt 0.8178 0.6021
vt 0.4998 0.6021
vt 0.8178 0.8178
vt 0.3182 0.6025
vt 0.8178 0.6025
vt 0.0002 0.8178
vt 0.0002 0.6025
vt 0.0002 0.3868
vt 0.5002 0.3864
vt 0.8178 0.3868
vt 0.3182 0.8178
vt 0.0002 0.6021
vn 0.6599 0.7513 0.0000
vn -0.6438 0.6564 -0.3932
vn -0.6599 0.7513 0.0000
vn 0.6438 0.6564 -0.3932
vn -0.4772 0.5779 -0.6620
vn 0.6438 0.6564 0.3932
vn 0.4772 0.5779 0.6620
vn -0.6438 0.6564 0.3932
vn -0.4772 0.5779 0.6620
vn 0.4772 0.5779 -0.6620
vn 0.5773 -0.5773 0.5773
vn -0.5773 -0.5773 -0.5773
vn 0.5773 -0.5773 -0.5773
vn 0.7071 0.0000 -0.7071
vn 0.7071 0.0000 0.7071
vn -0.5773 -0.5773 0.5773
vn -0.7071 0.0000 -0.7071
vn -0.7071 0.0000 0.7071
s 1
f 10/1/1 11/2/2 9/3/3
f 12/4/4 13/5/5 11/2/2
f 10/6/1 18/7/6 16/8/7
f 18/9/6 9/3/3 17/10/8
f 16/11/7 17/10/8 15/12/9
f 9/13/3 13/14/5 15/15/9
f 10/1/1 12/4/4 11/2/2
f 12/4/4 14/16/10 13/5/5
f 16/8/7 14/17/10 10/6/1
f 12/18/4 10/6/1 14/17/10
f 18/9/6 10/1/1 9/3/3
f 16/11/7 18/9/6 17/10/8
f 15/15/9 17/19/8 9/13/3
f 9/13/3 11/20/2 13/14/5
f 2/21/11 4/22/12 1/23/13
f 5/24/14 2/25/11 1/26/13
f 6/27/15 3/28/16 2/29/11
f 3/28/16 8/30/17 4/31/12
f 1/26/13 8/32/17 5/24/14
f 2/21/11 3/33/16 4/22/12
f 5/24/14 6/34/15 2/25/11
f 6/27/15 7/35/18 3/28/16
f 3/28/16 7/35/18 8/30/17
f 1/26/13 4/36/12 8/32/17
