# Blender v2.78 (sub 0) OBJ File: 'tempCannonModel.blend'
# www.blender.org
o obj.cannon.000_cannon
v 0.070814 -0.071903 0.099585
v 0.070814 0.069509 0.099652
v 0.000096 0.108982 0.017389
v -0.070621 0.069509 0.099652
v -0.110007 -0.001103 0.017337
v 0.000096 -0.111154 -0.056641
v 0.077951 0.076774 -0.056553
v -0.110007 -0.001068 -0.056589
v 0.042424 -0.043310 -0.470886
v 0.000096 0.058863 -0.470838
v -0.042232 0.041333 -0.470847
v -0.042232 -0.043310 -0.470886
v 0.000096 -0.021881 0.140924
v 0.014711 -0.015829 0.140926
v 0.020764 -0.001217 0.140933
v 0.014711 0.013395 0.140940
v 0.000096 0.019448 0.140943
v -0.014518 0.013395 0.140940
v -0.020572 -0.001217 0.140933
v -0.014518 -0.015829 0.140926
v -0.119391 -0.074050 -0.056633
v -0.123151 -0.192623 0.072956
v -0.123151 -0.192536 -0.112351
v 0.118704 -0.074935 0.017292
v 0.119429 0.002907 0.017329
v 0.125481 -0.192963 0.073548
v 0.127309 0.003497 -0.112854
v 0.000096 -0.101191 0.099571
v 0.000096 -0.111188 0.017285
v 0.077951 -0.078945 0.017300
v 0.100106 -0.001197 0.099618
v 0.110199 -0.001103 0.017337
v 0.077951 0.076739 0.017373
v 0.000096 0.098796 0.099665
v -0.077758 0.076739 0.017373
v -0.099913 -0.001197 0.099618
v -0.070621 -0.071903 0.099585
v -0.077758 -0.078945 0.017300
v 0.110199 -0.001068 -0.056589
v 0.077951 -0.078910 -0.056626
v -0.077758 -0.078910 -0.056626
v -0.077758 0.076774 -0.056553
v 0.000096 0.109017 -0.056538
v 0.000096 -0.060840 -0.470895
v 0.059957 -0.000988 -0.470866
v 0.042424 0.041333 -0.470847
v -0.059765 -0.000988 -0.470866
v -0.119391 -0.074085 0.017293
v -0.119607 0.003758 0.017330
v -0.119607 0.003792 -0.056596
v -0.123693 0.002500 0.073048
v -0.123693 0.002587 -0.112260
v 0.119429 0.002942 -0.056598
v 0.118704 -0.074900 -0.056634
v 0.127309 0.003409 0.073640
v 0.125481 -0.192875 -0.112946
v 0.157502 0.003128 0.073640
v 0.155674 -0.193244 0.073548
v 0.157502 0.003216 -0.112854
v 0.155674 -0.193156 -0.112946
v -0.155456 -0.192713 0.072956
v -0.155998 0.002410 0.073048
v -0.155456 -0.192626 -0.112351
v -0.155998 0.002498 -0.112260
vt 0.9181 0.1657
vt 0.8402 0.0893
vt 0.9106 0.0800
vt 0.8300 0.1657
vt 0.7717 0.0691
vt 0.4824 0.1638
vt 0.3966 0.0918
vt 0.4681 0.0760
vt 0.3950 0.1686
vt 0.3225 0.0791
vt 0.3079 0.1413
vt 0.2124 0.2049
vt 0.2337 0.1312
vt 0.1298 0.1740
vt 0.1702 0.0944
vt 0.1054 0.2489
vt 0.6474 0.0885
vt 0.5672 0.1633
vt 0.5768 0.0775
vt 0.7165 0.0700
vt 0.6556 0.1655
vt 0.4112 0.0004
vt 0.9181 0.2428
vt 0.8502 0.6778
vt 0.8300 0.2428
vt 0.1189 0.1704
vt 0.0944 0.2453
vt 0.5653 0.2408
vt 0.4837 0.2432
vt 0.4932 0.1636
vt 0.4945 0.2430
vt 0.3946 0.2427
vt 0.3079 0.2417
vt 0.3104 0.1644
vt 0.2938 0.2259
vt 0.1892 0.2751
vt 0.2181 0.7422
vt 0.2181 0.7931
vt 0.3408 0.7422
vt 0.3381 0.6784
vt 0.6538 0.2430
vt 0.6805 0.6854
vt 0.6230 0.6794
vt 0.3962 0.6763
vt 0.0553 0.6865
vt 0.0000 0.6707
vt 0.7928 0.6824
vt 0.7420 0.2490
vt 0.1099 0.7063
vt 0.5653 0.6774
vt 0.2305 0.8715
vt 0.2181 0.8590
vt 0.2305 0.8291
vt 0.8472 0.0067
vt 0.8629 0.0033
vt 0.3952 0.0054
vt 0.2623 0.0498
vt 0.2792 0.0504
vt 0.2489 0.0392
vt 0.6587 0.0000
vt 0.6436 0.0054
vt 0.8323 0.0000
vt 0.0014 0.9122
vt 0.0864 0.8502
vt 0.2181 0.9119
vt 0.9284 0.5146
vt 0.9293 0.4329
vt 0.9749 0.5146
vt 0.9284 0.5966
vt 0.9293 0.6783
vt 0.9749 0.5966
vt 0.4347 0.9481
vt 0.2181 0.9122
vt 0.4347 0.9122
vt 0.0514 0.3113
vt 0.0864 0.7683
vt 0.0014 0.7063
vt 0.2181 0.7065
vt 0.3473 0.6784
vt 0.4341 0.7417
vt 0.3476 0.7413
vt 0.9293 0.0033
vt 0.9279 0.0855
vt 0.9181 0.0000
vt 0.9279 0.1671
vt 0.9293 0.2492
vt 0.9181 0.2528
vt 0.9732 0.1671
vt 0.9732 0.0855
vt 0.2181 0.9481
vt 0.4361 0.9816
vt 0.2181 0.9816
vt 0.4341 0.8237
vt 0.5653 0.6794
vt 0.5653 0.8861
vt 0.5163 0.3193
vt 0.3473 0.8871
vt 0.3476 0.8241
vt 0.5653 0.6854
vt 0.7833 0.8921
vt 0.5653 0.8921
vt 0.6428 0.9816
vt 0.8609 0.9481
vt 0.8609 0.9816
vt 0.4361 0.9481
vt 0.5113 0.0170
vt 0.5653 0.3185
vt 0.7833 0.8908
vt 1.0000 0.6854
vt 1.0000 0.8908
vt 0.0963 0.0000
vt 0.0000 0.2945
vt 0.6401 0.9122
vt 0.8568 0.9122
vt 0.6401 0.9481
vt 0.7497 0.1471
vt 0.7366 0.1487
vt 0.9076 0.6773
vt 0.2728 0.3011
vt 0.3049 0.8291
vt 0.3408 0.7931
vt 0.2540 0.8291
vt 0.3049 0.7063
vt 0.2540 0.7063
vt 0.7420 0.2513
vt 0.4539 0.6784
vt 0.2480 0.8291
vt 0.2604 0.8415
vt 0.2604 0.8590
vt 0.2480 0.8715
vt 0.2181 0.8415
vt 0.3789 0.0000
vt 0.6278 0.0007
vt 0.0000 0.8503
vt 0.9181 0.4288
vt 0.9181 0.6824
vt 0.2181 0.9481
vt 0.1477 0.0168
vt 0.0000 0.7682
vt 0.7833 0.6854
vt 0.6428 0.9481
vt 0.5603 0.0162
vt 0.7833 0.6854
vt 0.8568 0.9481
vn 0.0000 -0.9982 0.0593
vn 0.6031 -0.6035 0.5216
vn 0.0000 -0.8533 0.5213
vn 0.4660 -0.8511 0.2419
vn 0.8529 -0.0003 0.5220
vn 0.7297 0.4105 0.5468
vn 0.6030 0.6027 0.5225
vn 0.7057 0.7059 0.0606
vn 0.0000 0.8525 0.5227
vn -0.7057 0.7059 0.0606
vn -0.6030 0.6027 0.5225
vn -0.7192 0.4062 0.5637
vn -0.8529 -0.0003 0.5220
vn -0.7191 0.4074 -0.5630
vn -0.6031 -0.6035 0.5216
vn -0.4703 -0.8496 0.2386
vn 0.2920 -0.0004 0.9564
vn 0.0000 -0.9982 -0.0598
vn 0.5217 -0.5215 -0.6752
vn 0.4660 -0.8510 -0.2422
vn 0.2907 0.9214 0.2579
vn 0.2910 0.9215 -0.2571
vn 0.7295 0.4117 -0.5462
vn -0.4568 0.8500 0.2622
vn -0.4572 0.8500 -0.2614
vn 0.7058 0.7059 -0.0592
vn 0.0000 0.9982 -0.0591
vn 0.0000 0.9981 0.0609
vn -0.7058 0.7059 -0.0592
vn -0.5217 0.5220 -0.6748
vn 0.0000 0.7380 -0.6747
vn 0.0000 -0.7376 -0.6752
vn -0.4703 -0.8495 -0.2388
vn -0.7378 0.0002 -0.6750
vn -0.5217 -0.5215 -0.6752
vn 0.5217 0.5220 -0.6748
vn 0.7378 0.0002 -0.6750
vn 0.0000 0.2916 0.9565
vn -0.2065 0.2061 0.9565
vn -0.2065 -0.2070 0.9563
vn 0.2065 -0.2070 0.9563
vn 0.0000 -0.2925 0.9562
vn 0.2065 0.2061 0.9565
vn -0.2920 -0.0004 0.9564
vn 0.5520 0.5829 -0.5961
vn 0.8763 -0.3131 -0.3660
vn 0.5702 -0.5810 -0.5807
vn 0.8763 -0.3136 0.3657
vn -0.5757 -0.5787 -0.5776
vn 0.5521 0.5824 0.5967
vn 0.5702 -0.5816 0.5802
vn -0.5270 0.5904 -0.6113
vn -0.8642 -0.3156 -0.3919
vn -0.8641 -0.3162 0.3916
vn -0.5270 0.5898 0.6118
vn 0.5719 -0.5830 0.5771
vn 0.5827 0.5717 0.5776
vn -0.5658 -0.5824 -0.5836
vn -0.5658 -0.5830 0.5831
vn 0.5719 -0.5824 -0.5776
vn 0.5827 0.5722 -0.5771
vn -0.5789 0.5755 0.5776
vn -0.5757 -0.5792 0.5771
vn -0.5789 0.5760 -0.5771
s 1
f 29/1/1 1/2/2 28/3/3
f 30/4/4 31/5/5 1/2/2
f 32/6/6 2/7/7 31/8/5
f 33/9/8 34/10/9 2/7/7
f 34/11/9 35/12/10 4/13/11
f 4/13/11 5/14/12 36/15/13
f 35/12/10 8/16/14 5/14/12
f 37/17/15 29/18/1 28/19/3
f 36/20/13 38/21/16 37/17/15
f 2/7/7 15/22/17 31/8/5
f 6/23/18 9/24/19 40/25/20
f 49/26/21 8/16/14 50/27/22
f 38/21/16 6/28/18 29/18/1
f 39/29/23 25/30/24 53/31/25
f 32/6/6 7/32/26 33/9/8
f 30/4/4 6/23/18 40/25/20
f 33/9/8 43/33/27 3/34/28
f 3/35/28 42/36/29 35/12/10
f 11/37/30 10/38/31 44/39/32
f 7/32/26 10/40/31 43/33/27
f 41/41/33 47/42/34 12/43/35
f 39/29/23 46/44/36 7/32/26
f 8/16/14 11/45/30 47/46/34
f 40/25/20 45/47/37 39/48/23
f 42/36/29 10/49/31 11/45/30
f 6/28/18 12/43/35 44/50/32
f 17/51/38 18/52/39 20/53/40
f 28/3/3 14/54/41 13/55/42
f 34/10/9 16/56/43 2/7/7
f 34/11/9 18/57/39 17/58/38
f 4/13/11 19/59/44 18/57/39
f 37/17/15 19/60/44 36/20/13
f 28/19/3 20/61/40 37/17/15
f 1/2/2 15/62/17 14/54/41
f 52/63/45 21/64/46 23/65/47
f 21/66/46 8/67/14 41/68/33
f 41/68/33 48/69/48 21/66/46
f 5/70/12 48/69/48 38/71/16
f 63/72/49 52/73/45 23/74/47
f 52/75/45 49/26/21 50/27/22
f 48/76/48 23/65/47 21/64/46
f 48/76/48 51/77/50 22/78/51
f 27/79/52 54/80/53 53/81/25
f 32/82/6 24/83/54 25/84/24
f 54/85/53 39/86/23 53/87/25
f 40/88/20 24/83/54 30/89/4
f 55/90/55 58/91/56 57/92/57
f 24/93/54 56/94/58 26/95/59
f 25/30/24 27/96/52 53/31/25
f 24/93/54 55/97/55 25/98/24
f 57/99/57 60/100/60 59/101/61
f 60/102/60 27/103/52 59/104/61
f 26/105/59 60/102/60 58/91/56
f 55/106/55 59/107/61 27/96/52
f 62/108/62 63/109/49 61/110/63
f 62/111/62 52/75/45 64/112/64
f 22/113/51 63/72/49 23/74/47
f 51/114/50 61/115/63 22/113/51
f 29/1/1 30/4/4 1/2/2
f 30/4/4 32/116/6 31/5/5
f 32/6/6 33/9/8 2/7/7
f 33/9/8 3/34/28 34/10/9
f 34/11/9 3/35/28 35/12/10
f 4/13/11 35/12/10 5/14/12
f 35/12/10 42/36/29 8/16/14
f 37/17/15 38/21/16 29/18/1
f 36/20/13 5/117/12 38/21/16
f 2/7/7 16/56/43 15/22/17
f 6/23/18 44/118/32 9/24/19
f 49/26/21 5/14/12 8/16/14
f 38/21/16 41/41/33 6/28/18
f 39/29/23 32/6/6 25/30/24
f 32/6/6 39/29/23 7/32/26
f 30/4/4 29/1/1 6/23/18
f 33/9/8 7/32/26 43/33/27
f 3/35/28 43/119/27 42/36/29
f 45/120/37 9/121/19 46/122/36
f 44/39/32 12/123/35 11/37/30
f 47/124/34 11/37/30 12/123/35
f 10/38/31 46/122/36 44/39/32
f 9/121/19 44/39/32 46/122/36
f 7/32/26 46/44/36 10/40/31
f 41/41/33 8/125/14 47/42/34
f 39/29/23 45/126/37 46/44/36
f 8/16/14 42/36/29 11/45/30
f 40/25/20 9/24/19 45/47/37
f 42/36/29 43/119/27 10/49/31
f 6/28/18 41/41/33 12/43/35
f 20/53/40 13/127/42 17/51/38
f 14/128/41 15/129/17 16/130/43
f 16/130/43 17/51/38 13/127/42
f 18/52/39 19/131/44 20/53/40
f 13/127/42 14/128/41 16/130/43
f 28/3/3 1/2/2 14/54/41
f 34/10/9 17/132/38 16/56/43
f 34/11/9 4/13/11 18/57/39
f 4/13/11 36/15/13 19/59/44
f 37/17/15 20/61/40 19/60/44
f 28/19/3 13/133/42 20/61/40
f 1/2/2 31/5/5 15/62/17
f 52/63/45 50/134/22 21/64/46
f 21/66/46 50/135/22 8/67/14
f 41/68/33 38/71/16 48/69/48
f 5/70/12 49/136/21 48/69/48
f 63/72/49 64/137/64 52/73/45
f 52/75/45 51/138/50 49/26/21
f 48/76/48 22/78/51 23/65/47
f 48/76/48 49/139/21 51/77/50
f 27/79/52 56/94/58 54/80/53
f 32/82/6 30/89/4 24/83/54
f 54/85/53 40/88/20 39/86/23
f 40/88/20 54/85/53 24/83/54
f 55/90/55 26/105/59 58/91/56
f 24/93/54 54/80/53 56/94/58
f 25/30/24 55/106/55 27/96/52
f 24/93/54 26/95/59 55/97/55
f 57/99/57 58/140/56 60/100/60
f 60/102/60 56/141/58 27/103/52
f 26/105/59 56/141/58 60/102/60
f 55/106/55 57/142/57 59/107/61
f 62/108/62 64/143/64 63/109/49
f 62/111/62 51/138/50 52/75/45
f 22/113/51 61/115/63 63/72/49
f 51/114/50 62/144/62 61/115/63
