# Blender v2.78 (sub 0) OBJ File: 'Sail3.blend'
# www.blender.org
o obj.sail.000_Plane
v -0.955628 -0.427536 -0.331724
v -0.955694 0.401652 -0.310269
v 0.965979 -0.427536 -0.325864
v 0.965913 0.401652 -0.304408
v -0.956503 0.753250 -0.044745
v 0.965104 0.753250 -0.038885
v -0.957902 1.044451 0.413954
v 0.963705 1.044451 0.419814
v -0.955963 -0.782166 -0.221918
v 0.965644 -0.782166 -0.216058
v -0.957120 -1.144549 0.157411
v 0.964487 -1.144549 0.163271
v -1.288219 -0.427536 0.098083
v -1.284523 0.401652 0.151709
v -1.300174 0.753250 0.310319
v -1.322047 1.044451 0.505931
v -1.287277 -0.782166 0.135152
v -1.321264 -1.144549 0.249389
v 1.328362 -0.427536 0.104027
v 1.312184 0.401652 0.157592
v 1.333746 0.753250 0.296445
v 1.349941 1.044451 0.514080
v 1.303889 -0.782166 0.131244
v 1.350723 -1.144549 0.257537
v -0.955476 -0.023119 -0.381539
v 0.966131 -0.023119 -0.375679
v -1.283774 -0.023119 0.090169
v 1.311911 -0.023119 0.096048
v 0.005854 -0.427536 -0.551209
v 0.005788 0.401652 -0.529753
v 0.004856 0.754930 -0.224245
v 0.003060 1.044451 0.364673
v 0.005354 -0.782166 -0.387401
v 0.003843 -1.144549 0.108130
v 0.006006 -0.023119 -0.601024
v -0.955628 -0.427536 -0.316760
v -0.955694 0.401652 -0.295304
v 0.965979 -0.427536 -0.310900
v 0.965913 0.401652 -0.289444
v -0.956503 0.753250 -0.029780
v 0.965104 0.753250 -0.023920
v -0.957902 1.044451 0.428919
v 0.963705 1.044451 0.434779
v -0.955963 -0.782166 -0.206953
v 0.965644 -0.782166 -0.201093
v -0.957120 -1.144549 0.172376
v 0.964487 -1.144549 0.178236
v -1.288219 -0.427536 0.113048
v -1.284523 0.401652 0.166674
v -1.300174 0.753250 0.325283
v -1.322047 1.044451 0.520896
v -1.287277 -0.782166 0.150116
v -1.321264 -1.144549 0.264353
v 1.328362 -0.427536 0.118991
v 1.312184 0.401652 0.172557
v 1.333746 0.753250 0.311409
v 1.349941 1.044451 0.529045
v 1.303889 -0.782166 0.146209
v 1.350723 -1.144549 0.272502
v -0.955476 -0.023119 -0.366575
v 0.966131 -0.023119 -0.360714
v -1.283774 -0.023119 0.105133
v 1.311911 -0.023119 0.111013
v 0.005854 -0.427536 -0.536244
v 0.005788 0.401652 -0.514788
v 0.004856 0.754930 -0.209280
v 0.003060 1.044451 0.379638
v 0.005354 -0.782166 -0.372436
v 0.003843 -1.144549 0.123095
v 0.006006 -0.023119 -0.586059
vn 0.5375 0.0183 -0.8430
vn 0.0029 -0.2684 -0.9633
vn 0.0030 0.0214 -0.9998
vn 0.0019 0.7746 -0.6324
vn 0.4999 0.3424 -0.7955
vn 0.0028 0.4113 -0.9115
vn 0.0008 0.9679 -0.2514
vn 0.3742 0.6639 -0.6474
vn 0.0024 -0.6084 -0.7936
vn -0.5225 -0.1788 -0.8337
vn 0.0010 -0.9405 -0.3399
vn -0.4236 -0.4691 -0.7749
vn -0.1557 -0.8840 -0.4408
vn -0.8839 -0.1591 -0.4397
vn -0.9387 -0.0319 -0.3433
vn -0.9464 0.0191 -0.3224
vn -0.5071 0.3399 -0.7920
vn -0.5444 0.0181 -0.8386
vn -0.8658 0.2933 -0.4053
vn -0.1218 0.9322 -0.3407
vn -0.3911 0.6607 -0.6406
vn -0.9300 0.1200 -0.3475
vn 0.8686 -0.1876 -0.4586
vn 0.1496 -0.8869 -0.4371
vn 0.4118 -0.4748 -0.7777
vn 0.1101 0.9364 -0.3331
vn 0.8508 0.3036 -0.4288
vn 0.9344 -0.0404 -0.3540
vn 0.5106 -0.1784 -0.8411
vn 0.9406 0.0316 -0.3380
vn 0.9250 0.1131 -0.3627
vn -0.0029 0.2684 0.9633
vn -0.5375 -0.0183 0.8430
vn -0.0030 -0.0214 0.9998
vn -0.4999 -0.3424 0.7955
vn -0.0019 -0.7746 0.6324
vn -0.0028 -0.4113 0.9115
vn -0.3742 -0.6639 0.6474
vn -0.0029 0.2537 0.9673
vn 0.5225 0.1788 0.8337
vn -0.0024 0.6084 0.7936
vn 0.4236 0.4691 0.7749
vn -0.0028 -0.3425 0.9395
vn 0.2918 -0.4817 0.8263
vn -0.4490 0.3856 0.8060
vn -0.5137 -0.4543 0.7278
vn -0.3500 0.0985 0.9315
vn 0.5071 -0.3399 0.7920
vn -0.3205 -0.0418 0.9463
vn 0.5444 -0.0181 0.8386
vn 0.3122 0.3737 0.8734
vn -0.4982 -0.5791 0.6453
vn 0.3911 -0.6607 0.6406
vn -0.3583 -0.3592 0.8617
vn -0.2850 -0.4749 0.8326
vn 0.4448 0.3889 0.8068
vn -0.4118 0.4748 0.7777
vn -0.2928 0.3604 0.8856
vn 0.5378 -0.5546 0.6350
vn 0.4842 0.3487 0.8025
vn 0.3894 0.0651 0.9188
vn -0.5106 0.1784 0.8411
vn 0.3275 -0.0291 0.9444
vn 0.3639 -0.3487 0.8637
vn -0.6783 0.6648 -0.3128
vn 0.6729 0.6771 -0.2977
vn 0.6836 -0.6126 -0.3966
vn -0.6731 -0.6203 -0.4027
vn -0.4890 0.3635 0.7929
vn 0.5240 -0.4393 0.7297
s 1
f 26//1 29//2 35//3
f 31//4 4//5 30//6
f 32//7 6//8 31//4
f 33//9 1//10 29//2
f 34//11 9//12 33//9
f 11//13 17//14 9//12
f 9//12 13//15 1//10
f 27//16 2//17 25//18
f 15//19 7//20 5//21
f 14//22 5//21 2//17
f 23//23 12//24 10//25
f 8//26 21//27 6//8
f 19//28 10//25 3//29
f 28//30 3//29 26//1
f 6//8 20//31 4//5
f 30//6 26//1 35//3
f 1//10 27//16 25//18
f 4//5 28//30 26//1
f 25//18 29//2 1//10
f 2//17 31//4 30//6
f 5//21 32//7 31//4
f 3//29 33//9 29//2
f 10//25 34//11 33//9
f 30//6 25//18 2//17
f 64//32 61//33 70//34
f 39//35 66//36 65//37
f 41//38 67//39 66//36
f 36//40 68//41 64//32
f 44//42 69//43 68//41
f 46//44 52//45 53//46
f 44//42 48//47 52//45
f 37//48 62//49 60//50
f 42//51 50//52 40//53
f 40//53 49//54 37//48
f 47//55 58//56 45//57
f 43//58 56//59 57//60
f 45//57 54//61 38//62
f 38//62 63//63 61//33
f 41//38 55//64 56//59
f 65//37 61//33 39//35
f 36//40 62//49 48//47
f 39//35 63//63 55//64
f 60//50 64//32 70//34
f 37//48 66//36 40//53
f 40//53 67//39 42//51
f 38//62 68//41 45//57
f 45//57 69//43 47//55
f 60//50 65//37 37//48
f 14//22 62//49 49//54
f 49//54 15//19 14//22
f 50//52 16//65 15//19
f 16//65 42//51 7//20
f 7//20 67//39 32//7
f 8//26 67//39 43//58
f 43//58 22//66 8//26
f 22//66 56//59 21//27
f 21//27 55//64 20//31
f 20//31 63//63 28//30
f 19//28 63//63 54//61
f 54//61 23//23 19//28
f 58//56 24//67 23//23
f 24//67 47//55 12//24
f 12//24 69//43 34//11
f 11//13 69//43 46//44
f 46//44 18//68 11//13
f 18//68 52//45 17//14
f 17//14 48//47 13//15
f 13//15 62//49 27//16
f 26//1 3//29 29//2
f 31//4 6//8 4//5
f 32//7 8//26 6//8
f 33//9 9//12 1//10
f 34//11 11//13 9//12
f 11//13 18//68 17//14
f 9//12 17//14 13//15
f 27//16 14//22 2//17
f 15//19 16//65 7//20
f 14//22 15//19 5//21
f 23//23 24//67 12//24
f 8//26 22//66 21//27
f 19//28 23//23 10//25
f 28//30 19//28 3//29
f 6//8 21//27 20//31
f 30//6 4//5 26//1
f 1//10 13//15 27//16
f 4//5 20//31 28//30
f 25//18 35//3 29//2
f 2//17 5//21 31//4
f 5//21 7//20 32//7
f 3//29 10//25 33//9
f 10//25 12//24 34//11
f 30//6 35//3 25//18
f 64//32 38//62 61//33
f 39//35 41//38 66//36
f 41//38 43//58 67//39
f 36//40 44//42 68//41
f 44//42 46//44 69//43
f 46//44 44//42 52//45
f 44//42 36//40 48//47
f 37//48 49//54 62//49
f 42//51 51//69 50//52
f 40//53 50//52 49//54
f 47//55 59//70 58//56
f 43//58 41//38 56//59
f 45//57 58//56 54//61
f 38//62 54//61 63//63
f 41//38 39//35 55//64
f 65//37 70//34 61//33
f 36//40 60//50 62//49
f 39//35 61//33 63//63
f 60//50 36//40 64//32
f 37//48 65//37 66//36
f 40//53 66//36 67//39
f 38//62 64//32 68//41
f 45//57 68//41 69//43
f 60//50 70//34 65//37
f 14//22 27//16 62//49
f 49//54 50//52 15//19
f 50//52 51//69 16//65
f 16//65 51//69 42//51
f 7//20 42//51 67//39
f 8//26 32//7 67//39
f 43//58 57//60 22//66
f 22//66 57//60 56//59
f 21//27 56//59 55//64
f 20//31 55//64 63//63
f 19//28 28//30 63//63
f 54//61 58//56 23//23
f 58//56 59//70 24//67
f 24//67 59//70 47//55
f 12//24 47//55 69//43
f 11//13 34//11 69//43
f 46//44 53//46 18//68
f 18//68 53//46 52//45
f 17//14 52//45 48//47
f 13//15 48//47 62//49
