# Blender v2.78 (sub 0) OBJ File: 'tempShipModel.blend'
# www.blender.org
o col.tempshiphull2Collision.000_Cube.023
v -1.795033 -3.977614 4.667669
v -1.817519 -3.977615 4.258720
v -1.517283 -3.977615 4.258720
v -1.515881 -3.977615 4.272519
v 1.548340 -3.977615 4.272478
v 1.548661 -3.977615 4.258720
v 1.734433 -3.977615 4.258720
v 1.722993 -3.977615 4.466868
v 1.714185 -3.977614 4.667622
v 1.718464 -3.977614 4.752545
v 1.298107 -3.977614 6.549897
v 1.280632 -3.977615 6.627144
v 0.919299 -3.977615 7.591260
v 0.907108 -3.977614 7.632626
v 0.903251 -3.977615 7.657048
v 0.889999 -3.977615 7.664368
v 0.697683 -3.977615 7.909225
v -0.777255 -3.977615 7.909244
v -0.978416 -3.977615 7.664393
v -0.995339 -3.977615 7.657074
v -0.999847 -3.977615 7.632653
v -1.011696 -3.977615 7.591287
v -1.363933 -3.977615 6.627182
v -1.381286 -3.977616 6.549934
v -1.801693 -3.977614 4.752594
v -1.804150 -3.977615 4.729033
v -1.748440 -3.559268 4.258720
v -1.778081 -2.683913 4.258719
v 1.623795 -2.122258 4.258720
v 1.677847 -3.559316 4.258720
v 1.723081 -3.907912 4.258719
v 0.511116 -2.384361 8.254079
v 0.507656 -2.385240 8.258425
v -0.529258 -2.385242 8.258436
v -0.532850 -2.384364 8.254091
v 1.186632 -2.021932 6.460171
v 1.022464 -2.114420 6.917964
v -1.111058 -2.114428 6.917995
v -1.271033 -2.021939 6.460205
v 0.793832 -2.276855 7.721960
v -0.888920 -2.276860 7.721982
v -0.816950 -2.360732 8.137117
v 0.733142 -2.360727 8.137097
v -1.668206 -1.702873 4.597524
v 1.586523 -1.702886 4.597488
v 1.560190 -1.666961 4.703187
v -1.642074 -1.666961 4.703187
v 1.616122 -1.783944 4.358997
v 1.630581 -1.818026 4.258720
v 1.620201 -1.747079 4.467461
v -1.701916 -1.747064 4.467506
v -1.727807 -1.818026 4.258719
v 1.486666 -1.813284 4.272673
v -1.563727 -1.813270 4.272715
v -1.565044 -1.818026 4.258720
v 1.487127 -1.818026 4.258719
vt 0.6807 0.1321
vt 0.6806 0.1322
vt 0.6807 0.1321
vt 0.6870 0.1533
vt 0.6870 0.1534
vt 0.6870 0.1532
vt 0.6971 0.1748
vt 0.6972 0.1750
vt 0.6972 0.1749
vt 0.5792 0.6713
vt 0.5774 0.6697
vt 0.5810 0.6730
vt 0.7389 0.1802
vt 0.7388 0.1802
vt 0.7389 0.1803
vt 0.9328 0.9481
vt 0.9327 0.9482
vt 0.9327 0.9482
vt 0.7389 0.1802
vt 0.5775 0.6767
vt 0.5771 0.6762
vt 0.5769 0.6759
vt 0.8100 0.1816
vt 0.8101 0.1817
vt 0.8100 0.1817
vt 0.8100 0.1816
vt 0.8100 0.1817
vt 0.2124 0.5048
vt 0.2124 0.5049
vt 0.2124 0.5048
vt 0.2230 0.4632
vt 0.2231 0.4632
vt 0.2230 0.4632
vt 0.2213 0.4566
vt 0.2214 0.4566
vt 0.2214 0.4566
vt 0.8100 0.1817
vt 0.1694 0.5122
vt 0.1695 0.5122
vt 0.1694 0.5122
vt 0.8447 0.1702
vt 0.8446 0.1700
vt 0.8446 0.1700
vt 0.8446 0.1701
vt 0.8445 0.1699
vt 0.0965 0.5196
vt 0.0966 0.5195
vt 0.0965 0.5195
vt 0.8879 0.4434
vt 0.8880 0.4434
vt 0.8880 0.4434
vt 0.0624 0.5109
vt 0.0624 0.5110
vt 0.0624 0.5109
vt 0.0966 0.5194
vt 0.0965 0.5195
vt 0.0625 0.5109
vt 0.0624 0.5110
vt 0.0965 0.5196
vt 0.2092 0.5375
vt 0.2091 0.5376
vt 0.2091 0.5376
vt 0.1694 0.5123
vt 0.1694 0.5123
vt 0.6870 0.1533
vt 0.6972 0.1749
vt 0.6971 0.1748
vt 0.5775 0.6697
vt 0.7389 0.1802
vt 0.9328 0.9481
vt 0.7389 0.1802
vt 0.7389 0.1802
vt 0.5760 0.6749
vt 0.8100 0.1816
vt 0.2124 0.5049
vt 0.2124 0.5050
vt 0.2124 0.5049
vt 0.2230 0.4632
vt 0.8100 0.1816
vt 0.1695 0.5122
vt 0.8445 0.1699
vt 0.0966 0.5195
vt 0.8880 0.4435
vt 0.0625 0.5109
vt 0.0966 0.5194
vt 0.1695 0.5122
vt 0.0000 0.0000
vt 0.0000 0.0000
vt 0.0000 0.0000
vt 0.0000 0.0000
vt 0.0000 0.0000
vt 0.0000 0.0000
vt 0.0000 0.0000
vt 0.0000 0.0000
vt 0.0000 0.0000
vt 0.0000 0.0000
vt 0.0000 0.0000
vt 0.0000 0.0000
vt 0.0000 0.0000
vt 0.0000 0.0000
vt 0.0000 0.0000
vt 0.0000 0.0000
vt 0.0000 0.0000
vt 0.0000 0.0000
vt 0.0000 0.0000
vt 0.0000 0.0000
vt 0.0000 0.0000
vt 0.0000 0.0000
vt 0.0000 0.0000
vt 0.0000 0.0000
vt 0.0000 0.0000
vt 0.0000 0.0000
vt 0.0000 0.0000
vt 0.0000 0.0000
vt 0.0000 0.0000
vt 0.0000 0.0000
vt 0.0000 0.0000
vt 0.0000 0.0000
vt 0.0000 0.0000
vt 0.0000 0.0000
vt 0.0000 0.0000
vt 0.0000 0.0000
vt 0.0000 0.0000
vt 0.0000 0.0000
vt 0.0000 0.0000
vt 0.0000 0.0000
vt 0.0000 0.0000
vt 0.0000 0.0000
vt 0.0000 0.0000
vt 0.0000 0.0000
vt 0.0000 0.0000
vt 0.0000 0.0000
vt 0.0000 0.0000
vt 0.0000 0.0000
vt 0.0000 0.0000
vt 0.0000 0.0000
vt 0.0000 0.0000
vt 0.0000 0.0000
vt 0.0000 0.0000
vt 0.0000 0.0000
vt 0.0000 0.0000
vt 0.0000 0.0000
vn -0.6860 -0.7245 -0.0663
vn -0.6472 0.0097 -0.7622
vn -0.6440 -0.5281 -0.5535
vn -0.7407 -0.6717 0.0045
vn -0.7057 0.7018 -0.0976
vn -0.7423 0.0355 -0.6691
vn -0.7322 -0.6692 0.1268
vn 0.5550 0.4750 -0.6828
vn 0.3034 -0.8899 -0.3406
vn 0.5516 -0.5773 -0.6020
vn -0.6883 0.7220 -0.0700
vn -0.7113 -0.6840 0.1616
vn -0.2241 0.7935 -0.5658
vn -0.3002 -0.9048 -0.3018
vn -0.6212 0.7810 0.0645
vn -0.5954 0.4589 -0.6595
vn -0.5609 -0.5859 -0.5849
vn -0.6218 0.7035 0.3442
vn -0.7140 -0.6673 0.2118
vn -0.6858 -0.6945 0.2172
vn -0.6447 0.7072 0.2902
vn -0.6948 -0.7000 0.1647
vn 0.6885 0.0221 -0.7249
vn 0.7236 0.6764 -0.1374
vn 0.7509 -0.6560 0.0757
vn 0.7504 -0.6601 0.0338
vn 0.6855 0.0412 -0.7269
vn 0.7175 -0.6962 -0.0190
vn 0.6433 -0.5287 -0.5536
vn 0.7129 0.1019 -0.6937
vn -0.6414 -0.6407 0.4220
vn 0.6886 0.7218 -0.0695
vn 0.7114 -0.6837 0.1624
vn -0.3243 -0.8094 0.4895
vn -0.5930 0.5073 0.6253
vn -0.3625 -0.6650 0.6529
vn -0.3973 0.6700 0.6271
vn 0.7138 -0.6663 0.2157
vn 0.6193 0.7034 0.3488
vn 0.6843 -0.6943 0.2227
vn 0.3633 -0.6695 0.6479
vn -0.3032 0.4856 0.8199
vn 0.6204 0.5228 0.5846
vn 0.3662 -0.7997 0.4758
vn 0.6631 -0.6415 0.3857
vn 0.6416 0.7121 0.2850
vn 0.6930 -0.7033 0.1581
vn 0.4299 0.6584 0.6178
vn 0.6526 0.4595 -0.6024
vn 0.6813 0.6966 -0.2249
vn 0.6546 0.6864 0.3168
vn -0.6166 0.4851 -0.6200
vn 0.2229 0.7919 -0.5685
vn -0.6551 0.6871 0.3141
vn 0.3175 0.4801 0.8177
vn 0.6208 0.7812 0.0652
vn -0.0000 -1.0000 0.0000
vn 0.0000 0.0000 -1.0000
vn 0.0000 0.9468 -0.3218
vn 0.0000 0.9802 0.1980
vn 0.0002 -1.0000 0.0000
vn -0.0001 -1.0000 -0.0001
vn 0.0001 -1.0000 0.0000
vn 0.0000 0.9802 0.1981
s 1
f 1/1/1 27/2/2 2/3/3
f 26/4/4 27/5/2 1/6/1
f 51/7/5 28/8/6 25/9/7
f 55/10/8 4/11/9 3/12/10
f 44/13/11 25/14/7 24/15/12
f 4/16/9 53/17/13 5/18/14
f 47/19/15 44/13/11 24/15/12
f 5/20/14 56/21/16 6/22/17
f 38/23/18 23/24/19 22/25/20
f 41/26/21 22/25/20 21/27/22
f 29/28/23 50/29/24 10/30/25
f 8/31/26 30/32/27 9/33/28
f 7/34/29 31/35/30 8/36/26
f 20/37/31 41/26/21 21/27/22
f 10/38/25 45/39/32 11/40/33
f 19/41/34 42/42/35 20/43/31
f 18/44/36 35/45/37 19/41/34
f 12/46/38 37/47/39 13/48/40
f 17/49/41 34/50/42 18/51/36
f 43/52/43 16/53/44 15/54/45
f 13/48/40 40/55/46 14/56/47
f 32/57/48 17/58/41 16/53/44
f 40/55/46 15/59/45 14/56/47
f 49/60/49 48/61/50 29/62/23
f 36/63/51 12/64/38 11/40/33
f 26/4/4 28/65/6 27/5/2
f 26/66/4 25/9/7 28/8/6
f 51/7/5 52/67/52 28/8/6
f 55/10/8 54/68/53 4/11/9
f 44/13/11 51/69/5 25/14/7
f 4/16/9 54/70/53 53/17/13
f 24/15/12 23/71/19 39/72/54
f 39/72/54 47/19/15 24/15/12
f 5/20/14 53/73/13 56/21/16
f 38/23/18 39/74/54 23/24/19
f 41/26/21 38/23/18 22/25/20
f 10/30/25 9/75/28 30/76/27
f 30/76/27 29/28/23 10/30/25
f 48/77/50 50/29/24 29/28/23
f 8/31/26 31/78/30 30/32/27
f 20/37/31 42/79/35 41/26/21
f 10/38/25 50/80/24 45/39/32
f 19/41/34 35/45/37 42/42/35
f 18/44/36 34/81/42 35/45/37
f 12/46/38 36/82/51 37/47/39
f 17/49/41 33/83/55 34/50/42
f 43/52/43 32/57/48 16/53/44
f 13/48/40 37/47/39 40/55/46
f 32/57/48 33/84/55 17/58/41
f 40/55/46 43/85/43 15/59/45
f 11/40/33 45/39/32 46/86/56
f 46/86/56 36/63/51 11/40/33
s off
f 18/87/57 19/88/57 22/89/57
f 28/90/58 55/91/58 3/92/58
f 6/93/58 30/94/58 31/95/58
f 54/96/59 46/97/59 53/98/59
f 35/99/60 32/100/60 40/101/60
f 1/102/57 2/103/57 4/104/57
f 2/103/57 3/92/57 4/104/57
f 25/105/61 26/106/61 1/102/61
f 22/89/57 23/107/57 13/108/57
f 24/109/57 25/105/57 4/104/57
f 1/102/57 4/104/57 25/105/57
f 5/110/57 6/93/57 7/111/57
f 5/110/57 7/111/57 8/112/57
f 24/109/57 4/104/57 11/113/57
f 23/107/57 24/109/57 12/114/57
f 5/110/57 8/112/57 9/115/57
f 9/115/57 10/116/57 5/110/57
f 11/113/57 12/114/57 24/109/57
f 14/117/62 15/118/62 16/119/62
f 10/116/57 11/113/57 4/104/57
f 13/108/63 14/117/63 16/119/63
f 16/119/57 17/120/57 13/108/57
f 19/88/57 20/121/57 21/122/57
f 17/120/57 18/87/57 13/108/57
f 12/114/57 13/108/57 23/107/57
f 4/104/57 5/110/57 10/116/57
f 19/88/63 21/122/63 22/89/63
f 13/108/57 18/87/57 22/89/57
f 3/92/58 2/103/58 27/123/58
f 27/123/58 28/90/58 3/92/58
f 52/124/58 55/91/58 28/90/58
f 6/93/58 56/125/58 30/94/58
f 56/125/58 49/126/58 29/127/58
f 31/95/58 7/111/58 6/93/58
f 56/125/58 29/127/58 30/94/58
f 48/128/59 49/126/59 53/98/59
f 49/126/59 56/125/59 53/98/59
f 45/129/59 50/130/59 53/98/59
f 47/131/59 46/97/59 54/96/59
f 52/124/59 51/132/59 54/96/59
f 44/133/59 47/131/59 54/96/59
f 50/130/59 48/128/59 53/98/59
f 54/96/59 55/91/59 52/124/59
f 45/129/59 53/98/59 46/97/59
f 51/132/59 44/133/59 54/96/59
f 36/134/60 46/97/60 47/131/60
f 47/131/60 39/135/60 36/134/60
f 41/136/60 42/137/60 35/99/60
f 39/135/60 38/138/60 37/139/60
f 37/139/60 36/134/60 39/135/60
f 32/100/60 43/140/60 40/101/60
f 40/101/60 37/139/60 38/138/60
f 38/138/60 41/136/60 40/101/60
f 35/99/64 34/141/64 33/142/64
f 33/142/60 32/100/60 35/99/60
f 40/101/60 41/136/60 35/99/60
