# Blender v2.78 (sub 0) OBJ File: 'barrel.blend'
# www.blender.org
mtllib collisionBarrel.mtl
o col.barrelCollision.000_Cylinder
v 0.005601 -0.455489 -0.300948
v 0.005601 0.461311 -0.296832
v 0.064406 -0.455489 -0.295156
v 0.063603 0.461311 -0.291119
v 0.120950 -0.455489 -0.278004
v 0.119375 0.461311 -0.274201
v 0.173062 -0.455489 -0.250149
v 0.170775 0.461311 -0.246727
v 0.218739 -0.455489 -0.212663
v 0.215828 0.461311 -0.209753
v 0.256225 -0.455489 -0.166987
v 0.252802 0.461311 -0.164700
v 0.284079 -0.455489 -0.114875
v 0.280276 0.461311 -0.113300
v 0.301232 -0.455489 -0.058330
v 0.297195 0.461311 -0.057527
v 0.307023 -0.455489 0.000474
v 0.302907 0.461311 0.000474
v 0.301232 -0.455489 0.059279
v 0.297195 0.461311 0.058476
v 0.284079 -0.455489 0.115824
v 0.280276 0.461311 0.114249
v 0.256225 -0.455489 0.167936
v 0.252802 0.461311 0.165649
v 0.218739 -0.455489 0.213612
v 0.215828 0.461311 0.210702
v 0.173062 -0.455489 0.251098
v 0.170775 0.461311 0.247676
v 0.120950 -0.455489 0.278953
v 0.119375 0.461311 0.275150
v 0.064405 -0.455489 0.296105
v 0.063602 0.461311 0.292068
v 0.005601 -0.455489 0.301897
v 0.005601 0.461311 0.297781
v -0.053204 -0.455489 0.296105
v -0.052401 0.461311 0.292068
v -0.109749 -0.455489 0.278953
v -0.108173 0.461311 0.275150
v -0.161861 -0.455489 0.251098
v -0.159574 0.461311 0.247676
v -0.207537 -0.455489 0.213612
v -0.204627 0.461311 0.210702
v -0.245023 -0.455489 0.167936
v -0.241600 0.461311 0.165649
v -0.272877 -0.455489 0.115824
v -0.269074 0.461311 0.114248
v -0.290030 -0.455489 0.059279
v -0.285993 0.461311 0.058476
v -0.295822 -0.455489 0.000474
v -0.291705 0.461311 0.000474
v -0.290030 -0.455489 -0.058330
v -0.285993 0.461311 -0.057527
v -0.272877 -0.455489 -0.114875
v -0.269074 0.461311 -0.113300
v -0.245023 -0.455489 -0.166987
v -0.241600 0.461311 -0.164700
v -0.207537 -0.455489 -0.212664
v -0.204626 0.461311 -0.209753
v -0.161860 -0.455489 -0.250149
v -0.159573 0.461311 -0.246727
v -0.109748 -0.455489 -0.278004
v -0.108173 0.461311 -0.274201
v -0.053203 -0.455489 -0.295156
v -0.052400 0.461311 -0.291119
v 0.005601 0.010530 -0.377526
v 0.005601 0.315787 -0.343417
v 0.072691 0.315787 -0.336809
v 0.079345 0.010530 -0.370262
v 0.137202 0.315787 -0.317240
v 0.150255 0.010530 -0.348752
v 0.196657 0.315787 -0.285461
v 0.215606 0.010530 -0.313821
v 0.248769 0.315787 -0.242693
v 0.272887 0.010530 -0.266812
v 0.291536 0.315787 -0.190581
v 0.319896 0.010530 -0.209531
v 0.323315 0.315787 -0.131127
v 0.354827 0.010530 -0.144180
v 0.342884 0.315787 -0.066615
v 0.376338 0.010530 -0.073270
v 0.349492 0.315787 0.000474
v 0.383601 0.010530 0.000474
v 0.342884 0.315787 0.067564
v 0.376338 0.010530 0.074219
v 0.323315 0.315787 0.132076
v 0.354827 0.010530 0.145129
v 0.291536 0.315787 0.191530
v 0.319896 0.010530 0.210480
v 0.248769 0.315787 0.243642
v 0.272887 0.010530 0.267761
v 0.196657 0.315787 0.286410
v 0.215606 0.010530 0.314770
v 0.137202 0.315787 0.318189
v 0.150255 0.010530 0.349701
v 0.072691 0.315787 0.337758
v 0.079345 0.010530 0.371211
v 0.005601 0.315787 0.344366
v 0.005601 0.010530 0.378474
v -0.061489 0.315787 0.337758
v -0.068143 0.010530 0.371211
v -0.126001 0.315787 0.318188
v -0.139054 0.010530 0.349701
v -0.185455 0.315787 0.286409
v -0.204405 0.010530 0.314770
v -0.237567 0.315787 0.243642
v -0.261686 0.010530 0.267761
v -0.280334 0.315787 0.191530
v -0.308695 0.010530 0.210480
v -0.312113 0.315787 0.132076
v -0.343626 0.010530 0.145129
v -0.331683 0.315787 0.067564
v -0.365136 0.010530 0.074218
v -0.338290 0.315787 0.000474
v -0.372399 0.010530 0.000474
v -0.331682 0.315787 -0.066616
v -0.365136 0.010530 -0.073270
v -0.312113 0.315787 -0.131127
v -0.343625 0.010530 -0.144180
v -0.280334 0.315787 -0.190582
v -0.308694 0.010530 -0.209531
v -0.237567 0.315787 -0.242694
v -0.261685 0.010530 -0.266812
v -0.185454 0.315787 -0.285461
v -0.204404 0.010530 -0.313821
v -0.126000 0.315787 -0.317240
v -0.139053 0.010530 -0.348752
v -0.061488 0.315787 -0.336809
v -0.068143 0.010530 -0.370263
vt 0.2575 0.0046
vt 0.2829 0.0579
vt 0.2533 0.0569
vt 0.2834 0.0058
vt 0.3124 0.0573
vt 0.3195 0.0051
vt 0.3449 0.0583
vt 0.3153 0.0574
vt 0.3710 0.0055
vt 0.3744 0.0577
vt 0.3814 0.0055
vt 0.4069 0.0586
vt 0.3773 0.0578
vt 0.4072 0.0065
vt 0.4365 0.0580
vt 0.4433 0.0057
vt 0.4689 0.0588
vt 0.4393 0.0580
vt 0.4948 0.0059
vt 0.4985 0.0581
vt 0.5014 0.0582
vt 0.5311 0.0068
vt 0.5310 0.0589
vt 0.5568 0.0059
vt 0.5606 0.0581
vt 0.5672 0.0058
vt 0.5930 0.0589
vt 0.5634 0.0582
vt 0.5931 0.0068
vt 0.6226 0.0581
vt 0.6292 0.0057
vt 0.6551 0.0588
vt 0.6255 0.0581
vt 0.6551 0.0066
vt 0.6847 0.0579
vt 0.6912 0.0055
vt 0.7172 0.0585
vt 0.6876 0.0579
vt 0.7170 0.0064
vt 0.7468 0.0576
vt 0.7532 0.0052
vt 0.7793 0.0582
vt 0.7497 0.0576
vt 0.8047 0.0050
vt 0.8089 0.0572
vt 0.8151 0.0048
vt 0.8413 0.0577
vt 0.8117 0.0572
vt 0.8410 0.0056
vt 0.8709 0.0567
vt 0.8767 0.0044
vt 0.9032 0.0570
vt 0.8736 0.0567
vt 0.9026 0.0050
vt 0.9328 0.0558
vt 0.9370 0.0038
vt 0.9644 0.0558
vt 0.9349 0.0560
vt 0.9627 0.0039
vt 0.9938 0.0540
vt 0.0106 0.0001
vt 0.0350 0.0542
vt 0.0053 0.0527
vt 0.0624 0.0016
vt 0.0648 0.0542
vt 0.0719 0.0022
vt 0.0969 0.0557
vt 0.0672 0.0546
vt 0.0978 0.0036
vt 0.1265 0.0554
vt 0.1337 0.0033
vt 0.1589 0.0567
vt 0.1293 0.0556
vt 0.1596 0.0046
vt 0.1884 0.0562
vt 0.3093 0.3455
vt 0.4921 0.3635
vt 0.4741 0.5463
vt 0.2209 0.0573
vt 0.2471 0.0047
vt 0.2504 0.0568
vt 0.1956 0.0041
vt 0.1913 0.0563
vt 0.2330 0.5313
vt 0.0476 0.5495
vt 0.0294 0.3642
vt 0.6864 0.1589
vt 0.7180 0.3153
vt 0.6919 0.3162
vt 0.6242 0.1590
vt 0.3442 0.1584
vt 0.3169 0.3154
vt 0.3131 0.1582
vt 0.7175 0.1588
vt 0.7442 0.3161
vt 0.5619 0.1591
vt 0.5308 0.1591
vt 0.4375 0.1589
vt 0.4054 0.3152
vt 0.4064 0.1588
vt 0.0953 0.1562
vt 0.0677 0.3129
vt 0.0640 0.1559
vt 0.1265 0.1565
vt 0.0937 0.3124
vt 0.6553 0.1590
vt 0.9676 0.1563
vt 0.9938 0.3156
vt 0.9674 0.3147
vt 0.2820 0.1580
vt 0.1576 0.1568
vt 0.1297 0.3136
vt 0.8733 0.1577
vt 0.7487 0.1586
vt 0.7805 0.3150
vt 0.7545 0.3160
vt 0.4686 0.1590
vt 0.4419 0.3161
vt 0.7798 0.1584
vt 0.8067 0.3157
vt 0.1887 0.1572
vt 0.1558 0.3131
vt 0.9999 0.1557
vt 0.3067 0.3154
vt 0.2805 0.3143
vt 0.6555 0.3155
vt 0.6294 0.3163
vt 0.2509 0.1577
vt 0.2198 0.1575
vt 0.1921 0.3143
vt 0.3753 0.1586
vt 0.5930 0.1591
vt 0.6191 0.3164
vt 0.5929 0.3156
vt 0.3794 0.3158
vt 0.3430 0.3148
vt 0.9411 0.3155
vt 0.9359 0.1569
vt 0.5304 0.3156
vt 0.9055 0.3144
vt 0.9046 0.1573
vt 0.2545 0.3149
vt 0.8421 0.1579
vt 0.2442 0.3149
vt 0.2181 0.3138
vt 0.4997 0.1590
vt 0.4679 0.3154
vt 0.0324 0.1556
vt 0.8794 0.3154
vt 0.6817 0.3163
vt 0.8110 0.1582
vt 0.0332 0.3120
vt 0.5044 0.3163
vt 0.8431 0.3147
vt 0.5669 0.3164
vt 0.0001 0.1554
vt 0.0073 0.3129
vt 0.8170 0.3156
vt 0.3090 0.0051
vt 0.3453 0.0062
vt 0.4329 0.0058
vt 0.4692 0.0067
vt 0.5053 0.0058
vt 0.6188 0.0059
vt 0.6808 0.0057
vt 0.7427 0.0054
vt 0.7790 0.0060
vt 0.8666 0.0045
vt 0.9282 0.0037
vt 0.9883 0.0022
vt 0.0365 0.0018
vt 0.1235 0.0031
vt 0.1853 0.0040
vt 0.4529 0.5605
vt 0.4294 0.5702
vt 0.4044 0.5752
vt 0.3790 0.5752
vt 0.3540 0.5702
vt 0.3305 0.5605
vt 0.3093 0.5463
vt 0.2913 0.5283
vt 0.2771 0.5072
vt 0.2674 0.4836
vt 0.2624 0.4587
vt 0.2624 0.4332
vt 0.2674 0.4082
vt 0.2771 0.3847
vt 0.2913 0.3635
vt 0.3305 0.3314
vt 0.3540 0.3216
vt 0.3790 0.3167
vt 0.4044 0.3167
vt 0.4294 0.3216
vt 0.4529 0.3314
vt 0.4741 0.3455
vt 0.5062 0.3847
vt 0.5209 0.4587
vt 0.5160 0.4082
vt 0.5209 0.4332
vt 0.5160 0.4836
vt 0.5062 0.5072
vt 0.4921 0.5283
vt 0.2215 0.0053
vt 0.0476 0.3459
vt 0.0691 0.3316
vt 0.0929 0.3217
vt 0.1183 0.3167
vt 0.1441 0.3167
vt 0.1694 0.3217
vt 0.1932 0.3316
vt 0.2147 0.3459
vt 0.2330 0.3642
vt 0.2473 0.3856
vt 0.2572 0.4095
vt 0.2622 0.4348
vt 0.2622 0.4606
vt 0.2572 0.4860
vt 0.2473 0.5098
vt 0.2147 0.5495
vt 0.1932 0.5639
vt 0.1694 0.5737
vt 0.1441 0.5788
vt 0.1183 0.5788
vt 0.0929 0.5737
vt 0.0691 0.5639
vt 0.0294 0.5313
vt 0.0150 0.5098
vt 0.0051 0.4860
vt 0.0001 0.4606
vt 0.0001 0.4348
vt 0.0051 0.4095
vt 0.0150 0.3856
vt 0.4316 0.3161
vt 0.1198 0.3135
vt 0.1819 0.3142
vt 0.3691 0.3158
vt 0.5566 0.3165
vt 0.9318 0.3151
vt 0.4941 0.3164
vt 0.0593 0.3126
vt 0.8693 0.3154
vn 0.0000 0.7904 -0.6125
vn 0.1908 0.2077 -0.9594
vn 0.0000 0.2077 -0.9782
vn 0.1195 0.7904 -0.6008
vn 0.3743 0.2077 -0.9037
vn 0.2344 0.7904 -0.5659
vn 0.5434 0.2077 -0.8133
vn 0.4331 0.7904 -0.4331
vn 0.6917 0.2077 -0.6917
vn 0.8133 0.2077 -0.5434
vn 0.5093 0.7904 -0.3403
vn 0.9037 0.2077 -0.3743
vn 0.5659 0.7904 -0.2344
vn 0.9594 0.2077 -0.1908
vn 0.6125 0.7904 0.0000
vn 0.9782 0.2077 0.0000
vn 0.6008 0.7904 0.1195
vn 0.9594 0.2077 0.1908
vn 0.5659 0.7904 0.2344
vn 0.9037 0.2077 0.3743
vn 0.8133 0.2077 0.5434
vn 0.5093 0.7904 0.3403
vn 0.6917 0.2077 0.6917
vn 0.4331 0.7904 0.4331
vn 0.5434 0.2077 0.8133
vn 0.3403 0.7904 0.5093
vn 0.3743 0.2077 0.9037
vn 0.2344 0.7904 0.5659
vn 0.1908 0.2077 0.9594
vn 0.1195 0.7904 0.6008
vn 0.0000 0.2077 0.9782
vn 0.0000 0.7904 0.6125
vn -0.1908 0.2077 0.9594
vn -0.2344 0.7904 0.5659
vn -0.3743 0.2077 0.9037
vn -0.5434 0.2077 0.8133
vn -0.3403 0.7904 0.5093
vn -0.6917 0.2077 0.6917
vn -0.4331 0.7904 0.4331
vn -0.8133 0.2077 0.5434
vn -0.5093 0.7904 0.3403
vn -0.9037 0.2077 0.3743
vn -0.5659 0.7904 0.2344
vn -0.9594 0.2077 0.1908
vn -0.6008 0.7904 0.1195
vn -0.9782 0.2077 0.0000
vn -0.6125 0.7904 0.0000
vn -0.9594 0.2077 -0.1908
vn -0.5659 0.7904 -0.2344
vn -0.9037 0.2077 -0.3743
vn -0.8133 0.2077 -0.5434
vn -0.5093 0.7904 -0.3403
vn -0.6917 0.2077 -0.6917
vn -0.4331 0.7904 -0.4331
vn -0.5434 0.2077 -0.8133
vn -0.3403 0.7904 -0.5093
vn -0.3743 0.2077 -0.9037
vn -0.1908 0.2077 -0.9594
vn -0.2344 0.7904 -0.5659
vn 0.1306 -0.7427 0.6567
vn -0.6567 -0.7427 0.1306
vn -0.1306 -0.7427 -0.6567
vn 0.3825 -0.0256 0.9236
vn 0.2562 -0.7427 0.6186
vn 0.7069 -0.0256 0.7069
vn 0.5554 -0.0256 -0.8312
vn 0.2562 -0.7427 -0.6186
vn 0.3825 -0.0256 -0.9236
vn 0.1950 -0.0256 0.9804
vn 0.0000 -0.7427 0.6695
vn 0.9236 -0.0256 0.3825
vn 0.9804 -0.0256 0.1950
vn 0.9236 -0.0256 -0.3825
vn 0.5567 -0.7427 -0.3720
vn 0.8312 -0.0256 -0.5554
vn -0.8312 -0.0256 -0.5554
vn -0.6186 -0.7427 -0.2562
vn -0.9236 -0.0256 -0.3825
vn -0.7069 -0.0256 -0.7069
vn -0.5567 -0.7427 -0.3720
vn 0.5554 -0.0256 0.8312
vn -0.9804 -0.0256 0.1950
vn -0.6695 -0.7427 0.0000
vn 0.1950 -0.0256 -0.9804
vn -0.5554 -0.0256 -0.8312
vn -0.4734 -0.7427 -0.4734
vn -0.7069 -0.0256 0.7069
vn 0.0000 -0.0256 0.9997
vn -0.1306 -0.7427 0.6567
vn 0.9804 -0.0256 -0.1950
vn 0.6186 -0.7427 -0.2562
vn -0.1950 -0.0256 0.9804
vn -0.2562 -0.7427 0.6186
vn -0.3825 -0.0256 -0.9236
vn -0.3720 -0.7427 -0.5567
vn -0.9997 -0.0256 0.0000
vn 0.1306 -0.7427 -0.6567
vn 0.3720 -0.7427 0.5567
vn 0.4734 -0.7427 0.4734
vn 0.0000 -0.0256 -0.9997
vn -0.1950 -0.0256 -0.9804
vn -0.2562 -0.7427 -0.6186
vn 0.7069 -0.0256 -0.7069
vn 0.8312 -0.0256 0.5554
vn 0.5567 -0.7427 0.3720
vn 0.4734 -0.7427 -0.4734
vn 0.3720 -0.7427 -0.5567
vn -0.6186 -0.7427 0.2562
vn -0.9236 -0.0256 0.3825
vn 0.6567 -0.7427 0.1306
vn -0.5567 -0.7427 0.3720
vn -0.8312 -0.0256 0.5554
vn 0.0000 -0.7427 -0.6695
vn -0.5554 -0.0256 0.8312
vn 0.9997 -0.0256 0.0000
vn 0.6567 -0.7427 -0.1306
vn -0.9804 -0.0256 -0.1950
vn -0.4734 -0.7427 0.4734
vn -0.3825 -0.0256 0.9236
vn -0.6567 -0.7427 -0.1306
vn 0.6695 -0.7427 0.0000
vn -0.3720 -0.7427 0.5567
vn 0.6186 -0.7427 0.2562
vn 0.3403 0.7904 -0.5093
vn 0.6008 0.7904 -0.1195
vn -0.1195 0.7904 0.6008
vn -0.6008 0.7904 -0.1195
vn -0.1195 0.7904 -0.6008
usemtl Material
s 1
f 2/1/1 67/2/2 66/3/3
f 4/4/4 69/5/5 67/2/2
f 6/6/6 71/7/7 69/8/5
f 71/7/7 10/9/8 73/10/9
f 10/11/8 75/12/10 73/13/9
f 12/14/11 77/15/12 75/12/10
f 14/16/13 79/17/14 77/18/12
f 79/17/14 18/19/15 81/20/16
f 81/21/16 20/22/17 83/23/18
f 83/23/18 22/24/19 85/25/20
f 22/26/19 87/27/21 85/28/20
f 24/29/22 89/30/23 87/27/21
f 26/31/24 91/32/25 89/33/23
f 28/34/26 93/35/27 91/32/25
f 30/36/28 95/37/29 93/38/27
f 32/39/30 97/40/31 95/37/29
f 34/41/32 99/42/33 97/43/31
f 99/42/33 38/44/34 101/45/35
f 38/46/34 103/47/36 101/48/35
f 40/49/37 105/50/38 103/47/36
f 42/51/39 107/52/40 105/53/38
f 44/54/41 109/55/42 107/52/40
f 46/56/43 111/57/44 109/58/42
f 48/59/45 113/60/46 111/57/44
f 50/61/47 115/62/48 113/63/46
f 115/62/48 54/64/49 117/65/50
f 54/66/49 119/67/51 117/68/50
f 56/69/52 121/70/53 119/67/51
f 58/71/54 123/72/55 121/73/53
f 60/74/56 125/75/57 123/72/55
f 38/76/34 22/77/19 6/78/6
f 127/79/58 2/80/1 66/81/3
f 62/82/59 127/79/58 125/83/57
f 31/84/60 47/85/61 63/86/62
f 94/87/63 31/88/60 29/89/64
f 91/32/25 90/90/65 89/33/23
f 72/91/66 5/92/67 70/93/68
f 71/7/7 70/93/68 69/8/5
f 96/94/69 33/95/70 31/88/60
f 83/23/18 86/96/71 84/97/72
f 78/98/73 11/99/74 76/100/75
f 120/101/76 53/102/77 118/103/78
f 87/27/21 86/96/71 85/28/20
f 122/104/79 55/105/80 120/101/76
f 91/32/25 94/87/63 92/106/81
f 112/107/82 49/108/83 47/109/61
f 67/2/2 70/93/68 68/110/84
f 124/111/85 57/112/86 122/104/79
f 107/52/40 106/113/87 105/53/38
f 79/17/14 78/98/73 77/18/12
f 98/114/88 35/115/89 33/116/70
f 77/15/12 76/100/75 75/12/10
f 80/117/90 13/118/91 78/98/73
f 81/20/16 80/117/90 79/17/14
f 100/119/92 37/120/93 35/115/89
f 99/42/33 98/114/88 97/43/31
f 126/121/94 59/122/95 124/111/85
f 111/57/44 114/123/96 112/107/82
f 68/110/84 5/124/67 3/125/97
f 101/45/35 100/119/92 99/42/33
f 90/90/65 27/126/98 25/127/99
f 66/3/3 68/110/84 65/128/100
f 128/129/101 61/130/102 126/121/94
f 75/12/10 74/131/103 73/13/9
f 88/132/104 25/133/99 23/134/105
f 76/100/75 9/135/106 74/131/103
f 95/37/29 94/87/63 93/38/27
f 74/131/103 7/136/107 72/91/66
f 121/70/53 120/101/76 119/67/51
f 112/107/82 45/137/108 110/138/109
f 117/68/50 120/101/76 118/103/78
f 86/96/71 19/139/110 84/97/72
f 73/10/9 72/91/66 71/7/7
f 110/138/109 43/140/111 108/141/112
f 109/55/42 108/141/112 107/52/40
f 65/128/100 3/125/97 1/142/113
f 105/50/38 104/143/114 103/47/36
f 128/129/101 1/144/113 63/145/62
f 97/40/31 96/94/69 95/37/29
f 82/146/115 15/147/116 80/117/90
f 117/65/50 116/148/117 115/62/48
f 108/141/112 41/149/118 106/113/87
f 89/30/23 88/132/104 87/27/21
f 92/106/81 29/150/64 27/126/98
f 103/47/36 102/151/119 101/48/35
f 118/103/78 51/152/120 116/148/117
f 121/73/53 124/111/85 122/104/79
f 84/97/72 17/153/121 82/146/115
f 111/57/44 110/138/109 109/58/42
f 106/113/87 39/154/122 104/143/114
f 66/81/3 128/129/101 127/79/58
f 88/132/104 21/155/123 86/96/71
f 115/62/48 114/156/96 113/63/46
f 116/148/117 49/157/83 114/156/96
f 127/79/58 126/121/94 125/83/57
f 102/151/119 39/154/122 37/158/93
f 83/23/18 82/146/115 81/21/16
f 123/72/55 126/121/94 124/111/85
f 2/1/1 4/4/4 67/2/2
f 4/4/4 6/159/6 69/5/5
f 6/6/6 8/160/124 71/7/7
f 71/7/7 8/160/124 10/9/8
f 10/11/8 12/14/11 75/12/10
f 12/14/11 14/161/13 77/15/12
f 14/16/13 16/162/125 79/17/14
f 79/17/14 16/162/125 18/19/15
f 81/21/16 18/163/15 20/22/17
f 83/23/18 20/22/17 22/24/19
f 22/26/19 24/29/22 87/27/21
f 24/29/22 26/164/24 89/30/23
f 26/31/24 28/34/26 91/32/25
f 28/34/26 30/165/28 93/35/27
f 30/36/28 32/39/30 95/37/29
f 32/39/30 34/166/32 97/40/31
f 34/41/32 36/167/126 99/42/33
f 99/42/33 36/167/126 38/44/34
f 38/46/34 40/49/37 103/47/36
f 40/49/37 42/168/39 105/50/38
f 42/51/39 44/54/41 107/52/40
f 44/54/41 46/169/43 109/55/42
f 46/56/43 48/59/45 111/57/44
f 48/59/45 50/170/47 113/60/46
f 50/61/47 52/171/127 115/62/48
f 115/62/48 52/171/127 54/64/49
f 54/66/49 56/69/52 119/67/51
f 56/69/52 58/172/54 121/70/53
f 58/71/54 60/74/56 123/72/55
f 60/74/56 62/173/59 125/75/57
f 6/78/6 4/174/4 2/175/1
f 2/175/1 64/176/128 6/78/6
f 62/177/59 60/178/56 58/179/54
f 58/179/54 56/180/52 54/181/49
f 54/181/49 52/182/127 50/183/47
f 50/183/47 48/184/45 54/181/49
f 46/185/43 44/186/41 42/187/39
f 42/187/39 40/188/37 46/185/43
f 38/76/34 36/189/126 34/190/32
f 34/190/32 32/191/30 30/192/28
f 30/192/28 28/193/26 22/77/19
f 26/194/24 24/195/22 22/77/19
f 22/77/19 20/196/17 14/197/13
f 18/198/15 16/199/125 14/197/13
f 14/197/13 12/200/11 10/201/8
f 10/201/8 8/202/124 6/78/6
f 6/78/6 64/176/128 62/177/59
f 62/177/59 58/179/54 6/78/6
f 54/181/49 48/184/45 46/185/43
f 46/185/43 40/188/37 38/76/34
f 38/76/34 34/190/32 22/77/19
f 28/193/26 26/194/24 22/77/19
f 20/196/17 18/198/15 14/197/13
f 14/197/13 10/201/8 6/78/6
f 6/78/6 58/179/54 54/181/49
f 54/181/49 46/185/43 6/78/6
f 34/190/32 30/192/28 22/77/19
f 22/77/19 14/197/13 6/78/6
f 6/78/6 46/185/43 38/76/34
f 127/79/58 64/203/128 2/80/1
f 62/82/59 64/203/128 127/79/58
f 63/86/62 1/204/113 3/205/97
f 3/205/97 5/206/67 63/86/62
f 7/207/107 9/208/106 11/209/74
f 11/209/74 13/210/91 7/207/107
f 15/211/116 17/212/121 19/213/110
f 19/213/110 21/214/123 15/211/116
f 23/215/105 25/216/99 31/84/60
f 27/217/98 29/218/64 31/84/60
f 31/84/60 33/219/70 35/220/89
f 35/220/89 37/221/93 39/222/122
f 39/222/122 41/223/118 43/224/111
f 43/224/111 45/225/108 47/85/61
f 47/85/61 49/226/83 51/227/120
f 51/227/120 53/228/77 55/229/80
f 55/229/80 57/230/86 59/231/95
f 59/231/95 61/232/102 63/86/62
f 63/86/62 5/206/67 7/207/107
f 7/207/107 13/210/91 15/211/116
f 15/211/116 21/214/123 23/215/105
f 25/216/99 27/217/98 31/84/60
f 31/84/60 35/220/89 39/222/122
f 39/222/122 43/224/111 47/85/61
f 47/85/61 51/227/120 63/86/62
f 55/229/80 59/231/95 63/86/62
f 63/86/62 7/207/107 31/84/60
f 15/211/116 23/215/105 31/84/60
f 31/84/60 39/222/122 47/85/61
f 51/227/120 55/229/80 63/86/62
f 7/207/107 15/211/116 31/84/60
f 94/87/63 96/94/69 31/88/60
f 91/32/25 92/106/81 90/90/65
f 72/91/66 7/136/107 5/92/67
f 71/7/7 72/91/66 70/93/68
f 96/94/69 98/114/88 33/95/70
f 83/23/18 85/25/20 86/96/71
f 78/98/73 13/233/91 11/99/74
f 120/101/76 55/105/80 53/102/77
f 87/27/21 88/132/104 86/96/71
f 122/104/79 57/234/86 55/105/80
f 91/32/25 93/35/27 94/87/63
f 112/107/82 114/123/96 49/108/83
f 67/2/2 69/5/5 70/93/68
f 124/111/85 59/122/95 57/112/86
f 107/52/40 108/141/112 106/113/87
f 79/17/14 80/117/90 78/98/73
f 98/114/88 100/119/92 35/115/89
f 77/15/12 78/98/73 76/100/75
f 80/117/90 15/147/116 13/118/91
f 81/20/16 82/146/115 80/117/90
f 100/119/92 102/151/119 37/120/93
f 99/42/33 100/119/92 98/114/88
f 126/121/94 61/235/102 59/122/95
f 111/57/44 113/60/46 114/123/96
f 68/110/84 70/93/68 5/124/67
f 101/45/35 102/151/119 100/119/92
f 90/90/65 92/106/81 27/126/98
f 66/3/3 67/2/2 68/110/84
f 128/129/101 63/145/62 61/130/102
f 75/12/10 76/100/75 74/131/103
f 88/132/104 90/90/65 25/133/99
f 76/100/75 11/99/74 9/135/106
f 95/37/29 96/94/69 94/87/63
f 74/131/103 9/236/106 7/136/107
f 121/70/53 122/104/79 120/101/76
f 112/107/82 47/109/61 45/137/108
f 117/68/50 119/67/51 120/101/76
f 86/96/71 21/237/123 19/139/110
f 73/10/9 74/131/103 72/91/66
f 110/138/109 45/238/108 43/140/111
f 109/55/42 110/138/109 108/141/112
f 65/128/100 68/110/84 3/125/97
f 105/50/38 106/113/87 104/143/114
f 128/129/101 65/128/100 1/144/113
f 97/40/31 98/114/88 96/94/69
f 82/146/115 17/239/121 15/147/116
f 117/65/50 118/103/78 116/148/117
f 108/141/112 43/140/111 41/149/118
f 89/30/23 90/90/65 88/132/104
f 92/106/81 94/87/63 29/150/64
f 103/47/36 104/143/114 102/151/119
f 118/103/78 53/240/77 51/152/120
f 121/73/53 123/72/55 124/111/85
f 84/97/72 19/139/110 17/153/121
f 111/57/44 112/107/82 110/138/109
f 106/113/87 41/241/118 39/154/122
f 66/81/3 65/128/100 128/129/101
f 88/132/104 23/134/105 21/155/123
f 115/62/48 116/148/117 114/156/96
f 116/148/117 51/152/120 49/157/83
f 127/79/58 128/129/101 126/121/94
f 102/151/119 104/143/114 39/154/122
f 83/23/18 84/97/72 82/146/115
f 123/72/55 125/75/57 126/121/94
