# Blender v2.78 (sub 0) OBJ File: 'cutlass.blend'
# www.blender.org
o obj.cutlass.000_Cube
v -0.012332 0.161551 0.009322
v -0.012332 0.161545 -0.009433
v 0.016234 0.161545 -0.009433
v 0.016234 0.161551 0.009322
v -0.012332 0.292692 0.009276
v -0.012332 0.292686 -0.009478
v 0.016234 0.292686 -0.009478
v 0.016234 0.292692 0.009276
v -0.016076 0.292693 0.011734
v -0.016076 0.292685 -0.011937
v 0.019978 0.292685 -0.011937
v 0.019978 0.292693 0.011734
v -0.016076 0.302254 0.011731
v -0.016076 0.302245 -0.011940
v 0.019978 0.302245 -0.011940
v 0.019978 0.302254 0.011731
v -0.009778 0.302252 0.007596
v -0.009778 0.302247 -0.007805
v 0.013681 0.302247 -0.007805
v 0.013681 0.302252 0.007596
v -0.009778 0.312315 0.007593
v -0.009778 0.312310 -0.007809
v 0.013681 0.312310 -0.007809
v 0.013681 0.312315 0.007593
v 0.036381 0.292534 -0.011937
v 0.036381 0.292542 0.011734
v 0.038761 0.297139 -0.011938
v 0.038761 0.297147 0.011733
v 0.056426 0.279202 -0.013578
v 0.056426 0.279211 0.013385
v 0.060371 0.282565 -0.013579
v 0.060371 0.282574 0.013384
v 0.072815 0.253090 -0.018943
v 0.072815 0.253103 0.018768
v 0.077954 0.253778 -0.018943
v 0.077954 0.253791 0.018767
v 0.078170 0.217737 -0.030240
v 0.078170 0.217757 0.030089
v 0.082528 0.214929 -0.030239
v 0.082528 0.214950 0.030090
v 0.070892 0.190032 -0.036622
v 0.070892 0.190057 0.036491
v 0.075250 0.187224 -0.036621
v 0.075250 0.187250 0.036492
v 0.054005 0.166993 -0.036614
v 0.054005 0.167018 0.036499
v 0.054692 0.161854 -0.036612
v 0.054692 0.161879 0.036500
v 0.019933 0.163446 -0.034293
v 0.019933 0.163469 0.034180
v 0.020620 0.158307 -0.034292
v 0.020620 0.158331 0.034182
v -0.016212 0.163145 -0.027867
v -0.016212 0.163164 0.027754
v -0.015525 0.158007 -0.027865
v -0.015525 0.158026 0.027756
v -0.026242 0.155793 0.024396
v -0.026242 0.155776 -0.024504
v -0.030246 0.159086 0.024395
v -0.030246 0.159069 -0.024505
v -0.031958 0.141778 0.019748
v -0.031958 0.141764 -0.019846
v -0.037110 0.142348 0.019748
v -0.037110 0.142335 -0.019846
v -0.035778 0.122476 0.007551
v -0.035778 0.122471 -0.007635
v -0.039580 0.126000 0.007549
v -0.039580 0.125995 -0.007636
v -0.012667 0.159666 0.005736
v -0.012667 0.159662 -0.005846
v 0.019097 0.159662 -0.005846
v 0.019097 0.159666 0.005736
v -0.012667 0.014603 0.005786
v -0.012667 0.014599 -0.005796
v 0.019097 0.014600 -0.001951
v 0.019097 0.014602 0.001941
v -0.018705 -0.140373 0.005840
v -0.018705 -0.140376 -0.005742
v 0.013059 -0.140375 -0.000934
v 0.013059 -0.140374 0.001032
v -0.021673 -0.223396 0.003963
v -0.021673 -0.223399 -0.003808
v 0.007977 -0.223398 -0.000906
v 0.007977 -0.223397 0.001060
v -0.027437 -0.306838 0.003992
v -0.027437 -0.306841 -0.003779
v 0.000323 -0.306840 -0.000877
v 0.000323 -0.306839 0.001089
v -0.036662 -0.394472 0.004022
v -0.036662 -0.394475 -0.003749
v -0.008902 -0.394474 -0.000778
v -0.008902 -0.394473 0.001052
v -0.042329 -0.444126 0.004039
v -0.042329 -0.444129 -0.003732
v -0.018199 -0.454420 -0.000758
v -0.018199 -0.454419 0.001072
v -0.045807 -0.467353 0.004047
v -0.045807 -0.467356 -0.003724
v -0.026446 -0.477647 -0.000750
v -0.026446 -0.477647 0.001080
v -0.047664 -0.478299 0.003561
v -0.047664 -0.478301 -0.003230
v -0.034350 -0.491390 -0.000323
v -0.034350 -0.491389 0.000663
v -0.050164 -0.490975 0.002751
v -0.050164 -0.490977 -0.002410
v -0.040957 -0.500976 -0.000320
v -0.040957 -0.500976 0.000667
v -0.051654 -0.499271 0.002442
v -0.051654 -0.499272 -0.002096
v -0.047556 -0.507847 -0.000318
v -0.047556 -0.507846 0.000669
v -0.053993 -0.510798 0.000335
v -0.053993 -0.510798 0.000018
v -0.051283 -0.510307 -0.000113
v -0.051283 -0.510307 0.000466
vt 0.7942 0.6522
vt 0.8271 0.6480
vt 0.8348 0.6522
vt 0.0926 0.6362
vt 0.0595 0.6140
vt 0.0996 0.6317
vt 0.8348 0.9361
vt 0.7942 0.9361
vt 0.7324 0.6522
vt 0.9373 0.6522
vt 0.8967 0.9361
vt 0.8967 0.6522
vt 0.5062 0.8369
vt 0.4096 0.8626
vt 0.4096 0.8369
vt 0.4962 0.9582
vt 0.4096 0.9517
vt 0.5062 0.9517
vt 0.4962 0.8304
vt 0.4196 0.8304
vt 0.5419 0.9194
vt 0.5319 0.8626
vt 0.5419 0.8692
vt 0.5062 0.8626
vt 0.4265 0.8737
vt 0.5319 0.9260
vt 0.1143 0.6420
vt 0.1180 0.6011
vt 0.1287 0.6043
vt 0.5062 0.9260
vt 0.8196 0.4479
vt 0.8482 0.4918
vt 0.8196 0.4918
vt 0.4894 0.9149
vt 0.4894 0.8737
vt 0.4265 0.9149
vt 0.4096 0.9260
vt 0.9150 0.4479
vt 0.9150 0.4918
vt 0.9150 0.5205
vt 0.9150 0.4193
vt 0.8482 0.4479
vt 0.8482 0.4193
vt 0.9437 0.4479
vt 0.0704 0.5863
vt 0.1354 0.5472
vt 0.1597 0.6616
vt 0.1847 0.6305
vt 0.1796 0.6644
vt 0.1759 0.6242
vt 0.1468 0.5496
vt 0.1526 0.4737
vt 0.1644 0.4735
vt 0.2025 0.5732
vt 0.2108 0.5810
vt 0.1865 0.6283
vt 0.2454 0.5049
vt 0.3078 0.4357
vt 0.2559 0.5123
vt 0.2523 0.5150
vt 0.2138 0.5781
vt 0.0661 0.4769
vt 0.1789 0.3869
vt 0.1753 0.3323
vt 0.1851 0.3323
vt 0.0350 0.3978
vt 0.1688 0.3907
vt 0.3042 0.4235
vt 0.3361 0.3586
vt 0.1921 0.2678
vt 0.3458 0.2748
vt 0.3454 0.3674
vt 0.3134 0.4323
vt 0.3593 0.2725
vt 0.3331 0.1849
vt 0.3467 0.1826
vt 0.3544 0.2850
vt 0.3495 0.3587
vt 0.0185 0.2720
vt 0.1827 0.2723
vt 0.1742 0.2053
vt 0.1771 0.1365
vt 0.1834 0.2050
vt 0.1675 0.1373
vt 0.0722 0.0756
vt 0.1653 0.1083
vt 0.2967 0.1006
vt 0.3443 0.1783
vt 0.3079 0.0941
vt 0.0542 0.1085
vt 0.3071 0.0945
vt 0.2815 0.0787
vt 0.2853 0.0672
vt 0.1758 0.1109
vt 0.2691 0.0428
vt 0.2920 0.0752
vt 0.1716 0.0747
vt 0.1805 0.0772
vt 0.2621 0.0513
vt 0.2178 0.0172
vt 0.0999 0.0389
vt 0.1758 0.0348
vt 0.2290 0.0118
vt 0.2692 0.0409
vt 0.1862 0.0310
vt 0.0605 0.9187
vt 0.2749 0.7377
vt 0.0761 0.9345
vt 0.9045 0.6447
vt 0.9295 0.6447
vt 0.7950 0.6434
vt 0.8341 0.6434
vt 0.9029 0.6434
vt 0.3228 0.7876
vt 0.5286 0.5723
vt 0.5322 0.5760
vt 0.1188 0.9777
vt 0.3229 0.7875
vt 0.1348 0.9931
vt 0.3175 0.7823
vt 0.0177 0.8757
vt 0.2591 0.7218
vt 0.4710 0.5120
vt 0.5450 0.3624
vt 0.5872 0.4018
vt 0.4268 0.4696
vt 0.4865 0.5277
vt 0.6396 0.4576
vt 0.7477 0.3389
vt 0.7504 0.3415
vt 0.5978 0.4125
vt 0.5313 0.5749
vt 0.6368 0.4550
vt 0.7134 0.2979
vt 0.8665 0.2203
vt 0.6622 0.2525
vt 0.7028 0.2873
vt 0.7818 0.1348
vt 0.8912 0.1006
vt 0.8231 0.1681
vt 0.8336 0.1787
vt 0.8690 0.2227
vt 0.9456 0.1361
vt 0.9742 0.0988
vt 0.9486 0.1380
vt 0.9018 0.1111
vt 0.9482 0.1385
vt 0.8691 0.2226
vt 0.9061 0.0311
vt 0.9385 0.0553
vt 0.9231 0.0693
vt 0.9333 0.0797
vt 0.9713 0.0969
vt 0.8667 0.0564
vt 0.9341 0.0198
vt 0.9568 0.0393
vt 0.9475 0.0643
vt 0.9745 0.0982
vt 0.9828 0.0692
vt 0.9846 0.0698
vt 0.9636 0.0462
vt 0.9911 0.0486
vt 0.9846 0.0697
vt 0.9893 0.0481
vt 0.9929 0.0300
vt 0.9912 0.0482
vt 0.9740 0.0349
vt 0.9910 0.0299
vt 0.9553 0.0136
vt 0.9683 0.0290
vt 0.9820 0.0136
vt 0.9864 0.0165
vt 0.9868 0.0169
vt 0.9907 0.0212
vt 0.9929 0.0295
vt 0.9896 0.0214
vt 0.9906 0.0208
vt 0.1440 0.0179
vt 0.8020 0.6480
vt 0.0609 0.6221
vt 0.7324 0.9361
vt 0.9373 0.9361
vt 0.4196 0.9582
vt 0.8482 0.5205
vt 0.9437 0.4918
vt 0.0763 0.5403
vt 0.0185 0.3332
vt 0.0264 0.1922
vt 0.7262 0.6434
vt 0.2148 0.6788
vt 0.9735 0.0121
vt 0.9873 0.0166
vn -0.6032 -0.4050 -0.6872
vn -0.8656 -0.1764 0.4686
vn -0.6032 -0.4045 0.6874
vn 0.3015 -0.9044 0.3018
vn -0.0032 -0.7063 -0.7079
vn -0.0032 -0.7058 0.7084
vn -0.3015 -0.9044 0.3018
vn -0.3015 -0.9046 -0.3012
vn 0.5665 -0.3698 -0.7364
vn 0.5665 -0.3693 0.7367
vn -0.5773 -0.5775 -0.5771
vn 0.0972 0.7279 -0.6787
vn -0.5773 -0.5771 0.5775
vn 0.3015 -0.9046 -0.3012
vn -0.5773 0.5771 -0.5775
vn 0.3015 0.9044 -0.3018
vn 0.0972 0.7284 0.6782
vn -0.2129 -0.5987 0.7721
vn 0.2927 0.6891 0.6629
vn -0.5773 0.5775 0.5771
vn 0.5773 0.5775 0.5771
vn 0.3015 0.9046 0.3012
vn -0.3015 0.9046 0.3012
vn -0.3015 0.9044 -0.3018
vn 0.5773 0.5771 -0.5775
vn -0.2129 -0.5992 -0.7717
vn -0.5432 -0.3915 0.7427
vn 0.2927 0.6887 -0.6634
vn 0.5057 0.5755 0.6427
vn -0.6754 -0.0482 0.7358
vn 0.6949 0.3769 0.6124
vn 0.5057 0.5751 -0.6431
vn -0.5432 -0.3920 -0.7425
vn 0.6949 0.3764 -0.6126
vn -0.5650 0.2730 -0.7786
vn -0.6754 -0.0488 -0.7358
vn 0.7843 0.0750 0.6158
vn -0.5220 0.3643 0.7712
vn 0.6787 -0.2753 0.6809
vn -0.5650 0.2736 0.7784
vn 0.7843 0.0746 -0.6159
vn 0.6787 -0.2758 -0.6807
vn 0.3478 -0.6823 0.6430
vn 0.3478 -0.6828 -0.6425
vn -0.5220 0.3638 -0.7714
vn -0.3128 0.4923 -0.8123
vn -0.0415 -0.7126 -0.7003
vn -0.1317 0.6736 -0.7272
vn -0.3127 0.4928 0.8119
vn -0.1317 0.6741 0.7267
vn -0.1110 -0.6870 0.7181
vn -0.0415 -0.7121 0.7008
vn -0.2456 0.6970 0.6737
vn -0.5987 0.5023 -0.6239
vn -0.5987 0.5027 0.6236
vn -0.1110 -0.6875 -0.7176
vn -0.2456 0.6965 -0.6742
vn 0.1692 -0.6108 -0.7735
vn 0.1692 -0.6103 0.7739
vn -0.7349 -0.1267 -0.6662
vn -0.7349 -0.1263 0.6663
vn 0.5522 -0.5130 0.6571
vn 0.5522 -0.5135 -0.6568
vn 0.2490 -0.8871 -0.3886
vn -0.8556 -0.3750 0.3566
vn -0.8556 -0.3753 -0.3563
vn 0.2490 -0.8868 0.3892
vn -0.8656 -0.1767 -0.4684
vn -0.6603 0.0024 0.7509
vn 0.7794 0.3077 0.5456
vn 0.7794 0.3073 -0.5459
vn 0.7538 -0.0255 -0.6565
vn 0.7592 -0.0380 0.6497
vn 0.7592 -0.0385 -0.6497
vn 0.7538 -0.0251 0.6566
vn -0.6603 0.0019 -0.7509
vn -0.6515 0.0210 -0.7583
vn 0.7435 -0.0624 -0.6658
vn -0.6691 0.0257 -0.7427
vn -0.6515 0.0215 0.7583
vn 0.7405 -0.0722 0.6681
vn 0.7405 -0.0727 -0.6681
vn -0.6691 0.0262 0.7426
vn 0.7435 -0.0620 0.6659
vn -0.6619 0.0576 0.7474
vn 0.7428 -0.0954 0.6626
vn -0.6619 0.0571 -0.7474
vn 0.7428 -0.0959 -0.6625
vn -0.6551 0.0848 -0.7507
vn -0.6630 0.0725 -0.7450
vn -0.6630 0.0730 0.7450
vn 0.7424 -0.1842 0.6441
vn 0.6948 -0.3264 -0.6408
vn 0.7424 -0.1847 -0.6439
vn -0.6551 0.0854 0.7507
vn -0.6495 0.0739 -0.7567
vn -0.6483 0.0841 -0.7567
vn -0.6483 0.0847 0.7566
vn 0.6948 -0.3259 0.6410
vn 0.6466 -0.4172 -0.6386
vn -0.6543 0.0806 -0.7519
vn -0.6495 0.0744 0.7567
vn 0.6466 -0.4168 0.6389
vn -0.6543 0.0811 0.7518
vn 0.6070 -0.4864 -0.6285
vn 0.6070 -0.4860 0.6287
vn 0.4872 -0.6118 -0.6231
vn -0.6356 0.0551 0.7700
vn 0.4872 -0.6114 0.6236
vn -0.6356 0.0546 -0.7701
vn 0.2691 -0.7485 -0.6061
vn -0.6116 -0.6167 -0.4956
vn -0.6115 -0.6164 0.4960
vn 0.2691 -0.7481 0.6065
s 1
f 2/1/1 69/2/2 1/3/3
f 8/4/4 11/5/5 12/6/6
f 5/7/7 2/1/1 1/3/3
f 6/8/8 3/9/9 2/1/1
f 3/10/9 8/11/4 4/12/10
f 1/3/3 8/11/4 5/7/7
f 10/13/11 15/14/12 11/15/5
f 5/16/7 12/17/6 9/18/13
f 6/19/8 11/15/5 7/20/14
f 5/21/7 10/22/11 6/23/8
f 14/24/15 19/25/16 15/14/12
f 9/26/13 14/24/15 10/22/11
f 16/27/17 26/28/18 28/29/19
f 12/17/6 13/30/20 9/18/13
f 19/31/16 24/32/21 20/33/22
f 14/24/15 17/34/23 18/35/24
f 15/14/12 20/36/22 16/37/17
f 13/30/20 20/36/22 17/34/23
f 24/32/21 22/38/15 21/39/20
f 17/40/23 24/32/21 21/39/20
f 18/41/24 23/42/25 19/43/16
f 18/44/24 21/39/20 22/38/15
f 25/45/26 30/46/27 26/28/18
f 15/47/12 25/48/26 11/49/5
f 15/47/12 28/29/19 27/50/28
f 12/6/6 25/45/26 26/28/18
f 32/51/29 34/52/30 36/53/31
f 28/29/19 30/46/27 32/51/29
f 28/29/19 31/54/32 27/50/28
f 27/50/28 29/55/33 25/56/26
f 35/57/34 37/58/35 33/59/36
f 32/51/29 35/57/34 31/54/32
f 31/54/32 33/60/36 29/61/33
f 30/46/27 33/62/36 34/52/30
f 40/63/37 42/64/38 44/65/39
f 34/52/30 37/66/35 38/67/40
f 36/53/31 38/67/40 40/63/37
f 36/53/31 39/68/41 35/57/34
f 43/69/42 48/70/43 47/71/44
f 40/63/37 43/69/42 39/68/41
f 39/68/41 41/72/45 37/73/35
f 37/66/35 42/64/38 38/67/40
f 45/74/46 51/75/47 49/76/48
f 43/69/42 45/77/46 41/78/45
f 42/64/38 45/79/46 46/80/49
f 44/65/39 46/80/49 48/70/43
f 50/81/50 56/82/51 52/83/52
f 45/79/46 50/81/50 46/80/49
f 46/80/49 52/83/52 48/70/43
f 48/70/43 51/75/47 47/71/44
f 54/84/53 60/85/54 59/86/55
f 52/83/52 55/87/56 51/75/47
f 49/88/48 55/87/56 53/89/57
f 50/81/50 53/90/57 54/84/53
f 53/91/57 58/92/58 60/93/54
f 54/84/53 57/94/59 56/82/51
f 56/82/51 58/92/58 55/87/56
f 58/92/58 64/95/60 60/96/54
f 57/94/59 63/97/61 61/98/62
f 58/92/58 61/98/62 62/99/63
f 60/85/54 63/97/61 59/86/55
f 61/98/62 66/100/64 62/99/63
f 64/101/60 67/102/65 63/97/61
f 62/99/63 68/103/66 64/104/60
f 61/98/62 67/102/65 65/105/67
f 70/106/68 73/107/69 69/108/2
f 3/10/9 72/109/70 71/110/71
f 3/9/9 70/111/68 2/1/1
f 4/12/10 69/112/2 72/113/70
f 75/114/72 80/115/73 79/116/74
f 72/117/70 75/118/72 71/119/71
f 72/117/70 73/107/69 76/120/75
f 71/121/71 74/122/76 70/106/68
f 78/123/77 83/124/78 82/125/79
f 73/107/69 80/115/73 76/120/75
f 74/122/76 79/126/74 78/123/77
f 73/107/69 78/123/77 77/127/80
f 83/128/78 88/129/81 87/130/82
f 78/123/77 81/131/83 77/127/80
f 79/132/74 84/133/84 83/128/78
f 77/127/80 84/133/84 80/115/73
f 85/134/85 92/135/86 88/129/81
f 81/131/83 88/129/81 84/133/84
f 82/125/79 87/136/82 86/137/87
f 82/125/79 85/134/85 81/131/83
f 91/138/88 94/139/89 90/140/90
f 86/137/87 91/138/88 90/140/90
f 86/137/87 89/141/91 85/134/85
f 87/130/82 92/135/86 91/142/88
f 96/143/92 99/144/93 95/145/94
f 90/140/90 93/146/95 89/141/91
f 92/135/86 95/147/94 91/148/88
f 92/135/86 93/146/95 96/143/92
f 99/149/93 102/150/96 98/151/97
f 96/143/92 97/152/98 100/153/99
f 95/154/94 98/151/97 94/139/89
f 94/139/89 97/152/98 93/146/95
f 103/155/100 106/156/101 102/150/96
f 97/152/98 102/150/96 101/157/102
f 99/158/93 104/159/103 103/160/100
f 100/153/99 101/157/102 104/159/103
f 101/157/102 106/156/101 105/161/104
f 104/159/103 107/162/105 103/163/100
f 104/159/103 105/161/104 108/164/106
f 108/164/106 111/165/107 107/166/105
f 108/164/106 109/167/108 112/168/109
f 107/169/105 110/170/110 106/156/101
f 106/156/101 109/167/108 105/161/104
f 110/170/110 115/171/111 114/172/112
f 109/167/108 114/172/112 113/173/113
f 112/168/109 115/174/111 111/175/107
f 109/167/108 116/176/114 112/168/109
f 113/173/113 115/177/111 116/176/114
f 68/178/66 65/105/67 67/102/65
f 2/1/1 70/179/68 69/2/2
f 8/4/4 7/180/14 11/5/5
f 5/7/7 6/8/8 2/1/1
f 6/8/8 7/181/14 3/9/9
f 3/10/9 7/182/14 8/11/4
f 1/3/3 4/12/10 8/11/4
f 10/13/11 14/24/15 15/14/12
f 5/16/7 8/183/4 12/17/6
f 6/19/8 10/13/11 11/15/5
f 5/21/7 9/26/13 10/22/11
f 14/24/15 18/35/24 19/25/16
f 9/26/13 13/30/20 14/24/15
f 16/27/17 12/6/6 26/28/18
f 12/17/6 16/37/17 13/30/20
f 19/31/16 23/42/25 24/32/21
f 14/24/15 13/30/20 17/34/23
f 15/14/12 19/25/16 20/36/22
f 13/30/20 16/37/17 20/36/22
f 24/32/21 23/42/25 22/38/15
f 17/40/23 20/184/22 24/32/21
f 18/41/24 22/38/15 23/42/25
f 18/44/24 17/185/23 21/39/20
f 25/45/26 29/186/33 30/46/27
f 15/47/12 27/50/28 25/48/26
f 15/47/12 16/27/17 28/29/19
f 12/6/6 11/5/5 25/45/26
f 32/51/29 30/46/27 34/52/30
f 28/29/19 26/28/18 30/46/27
f 28/29/19 32/51/29 31/54/32
f 27/50/28 31/54/32 29/55/33
f 35/57/34 39/68/41 37/58/35
f 32/51/29 36/53/31 35/57/34
f 31/54/32 35/57/34 33/60/36
f 30/46/27 29/186/33 33/62/36
f 40/63/37 38/67/40 42/64/38
f 34/52/30 33/62/36 37/66/35
f 36/53/31 34/52/30 38/67/40
f 36/53/31 40/63/37 39/68/41
f 43/69/42 44/65/39 48/70/43
f 40/63/37 44/65/39 43/69/42
f 39/68/41 43/69/42 41/72/45
f 37/66/35 41/187/45 42/64/38
f 45/74/46 47/71/44 51/75/47
f 43/69/42 47/71/44 45/77/46
f 42/64/38 41/187/45 45/79/46
f 44/65/39 42/64/38 46/80/49
f 50/81/50 54/84/53 56/82/51
f 45/79/46 49/188/48 50/81/50
f 46/80/49 50/81/50 52/83/52
f 48/70/43 52/83/52 51/75/47
f 54/84/53 53/90/57 60/85/54
f 52/83/52 56/82/51 55/87/56
f 49/88/48 51/75/47 55/87/56
f 50/81/50 49/188/48 53/90/57
f 53/91/57 55/87/56 58/92/58
f 54/84/53 59/86/55 57/94/59
f 56/82/51 57/94/59 58/92/58
f 58/92/58 62/99/63 64/95/60
f 57/94/59 59/86/55 63/97/61
f 58/92/58 57/94/59 61/98/62
f 60/85/54 64/101/60 63/97/61
f 61/98/62 65/105/67 66/100/64
f 64/101/60 68/178/66 67/102/65
f 62/99/63 66/100/64 68/103/66
f 61/98/62 63/97/61 67/102/65
f 70/106/68 74/122/76 73/107/69
f 3/10/9 4/12/10 72/109/70
f 3/9/9 71/189/71 70/111/68
f 4/12/10 1/3/3 69/112/2
f 75/114/72 76/120/75 80/115/73
f 72/117/70 76/120/75 75/118/72
f 72/117/70 69/108/2 73/107/69
f 71/121/71 75/190/72 74/122/76
f 78/123/77 79/126/74 83/124/78
f 73/107/69 77/127/80 80/115/73
f 74/122/76 75/190/72 79/126/74
f 73/107/69 74/122/76 78/123/77
f 83/128/78 84/133/84 88/129/81
f 78/123/77 82/125/79 81/131/83
f 79/132/74 80/115/73 84/133/84
f 77/127/80 81/131/83 84/133/84
f 85/134/85 89/141/91 92/135/86
f 81/131/83 85/134/85 88/129/81
f 82/125/79 83/124/78 87/136/82
f 82/125/79 86/137/87 85/134/85
f 91/138/88 95/154/94 94/139/89
f 86/137/87 87/136/82 91/138/88
f 86/137/87 90/140/90 89/141/91
f 87/130/82 88/129/81 92/135/86
f 96/143/92 100/153/99 99/144/93
f 90/140/90 94/139/89 93/146/95
f 92/135/86 96/143/92 95/147/94
f 92/135/86 89/141/91 93/146/95
f 99/149/93 103/155/100 102/150/96
f 96/143/92 93/146/95 97/152/98
f 95/154/94 99/149/93 98/151/97
f 94/139/89 98/151/97 97/152/98
f 103/155/100 107/169/105 106/156/101
f 97/152/98 98/151/97 102/150/96
f 99/158/93 100/153/99 104/159/103
f 100/153/99 97/152/98 101/157/102
f 101/157/102 102/150/96 106/156/101
f 104/159/103 108/164/106 107/162/105
f 104/159/103 101/157/102 105/161/104
f 108/164/106 112/168/109 111/165/107
f 108/164/106 105/161/104 109/167/108
f 107/169/105 111/191/107 110/170/110
f 106/156/101 110/170/110 109/167/108
f 110/170/110 111/191/107 115/171/111
f 109/167/108 110/170/110 114/172/112
f 112/168/109 116/176/114 115/174/111
f 109/167/108 113/173/113 116/176/114
f 113/173/113 114/192/112 115/177/111
f 68/178/66 66/100/64 65/105/67
