# Blender v2.78 (sub 0) OBJ File: 'dolphin.blend'
# www.blender.org
o obj.dolphin.000_Cylinder.001
v -0.117492 0.030874 1.028573
v -0.135613 -0.222353 -0.813627
v -0.086617 -0.466574 1.018685
v -0.280462 0.041659 -0.808099
v -0.165614 -0.149394 1.024680
v -0.150333 0.357404 -0.536803
v -0.202524 0.432951 -0.227075
v -0.196987 0.430410 0.144636
v -0.151758 0.297588 0.614505
v -0.142532 -0.359378 0.602049
v -0.171677 -0.337161 0.270362
v -0.158740 -0.309938 -0.241464
v -0.426195 -0.576142 -0.358959
v -0.254193 0.013674 0.609602
v -0.310922 0.091888 0.279087
v -0.323852 0.119112 -0.232739
v -0.304440 0.089983 -0.541477
v -0.002034 -0.421867 0.268832
v -0.124201 0.299116 -0.804510
v -0.120129 0.174802 -1.142276
v -0.129066 -0.211397 -0.984433
v -0.245485 -0.015626 -1.051117
v -0.094798 -0.001171 -1.262388
v -0.153434 -0.166029 -1.157536
v -0.165658 -0.068199 -1.200153
v -0.092617 -0.120204 -1.567801
v -0.045301 -0.215620 -1.531478
v -0.098473 -0.172196 -1.522742
v -0.042640 -0.386914 1.446771
v -0.046822 -0.578031 1.443430
v -0.099909 -0.481271 1.445456
v -0.308010 -0.710625 1.733829
v -0.620844 -0.709424 1.885224
v -0.026255 0.504972 0.273754
v -0.037123 0.520077 0.106500
v -0.175826 0.368268 0.439028
v -0.011497 0.723174 0.268792
v -0.228712 -0.039438 -1.043006
v -0.221345 -0.037012 -1.111744
v -0.220421 0.018747 -1.067572
v -0.251543 -0.001992 -0.993278
v -0.227440 -0.239574 -0.547809
v -0.108293 -0.309972 -0.549165
v -0.233382 -0.403259 -0.350096
v -0.208522 -0.264385 -0.439791
v -0.110331 -0.309962 -0.457487
v -0.134569 0.163794 0.822217
v 0.117492 0.030874 1.028573
v 0.086617 -0.466574 1.018685
v 0.280462 0.041659 -0.808099
v 0.165614 -0.149394 1.024680
v 0.150333 0.357404 -0.536803
v 0.202524 0.432951 -0.227075
v 0.196987 0.430410 0.144636
v 0.151758 0.297588 0.614505
v 0.142532 -0.359378 0.602049
v 0.171677 -0.337161 0.270362
v 0.158740 -0.309938 -0.241464
v 0.426195 -0.576142 -0.358959
v 0.254193 0.013674 0.609602
v 0.310922 0.091888 0.279087
v 0.323852 0.119112 -0.232739
v 0.304440 0.089983 -0.541477
v 0.000000 0.321539 -0.805479
v 0.000000 0.121142 1.027521
v 0.000000 0.415845 -0.538066
v 0.000000 0.519765 -0.222779
v 0.000000 0.821402 0.404280
v 0.000000 0.355819 0.613181
v 0.000000 -0.286655 -0.814596
v 0.000000 -0.531153 1.017633
v 0.000000 -0.349957 -0.549938
v 0.000000 -0.394644 -0.242995
v 0.002034 -0.421867 0.268832
v 0.000000 -0.443389 0.600725
v 0.124201 0.299116 -0.804510
v 0.135613 -0.222353 -0.813627
v 0.120129 0.174802 -1.142276
v 0.129066 -0.211397 -0.984433
v 0.245485 -0.015626 -1.051117
v 0.000000 0.197831 -1.142112
v 0.000000 -0.275093 -0.984268
v 0.094798 -0.001171 -1.262388
v 0.153434 -0.166029 -1.157536
v 0.165658 -0.068199 -1.200153
v 0.000000 0.040309 -1.245094
v 0.000000 -0.256047 -1.157431
v 0.092617 -0.120204 -1.567801
v 0.045301 -0.215620 -1.531478
v 0.098473 -0.172196 -1.522742
v 0.000000 -0.126966 -1.609844
v 0.000000 -0.240718 -1.530902
v 0.042640 -0.386914 1.446771
v 0.046822 -0.578031 1.443430
v 0.099909 -0.481271 1.445456
v 0.000000 -0.362415 1.446416
v 0.000000 -0.604563 1.443075
v 0.308010 -0.710625 1.733829
v 0.620844 -0.709424 1.885224
v 0.000000 -0.711826 1.689050
v 0.026255 0.504972 0.273754
v 0.037123 0.520077 0.106500
v 0.000000 0.567541 0.318697
v 0.000000 0.745948 0.152941
v 0.000000 0.463491 0.409622
v 0.175826 0.368268 0.439028
v 0.000000 0.703512 0.332480
v 0.011497 0.723174 0.268792
v 0.228712 -0.039438 -1.043006
v 0.221345 -0.037012 -1.111744
v 0.220421 0.018747 -1.067572
v 0.251543 -0.001992 -0.993278
v 0.227440 -0.239574 -0.547809
v 0.108293 -0.309972 -0.549165
v 0.233382 -0.403259 -0.350096
v 0.208522 -0.264385 -0.439791
v 0.110331 -0.309962 -0.457487
v 0.000000 -0.180442 -1.605234
v 0.134569 0.163794 0.822217
vt 0.3274 0.5799
vt 0.2942 0.7033
vt 0.2787 0.5746
vt 0.1981 0.6892
vt 0.1116 0.6228
vt 0.1665 0.5614
vt 0.5289 0.8335
vt 0.4644 0.8830
vt 0.3415 0.8335
vt 0.4448 0.9010
vt 0.3914 0.9368
vt 0.3913 0.8899
vt 0.3409 0.3296
vt 0.2799 0.4773
vt 0.2871 0.3281
vt 0.3350 0.4817
vt 0.1673 0.2376
vt 0.1014 0.1493
vt 0.1845 0.1606
vt 0.1555 0.3241
vt 0.0789 0.2304
vt 0.0573 0.4236
vt 0.0628 0.3213
vt 0.0674 0.5074
vt 0.1539 0.4656
vt 0.7222 0.6779
vt 0.8006 0.8481
vt 0.7114 0.7590
vt 0.7271 0.8319
vt 0.6831 0.8481
vt 0.7021 0.7903
vt 0.1012 0.6960
vt 0.0353 0.5714
vt 0.0618 0.1351
vt 0.0307 0.2186
vt 0.2721 0.1551
vt 0.3141 0.0955
vt 0.3234 0.1503
vt 0.8187 0.3614
vt 0.8089 0.3703
vt 0.8026 0.3498
vt 0.1446 0.0586
vt 0.1584 0.0003
vt 0.1884 0.0155
vt 0.2680 0.1017
vt 0.3025 0.0409
vt 0.8229 0.3537
vt 0.9574 0.8129
vt 0.9400 0.7042
vt 0.9551 0.7044
vt 0.5819 0.9680
vt 0.6348 0.8786
vt 0.6582 0.8784
vt 0.5537 0.9061
vt 0.5617 0.9412
vt 0.5295 0.8801
vt 0.6293 0.8625
vt 0.2429 0.8306
vt 0.1439 0.6863
vt 0.2756 0.8295
vt 0.3262 0.7070
vt 0.3080 0.8342
vt 0.2291 0.8357
vt 0.6831 0.3612
vt 0.7232 0.4773
vt 0.6831 0.5700
vt 0.8812 0.2337
vt 0.8738 0.1155
vt 0.8950 0.2373
vt 0.6831 0.1155
vt 0.8500 0.2410
vt 0.7150 0.3578
vt 0.7806 0.4075
vt 0.0037 0.4128
vt 0.0003 0.3142
vt 0.0049 0.4640
vt 0.0090 0.5073
vt 0.9880 0.3089
vt 0.9691 0.3232
vt 0.9819 0.2604
vt 0.9236 0.3091
vt 0.9158 0.2755
vt 0.9297 0.3278
vt 0.8958 0.3491
vt 0.1016 0.1484
vt 0.1139 0.0392
vt 0.8334 0.3703
vt 0.7837 0.1230
vt 0.2072 0.0711
vt 0.2130 0.0403
vt 0.2463 0.0501
vt 0.1981 0.1061
vt 0.2089 0.0906
vt 0.1914 0.0833
vt 0.2615 0.2388
vt 0.2696 0.2696
vt 0.3012 0.2643
vt 0.3364 0.2355
vt 0.3011 0.2371
vt 0.2721 0.1562
vt 0.6582 0.8419
vt 0.9466 0.6779
vt 0.3466 0.5739
vt 0.3758 0.6983
vt 0.3436 0.7010
vt 0.5609 0.6241
vt 0.4722 0.6875
vt 0.5081 0.5609
vt 0.3956 0.5702
vt 0.8145 0.4012
vt 0.8960 0.5700
vt 0.7980 0.4808
vt 0.7903 0.5063
vt 0.8235 0.5497
vt 0.7812 0.5700
vt 0.3415 0.3233
vt 0.3976 0.4729
vt 0.3423 0.4755
vt 0.5869 0.1511
vt 0.5182 0.2371
vt 0.5036 0.1596
vt 0.6067 0.2330
vt 0.5270 0.3240
vt 0.6219 0.4268
vt 0.5239 0.4655
vt 0.6089 0.5101
vt 0.8705 0.5706
vt 0.8013 0.6143
vt 0.6831 0.5706
vt 0.7285 0.6305
vt 0.7768 0.6359
vt 0.7322 0.6773
vt 0.3954 0.3236
vt 0.5688 0.6975
vt 0.5265 0.6864
vt 0.6270 0.1383
vt 0.6553 0.2227
vt 0.6198 0.3243
vt 0.3762 0.0902
vt 0.4162 0.1512
vt 0.3651 0.1447
vt 0.7889 0.3682
vt 0.7964 0.3498
vt 0.8020 0.3705
vt 0.5468 0.0591
vt 0.5349 0.0003
vt 0.5782 0.0407
vt 0.3896 0.0361
vt 0.4220 0.0979
vt 0.7812 0.3639
vt 0.8966 0.5273
vt 0.9447 0.4283
vt 0.9461 0.5423
vt 0.2576 0.9824
vt 0.2452 0.8793
vt 0.2869 0.9661
vt 0.3083 0.9372
vt 0.2568 0.8668
vt 0.3409 0.9232
vt 0.4227 0.8273
vt 0.3901 0.8251
vt 0.3575 0.8287
vt 0.4364 0.8329
vt 0.7162 0.2416
vt 0.7951 0.3358
vt 0.6969 0.2673
vt 0.7731 0.0003
vt 0.6963 0.0903
vt 0.6831 0.0849
vt 0.9256 0.1149
vt 0.7168 0.1149
vt 0.7057 0.3491
vt 0.6831 0.2746
vt 0.6758 0.4177
vt 0.6729 0.4689
vt 0.6673 0.5121
vt 0.6389 0.5752
vt 0.5934 0.5612
vt 0.8129 0.8225
vt 0.8317 0.8368
vt 0.8012 0.8627
vt 0.8851 0.7891
vt 0.8773 0.8227
vt 0.8190 0.7740
vt 0.8712 0.8414
vt 0.9051 0.8627
vt 0.5868 0.1503
vt 0.7812 0.3836
vt 0.8406 0.0604
vt 0.4455 0.0471
vt 0.4839 0.0694
vt 0.4815 0.0888
vt 0.4917 0.1047
vt 0.5045 0.0145
vt 0.4993 0.0821
vt 0.4148 0.2657
vt 0.3844 0.2322
vt 0.3835 0.2594
vt 0.3492 0.2294
vt 0.4239 0.2352
vt 0.4161 0.1523
vt 0.2239 0.8697
vt 0.9461 0.4012
vt 0.9303 0.4241
vt 0.0812 0.5589
vt 0.9057 0.8129
vt 0.6390 0.8335
vt 0.3240 0.8357
vt 0.7283 0.3498
vt 0.9997 0.3491
vt 0.9778 0.1643
vt 0.6825 0.3193
vt 0.2595 0.8363
vt 0.3415 0.8297
vt 0.8952 0.3491
vt 0.8231 0.6779
vt 0.4791 0.0385
vt 0.2386 0.8363
vn 0.0000 -0.9924 -0.1227
vn -0.8208 -0.5652 -0.0819
vn -0.7990 -0.6013 -0.0047
vn -0.9750 0.0253 0.2207
vn -0.7153 0.5695 0.4048
vn -0.9813 0.0211 0.1912
vn -0.6592 -0.7182 -0.2225
vn 0.0943 -0.9791 -0.1803
vn -0.6163 -0.6853 0.3880
vn 0.0923 -0.9953 -0.0289
vn -0.7258 -0.6851 0.0610
vn -0.0640 -0.4702 0.8802
vn 0.0000 -0.9955 -0.0950
vn -0.7675 -0.6410 -0.0085
vn -0.4558 -0.8892 -0.0395
vn -0.9848 0.1471 -0.0924
vn -0.5418 0.7983 -0.2631
vn -0.9809 0.0710 -0.1812
vn -0.9982 0.0480 -0.0343
vn -0.6377 0.7288 -0.2493
vn -0.7502 0.6548 0.0917
vn -0.7121 0.6876 -0.1417
vn -0.7064 0.6414 0.2994
vn -0.9953 0.0256 0.0936
vn -0.9968 0.0582 -0.0542
vn -0.9828 0.0165 0.1840
vn 0.0000 0.7755 0.6312
vn 0.0000 0.8750 0.4841
vn 0.0000 0.9530 -0.3030
vn 0.0000 0.9486 -0.3164
vn 0.0000 -0.9957 -0.0922
vn 0.0000 -0.9854 -0.1699
vn -0.9770 -0.0570 -0.2054
vn -0.8327 0.4095 -0.3726
vn -0.9180 -0.0226 -0.3958
vn -0.5242 0.6491 -0.5512
vn 0.0000 0.7231 -0.6907
vn -0.5888 0.6151 -0.5244
vn -0.6699 -0.7384 -0.0773
vn 0.0000 -0.9955 -0.0941
vn -0.8494 -0.5264 -0.0366
vn -0.5487 -0.7561 -0.3567
vn 0.0000 -0.9464 -0.3230
vn -0.7835 -0.6053 -0.1402
vn -0.8551 -0.4103 -0.3170
vn -0.9046 0.0680 -0.4208
vn -0.7171 0.3094 -0.6245
vn -0.5054 0.6022 0.6179
vn -0.7396 0.4732 0.4786
vn -0.9302 -0.0150 -0.3667
vn 0.0000 -0.9806 -0.1960
vn -0.5939 -0.7162 -0.3665
vn 0.0000 0.6344 0.7730
vn -0.0130 -0.8527 0.5222
vn -0.8025 -0.2439 0.5444
vn 0.0000 -0.6920 0.7219
vn -0.8086 0.5882 0.0113
vn 0.0000 0.9807 -0.1953
vn -0.7699 0.6072 0.1962
vn 0.0000 0.8996 0.4368
vn 0.0000 0.5640 0.8257
vn -0.9954 0.0848 0.0441
vn 0.0000 0.9216 -0.3881
vn 0.0000 -0.3224 0.9466
vn 0.0000 0.6035 0.7973
vn 0.0000 0.7959 -0.6054
vn -0.9905 -0.0110 -0.1369
vn 0.0000 -0.9873 -0.1586
vn 0.0000 -0.4761 -0.8794
vn 0.8208 -0.5652 -0.0819
vn 0.7153 0.5695 0.4048
vn 0.9750 0.0253 0.2207
vn 0.9813 0.0211 0.1912
vn 0.7990 -0.6013 -0.0047
vn 0.6592 -0.7182 -0.2225
vn 0.6163 -0.6853 0.3880
vn -0.0943 -0.9791 -0.1803
vn -0.0923 -0.9953 -0.0289
vn 0.0640 -0.4702 0.8802
vn 0.7258 -0.6851 0.0610
vn 0.7675 -0.6410 -0.0085
vn 0.4558 -0.8892 -0.0395
vn 0.5418 0.7983 -0.2631
vn 0.9848 0.1471 -0.0924
vn 0.9809 0.0710 -0.1812
vn 0.6377 0.7288 -0.2493
vn 0.9982 0.0480 -0.0343
vn 0.7502 0.6548 0.0917
vn 0.9953 0.0256 0.0936
vn 0.7064 0.6414 0.2994
vn 0.9968 0.0582 -0.0542
vn 0.9828 0.0165 0.1840
vn 0.7396 0.4732 0.4786
vn 0.7121 0.6876 -0.1417
vn 0.9770 -0.0570 -0.2054
vn 0.9180 -0.0226 -0.3958
vn 0.8327 0.4095 -0.3726
vn 0.5242 0.6491 -0.5512
vn 0.6699 -0.7384 -0.0773
vn 0.8494 -0.5264 -0.0366
vn 0.5487 -0.7561 -0.3567
vn 0.7835 -0.6053 -0.1402
vn 0.8551 -0.4103 -0.3170
vn 0.9046 0.0680 -0.4208
vn 0.5888 0.6151 -0.5244
vn 0.7171 0.3094 -0.6245
vn 0.5054 0.6022 0.6179
vn 0.9302 -0.0150 -0.3667
vn 0.5939 -0.7162 -0.3665
vn 0.0130 -0.8527 0.5222
vn 0.8025 -0.2439 0.5444
vn 0.0000 -0.9547 -0.2974
vn 0.8086 0.5882 0.0113
vn 0.7699 0.6072 0.1962
vn 0.6514 0.6412 0.4056
vn 0.9954 0.0848 0.0441
vn 0.9905 -0.0110 -0.1369
vn -0.6514 0.6412 0.4056
vn 0.0000 0.4299 -0.9029
s 1
f 75/1/1 3/2/2 10/3/3
f 5/4/4 47/5/5 14/6/6
f 10/3/3 5/4/4 14/6/6
f 2/7/7 43/8/8 13/9/9
f 46/10/10 12/11/11 44/12/12
f 73/13/13 11/14/14 12/15/11
f 18/16/15 10/3/3 11/14/14
f 17/17/16 19/18/17 4/19/18
f 16/20/19 6/21/20 17/17/16
f 16/20/19 8/22/21 7/23/22
f 14/6/6 36/24/23 15/25/24
f 2/26/7 13/27/9 42/28/25
f 44/29/12 12/30/11 45/31/26
f 12/15/11 15/25/24 16/20/19
f 11/14/14 14/6/6 15/25/24
f 47/5/5 65/32/27 69/33/28
f 6/21/20 64/34/29 19/18/17
f 7/23/22 66/35/30 6/21/20
f 2/36/7 82/37/31 70/38/32
f 22/39/33 40/40/34 39/41/35
f 20/42/36 86/43/37 23/44/38
f 21/45/39 87/46/40 82/37/31
f 38/47/41 22/39/33 39/41/35
f 87/48/40 27/49/42 92/50/43
f 24/51/44 28/52/45 27/53/42
f 23/54/38 28/52/45 25/55/46
f 86/56/37 26/57/47 23/54/38
f 5/4/4 29/58/48 1/59/49
f 3/2/2 31/60/50 5/4/4
f 71/61/51 30/62/52 3/2/2
f 1/59/49 96/63/53 65/32/27
f 31/64/50 32/65/54 33/66/55
f 29/67/48 100/68/56 96/69/53
f 33/70/55 29/67/48 31/71/50
f 30/72/52 100/73/56 32/65/54
f 7/23/22 35/74/57 67/75/58
f 35/74/57 8/22/21 34/76/59
f 36/24/23 34/76/59 8/22/21
f 36/24/23 69/33/28 105/77/60
f 34/78/59 103/79/61 35/80/57
f 35/80/57 37/81/62 104/82/63
f 37/81/62 103/79/61 107/83/64
f 68/84/65 37/81/62 107/83/64
f 19/85/17 81/86/66 20/42/36
f 38/47/41 41/87/67 22/39/33
f 41/87/67 40/40/34 22/39/33
f 32/88/54 29/67/48 33/70/55
f 39/89/35 25/90/46 24/91/44
f 41/92/67 38/93/41 21/45/39
f 23/44/38 25/90/46 39/89/35
f 20/42/36 40/94/34 41/92/67
f 17/17/16 42/95/25 45/96/26
f 73/13/13 46/97/10 72/98/68
f 4/19/18 42/95/25 17/17/16
f 70/38/32 43/99/8 2/100/7
f 44/29/12 42/28/25 13/27/9
f 43/8/8 44/12/12 13/9/9
f 27/53/42 26/57/47 118/101/69
f 118/102/69 92/50/43 27/49/42
f 75/103/1 49/104/70 71/105/51
f 119/106/71 51/107/72 60/108/73
f 56/109/74 51/107/72 49/104/70
f 77/110/75 59/111/76 114/112/77
f 117/113/78 115/114/79 58/115/80
f 73/116/13 57/117/81 74/118/82
f 74/118/82 56/109/74 75/103/1
f 76/119/83 63/120/84 50/121/85
f 52/122/86 62/123/87 63/120/84
f 62/123/87 54/124/88 61/125/89
f 106/126/90 60/108/73 61/125/89
f 77/127/75 113/128/91 59/129/76
f 115/130/79 116/131/92 58/132/80
f 58/133/80 61/125/89 57/117/81
f 57/117/81 60/108/73 56/109/74
f 65/134/27 48/135/93 119/106/71
f 64/136/29 52/122/86 76/119/83
f 66/137/30 53/138/94 52/122/86
f 82/139/31 77/140/75 70/141/32
f 80/142/95 110/143/96 111/144/97
f 78/145/98 86/146/37 81/147/66
f 87/148/40 79/149/99 82/139/31
f 109/150/100 110/143/96 80/142/95
f 87/151/40 89/152/101 84/153/102
f 84/154/102 90/155/103 85/156/104
f 90/155/103 83/157/105 85/156/104
f 88/158/106 86/159/37 83/157/105
f 93/160/107 51/107/72 48/135/93
f 95/161/108 49/104/70 51/107/72
f 94/162/109 71/105/51 49/104/70
f 96/163/53 48/135/93 65/134/27
f 95/164/108 98/165/110 94/166/109
f 100/167/56 93/168/107 96/169/53
f 99/170/111 95/171/108 93/168/107
f 94/166/109 100/172/56 97/173/112
f 53/138/94 102/174/113 54/124/88
f 102/174/113 101/175/114 54/124/88
f 106/126/90 101/175/114 105/176/60
f 106/126/90 69/177/28 55/178/115
f 101/179/114 103/180/61 105/181/60
f 104/182/63 108/183/116 102/184/113
f 103/180/61 108/183/116 107/185/64
f 68/186/65 107/185/64 108/183/116
f 76/187/83 81/147/66 64/136/29
f 109/150/100 80/142/95 112/188/117
f 112/188/117 80/142/95 111/144/97
f 98/189/110 99/170/111 93/168/107
f 84/190/102 110/191/96 109/192/100
f 79/149/99 112/193/117 77/140/75
f 110/191/96 83/194/105 111/195/97
f 112/193/117 78/145/98 76/187/83
f 116/196/92 63/120/84 62/123/87
f 114/197/77 117/198/78 72/199/68
f 50/121/85 113/200/91 77/201/75
f 70/141/32 114/197/77 72/199/68
f 113/128/91 115/130/79 59/129/76
f 114/112/77 115/114/79 117/113/78
f 88/158/106 90/155/103 89/202/101
f 118/203/69 89/152/101 92/204/43
f 75/1/1 71/61/51 3/2/2
f 9/205/118 14/6/6 47/5/5
f 5/4/4 1/59/49 47/5/5
f 10/3/3 3/2/2 5/4/4
f 73/13/13 18/16/15 11/14/14
f 18/16/15 75/1/1 10/3/3
f 17/17/16 6/21/20 19/18/17
f 16/20/19 7/23/22 6/21/20
f 16/20/19 15/25/24 8/22/21
f 8/22/21 15/25/24 36/24/23
f 14/6/6 9/205/118 36/24/23
f 12/15/11 11/14/14 15/25/24
f 11/14/14 10/3/3 14/6/6
f 69/33/28 9/205/118 47/5/5
f 47/5/5 1/59/49 65/32/27
f 6/21/20 66/35/30 64/34/29
f 7/23/22 67/75/58 66/35/30
f 2/36/7 21/45/39 82/37/31
f 20/42/36 81/86/66 86/43/37
f 21/45/39 24/91/44 87/46/40
f 87/48/40 24/206/44 27/49/42
f 24/51/44 25/55/46 28/52/45
f 23/54/38 26/57/47 28/52/45
f 86/56/37 91/207/119 26/57/47
f 5/4/4 31/60/50 29/58/48
f 3/2/2 30/62/52 31/60/50
f 71/61/51 97/208/112 30/62/52
f 1/59/49 29/58/48 96/63/53
f 31/64/50 30/72/52 32/65/54
f 29/67/48 32/88/54 100/68/56
f 30/72/52 97/209/112 100/73/56
f 7/23/22 8/22/21 35/74/57
f 36/24/23 105/77/60 34/76/59
f 36/24/23 9/205/118 69/33/28
f 34/78/59 105/210/60 103/79/61
f 104/82/63 67/211/58 35/80/57
f 37/81/62 68/84/65 104/82/63
f 37/81/62 35/80/57 103/79/61
f 19/85/17 64/34/29 81/86/66
f 24/91/44 21/45/39 38/93/41
f 38/93/41 39/89/35 24/91/44
f 21/45/39 2/36/7 41/92/67
f 4/19/18 41/92/67 2/36/7
f 39/89/35 40/94/34 23/44/38
f 20/42/36 23/44/38 40/94/34
f 41/92/67 4/19/18 19/85/17
f 19/85/17 20/42/36 41/92/67
f 45/96/26 12/15/11 16/20/19
f 16/20/19 17/17/16 45/96/26
f 43/99/8 72/98/68 46/97/10
f 73/13/13 12/15/11 46/97/10
f 4/19/18 2/100/7 42/95/25
f 70/38/32 72/98/68 43/99/8
f 44/29/12 45/31/26 42/28/25
f 43/8/8 46/10/10 44/12/12
f 91/207/119 118/101/69 26/57/47
f 27/53/42 28/52/45 26/57/47
f 75/103/1 56/109/74 49/104/70
f 51/107/72 119/106/71 48/135/93
f 55/178/115 119/106/71 60/108/73
f 56/109/74 60/108/73 51/107/72
f 73/116/13 58/133/80 57/117/81
f 74/118/82 57/117/81 56/109/74
f 76/119/83 52/122/86 63/120/84
f 52/122/86 53/138/94 62/123/87
f 62/123/87 53/138/94 54/124/88
f 60/108/73 106/126/90 55/178/115
f 54/124/88 106/126/90 61/125/89
f 58/133/80 62/123/87 61/125/89
f 57/117/81 61/125/89 60/108/73
f 119/106/71 55/178/115 69/177/28
f 69/177/28 65/134/27 119/106/71
f 64/136/29 66/137/30 52/122/86
f 66/137/30 67/212/58 53/138/94
f 82/139/31 79/149/99 77/140/75
f 78/145/98 83/194/105 86/146/37
f 87/148/40 84/190/102 79/149/99
f 87/151/40 92/204/43 89/152/101
f 84/154/102 89/202/101 90/155/103
f 90/155/103 88/158/106 83/157/105
f 88/158/106 91/213/119 86/159/37
f 93/160/107 95/161/108 51/107/72
f 95/161/108 94/162/109 49/104/70
f 94/162/109 97/214/112 71/105/51
f 96/163/53 93/160/107 48/135/93
f 95/164/108 99/215/111 98/165/110
f 100/167/56 98/189/110 93/168/107
f 94/166/109 98/165/110 100/172/56
f 53/138/94 67/212/58 102/174/113
f 106/126/90 54/124/88 101/175/114
f 106/126/90 105/176/60 69/177/28
f 101/179/114 102/184/113 103/180/61
f 102/184/113 67/216/58 104/182/63
f 104/182/63 68/186/65 108/183/116
f 103/180/61 102/184/113 108/183/116
f 76/187/83 78/145/98 81/147/66
f 109/192/100 79/149/99 84/190/102
f 84/190/102 85/217/104 110/191/96
f 50/121/85 77/140/75 112/193/117
f 79/149/99 109/192/100 112/193/117
f 78/145/98 111/195/97 83/194/105
f 110/191/96 85/217/104 83/194/105
f 76/187/83 50/121/85 112/193/117
f 112/193/117 111/195/97 78/145/98
f 62/123/87 58/133/80 116/196/92
f 116/196/92 113/200/91 63/120/84
f 73/116/13 72/199/68 117/198/78
f 117/198/78 58/133/80 73/116/13
f 50/121/85 63/120/84 113/200/91
f 70/141/32 77/201/75 114/197/77
f 113/128/91 116/131/92 115/130/79
f 114/112/77 59/111/76 115/114/79
f 89/202/101 118/218/69 88/158/106
f 91/213/119 88/158/106 118/218/69
