# Blender v2.76 (sub 0) OBJ File: 'dalekEars.blend'
# www.blender.org
mtllib dalekEars.mtl
o obj.ears.000_Cylinder.001
v -0.040160 0.243744 0.037306
v -0.075315 0.273508 0.037306
v -0.043391 0.239928 0.035966
v -0.078546 0.269692 0.035966
v -0.045756 0.237134 0.032306
v -0.080911 0.266899 0.032306
v -0.046622 0.236112 0.027306
v -0.081777 0.265876 0.027306
v -0.045756 0.237134 0.022306
v -0.080911 0.266899 0.022306
v -0.043391 0.239928 0.018646
v -0.078546 0.269692 0.018646
v -0.040160 0.243744 0.017306
v -0.075315 0.273508 0.017306
v -0.036929 0.247560 0.018646
v -0.072084 0.277324 0.018646
v -0.034564 0.250353 0.022306
v -0.069719 0.280118 0.022306
v -0.033698 0.251376 0.027306
v -0.068853 0.281140 0.027306
v -0.034564 0.250353 0.032306
v -0.069719 0.280118 0.032306
v -0.036929 0.247560 0.035966
v -0.072084 0.277324 0.035966
v 0.050120 0.244986 0.017306
v 0.085275 0.274750 0.017306
v 0.053351 0.241170 0.018646
v 0.088506 0.270934 0.018646
v 0.055716 0.238376 0.022306
v 0.090871 0.268141 0.022306
v 0.056582 0.237354 0.027306
v 0.091737 0.267118 0.027306
v 0.055716 0.238376 0.032306
v 0.090871 0.268141 0.032306
v 0.053351 0.241170 0.035966
v 0.088506 0.270934 0.035966
v 0.050120 0.244986 0.037306
v 0.085275 0.274750 0.037306
v 0.046889 0.248802 0.035966
v 0.082044 0.278566 0.035966
v 0.044524 0.251595 0.032306
v 0.079679 0.281360 0.032306
v 0.043658 0.252618 0.027306
v 0.078813 0.282382 0.027306
v 0.044524 0.251595 0.022306
v 0.079679 0.281360 0.022306
v 0.046889 0.248802 0.018646
v 0.082044 0.278566 0.018646
vt 0.137801 0.446493
vt 0.137801 0.041745
vt 0.220373 0.017643
vt 0.282731 0.000000
vt 0.282731 0.404748
vt 0.519162 0.870543
vt 0.479553 0.868693
vt 0.479553 0.488237
vt 0.439944 0.870543
vt 0.439944 0.490087
vt 0.565462 0.083489
vt 0.565462 0.488237
vt 0.508323 0.470594
vt 0.427661 0.446493
vt 0.427661 0.041745
vt 0.345089 0.422391
vt 0.345089 0.017643
vt 0.079218 0.488237
vt 0.079218 0.868693
vt 0.039609 0.870543
vt 0.000000 0.868693
vt 0.000000 0.488237
vt 0.183062 0.506924
vt 0.282731 0.676842
vt 0.146580 0.815617
vt 0.057139 0.065846
vt 0.000000 0.083489
vt 0.340275 0.488237
vt 0.382400 0.844685
vt 0.303793 0.764563
vt 0.604725 0.000000
vt 0.604724 0.834412
vt 0.565462 0.835470
vt 0.783573 0.000000
vt 0.812569 0.000803
vt 0.812569 0.837929
vt 0.852178 0.001097
vt 0.852178 0.838223
vt 0.891787 0.000803
vt 0.891787 0.837929
vt 0.783573 0.834412
vt 0.753697 0.836924
vt 0.753697 0.002512
vt 0.713780 0.837763
vt 0.713780 0.003351
vt 0.674517 0.836705
vt 0.891787 0.838223
vt 0.891787 0.001097
vt 0.920782 0.000294
vt 0.960391 0.000000
vt 0.960391 0.837126
vt 1.000000 0.000294
vt 1.000000 0.837420
vt 0.697995 0.859437
vt 0.585965 0.977866
vt 0.565462 0.896978
vt 0.644642 0.835251
vt 0.674517 0.003351
vt 0.674517 0.837763
vt 0.804076 0.859897
vt 0.936610 0.897438
vt 0.839589 1.000000
vt 0.220373 0.422391
vt 0.519162 0.490087
vt 0.508323 0.065846
vt 0.039609 0.490088
vt 0.125517 0.746582
vt 0.125517 0.656080
vt 0.146580 0.568358
vt 0.225187 0.488237
vt 0.261668 0.517305
vt 0.282731 0.586339
vt 0.261668 0.764563
vt 0.225187 0.825998
vt 0.183062 0.844685
vt 0.057138 0.470594
vt 0.303793 0.517305
vt 0.382400 0.506924
vt 0.418882 0.568359
vt 0.439944 0.656080
vt 0.439944 0.746583
vt 0.418882 0.815617
vt 0.340275 0.825998
vt 0.565462 0.001058
vt 0.783573 0.837126
vt 0.674517 0.002294
vt 0.920782 0.837420
vt 0.585965 0.859437
vt 0.621477 0.837763
vt 0.662483 0.837763
vt 0.718498 0.896977
vt 0.718498 0.940325
vt 0.697995 0.977866
vt 0.662483 0.999540
vt 0.621477 0.999540
vt 0.565462 0.940325
vt 0.644642 0.000839
vt 0.804076 0.978326
vt 0.783573 0.940786
vt 0.783573 0.897438
vt 0.839588 0.838223
vt 0.880595 0.838223
vt 0.916107 0.859897
vt 0.936610 0.940786
vt 0.916107 0.978326
vt 0.880595 1.000000
vn -0.167200 -0.197500 0.965900
vn -0.456900 -0.539700 0.707100
vn -0.624200 -0.737200 0.258800
vn -0.624200 -0.737200 -0.258800
vn -0.456900 -0.539700 -0.707100
vn -0.167200 -0.197500 -0.965900
vn 0.167200 0.197500 -0.965900
vn 0.456900 0.539700 -0.707100
vn 0.624200 0.737200 -0.258800
vn 0.624200 0.737200 0.258800
vn -0.763200 0.646200 -0.000000
vn 0.167200 0.197500 0.965900
vn 0.456900 0.539700 0.707100
vn 0.763200 -0.646200 -0.000000
vn 0.167200 -0.197500 -0.965900
vn 0.456900 -0.539700 -0.707100
vn 0.624200 -0.737200 -0.258800
vn 0.624200 -0.737200 0.258800
vn 0.456900 -0.539700 0.707100
vn 0.167200 -0.197500 0.965900
vn -0.167200 0.197500 0.965900
vn -0.456900 0.539700 0.707100
vn -0.624200 0.737200 0.258800
vn -0.624200 0.737200 -0.258800
vn 0.763200 0.646200 0.000000
vn -0.167200 0.197500 -0.965900
vn -0.456900 0.539700 -0.707100
vn -0.763200 -0.646200 0.000000
usemtl None
s off
f 1/1/1 2/2/1 4/3/1
f 4/3/2 6/4/2 5/5/2
f 6/6/3 8/7/3 7/8/3
f 8/7/4 10/9/4 9/10/4
f 9/11/5 10/12/5 12/13/5
f 12/13/6 14/14/6 13/15/6
f 14/14/7 16/16/7 15/17/7
f 16/16/8 18/5/8 17/4/8
f 17/18/9 18/19/9 20/20/9
f 20/20/10 22/21/10 21/22/10
f 22/23/11 14/24/11 6/25/11
f 24/26/12 2/2/12 1/1/12
f 21/22/13 22/27/13 24/26/13
f 7/28/14 19/29/14 23/30/14
f 25/31/15 26/32/15 28/33/15
f 28/34/16 30/35/16 29/36/16
f 30/35/17 32/37/17 31/38/17
f 32/37/18 34/39/18 33/40/18
f 34/41/19 36/42/19 35/43/19
f 36/42/20 38/44/20 37/45/20
f 37/45/21 38/44/21 40/46/21
f 39/47/22 40/48/22 42/49/22
f 42/49/23 44/50/23 43/51/23
f 44/50/24 46/52/24 45/53/24
f 46/54/25 34/55/25 30/56/25
f 48/57/26 26/32/26 25/31/26
f 45/58/27 46/59/27 48/57/27
f 31/60/28 39/61/28 47/62/28
f 3/63/1 1/1/1 4/3/1
f 3/63/2 4/3/2 5/5/2
f 5/64/3 6/6/3 7/8/3
f 7/8/4 8/7/4 9/10/4
f 11/65/5 9/11/5 12/13/5
f 11/65/6 12/13/6 13/15/6
f 13/15/7 14/14/7 15/17/7
f 15/17/8 16/16/8 17/4/8
f 19/66/9 17/18/9 20/20/9
f 19/66/10 20/20/10 21/22/10
f 6/25/11 4/67/11 2/68/11
f 2/68/11 24/69/11 6/25/11
f 22/23/11 20/70/11 18/71/11
f 18/71/11 16/72/11 22/23/11
f 14/24/11 12/73/11 10/74/11
f 10/74/11 8/75/11 6/25/11
f 6/25/11 24/69/11 22/23/11
f 22/23/11 16/72/11 14/24/11
f 14/24/11 10/74/11 6/25/11
f 23/76/12 24/26/12 1/1/12
f 23/76/13 21/22/13 24/26/13
f 23/30/14 1/24/14 7/28/14
f 3/72/14 5/77/14 7/28/14
f 7/28/14 9/78/14 11/79/14
f 11/79/14 13/80/14 7/28/14
f 15/81/14 17/82/14 19/29/14
f 19/29/14 21/83/14 23/30/14
f 1/24/14 3/72/14 7/28/14
f 7/28/14 13/80/14 15/81/14
f 15/81/14 19/29/14 7/28/14
f 27/84/15 25/31/15 28/33/15
f 27/85/16 28/34/16 29/36/16
f 29/36/17 30/35/17 31/38/17
f 31/38/18 32/37/18 33/40/18
f 33/34/19 34/41/19 35/43/19
f 35/43/20 36/42/20 37/45/20
f 39/86/21 37/45/21 40/46/21
f 41/87/22 39/47/22 42/49/22
f 41/87/23 42/49/23 43/51/23
f 43/51/24 44/50/24 45/53/24
f 30/56/25 28/88/25 46/54/25
f 26/89/25 48/90/25 46/54/25
f 46/54/25 44/91/25 42/92/25
f 42/92/25 40/93/25 38/94/25
f 38/94/25 36/95/25 34/55/25
f 34/55/25 32/96/25 30/56/25
f 28/88/25 26/89/25 46/54/25
f 46/54/25 42/92/25 38/94/25
f 38/94/25 34/55/25 46/54/25
f 47/97/26 48/57/26 25/31/26
f 47/97/27 45/58/27 48/57/27
f 47/62/28 25/98/28 31/60/28
f 27/99/28 29/100/28 31/60/28
f 31/60/28 33/101/28 35/102/28
f 35/102/28 37/103/28 31/60/28
f 39/61/28 41/104/28 43/105/28
f 43/105/28 45/106/28 39/61/28
f 25/98/28 27/99/28 31/60/28
f 31/60/28 37/103/28 39/61/28
f 39/61/28 45/106/28 47/62/28
