# Blender v2.73 (sub 0) OBJ File: 'error.blend'
# www.blender.org
o obj.errorCube.000_Cube
v 0.500000 -0.500000 -0.500000
v 0.500000 -0.500000 0.500000
v -0.500000 -0.500000 0.500000
v -0.500000 -0.500000 -0.500000
v 0.500000 0.500000 -0.500000
v 0.499999 0.500000 0.500000
v -0.500000 0.500000 0.500000
v -0.500000 0.500000 -0.500000
vt 0.500000 0.250000
vt 0.750000 0.250000
vt 0.750000 0.500000
vt 0.000000 0.500000
vt 0.000000 0.250000
vt 0.250000 0.250000
vt 0.250000 0.500000
vt 0.250000 0.000000
vt 0.500000 0.000000
vt 1.000000 0.250001
vt 1.000000 0.500001
vt 0.500000 0.500000
vt 0.499999 0.750000
vt 0.249999 0.750000
vn 0.000000 -1.000000 0.000000
vn 0.000000 1.000000 0.000000
vn 1.000000 0.000000 0.000000
vn -0.000000 0.000000 1.000000
vn -1.000000 -0.000000 -0.000000
vn 0.000000 0.000000 -1.000000
s off
f 2/1/1 3/2/1 4/3/1
f 8/4/2 7/5/2 6/6/2
f 5/7/3 6/6/3 2/1/3
f 6/6/4 7/8/4 3/9/4
f 7/10/5 8/11/5 4/3/5
f 1/12/6 4/13/6 8/14/6
f 1/12/1 2/1/1 4/3/1
f 5/7/2 8/4/2 6/6/2
f 1/12/3 5/7/3 2/1/3
f 2/1/4 6/6/4 3/9/4
f 3/2/5 7/10/5 4/3/5
f 5/7/6 1/12/6 8/14/6
