# Blender v2.76 (sub 0) OBJ File: 'nursery.blend'
# www.blender.org
mtllib nursery.mtl
o obj.nursery.000_Cube
v 34.556973 -13.178020 32.680408
v -32.680412 -13.178020 32.680405
v -32.680397 -13.178020 -34.556984
v 34.556992 54.059361 -34.556950
v 34.556946 54.059361 32.680428
v -32.680420 54.059361 32.680397
v -32.680408 54.059361 -34.556973
vt 0.000121 0.999879
vt 0.000121 0.500121
vt 0.499879 0.500121
vt 0.499879 0.000121
vt 0.499879 0.499879
vt 0.000121 0.499879
vt 0.999638 0.000121
vt 0.999638 0.499879
vt 0.499879 0.999879
vt 0.000121 0.000121
vn 0.000000 -1.000000 0.000000
vn 0.000000 -0.000000 -1.000000
vn 1.000000 0.000000 0.000000
usemtl Material
s off
f 5/1/1 6/2/1 7/3/1
f 2/4/2 6/5/2 5/6/2
f 3/7/3 7/8/3 6/5/3
f 4/9/1 5/1/1 7/3/1
f 1/10/2 2/4/2 5/6/2
f 2/4/3 3/7/3 6/5/3
