# Blender v2.78 (sub 0) OBJ File: 'wheel.blend'
# www.blender.org
o obj.wheel.000_Torus
v 0.140977 -0.644326 -0.154721
v 0.140977 -0.644326 0.162303
v 0.064958 -0.644326 0.162303
v 0.064958 -0.644326 -0.154721
v 0.106187 0.041431 -0.034721
v 0.106187 0.041431 0.042303
v 0.065156 0.041431 0.042303
v 0.065156 0.041431 -0.034721
v 0.075636 -0.025203 -0.023559
v 0.075636 -0.025203 0.026847
v 0.025229 -0.025203 0.026847
v 0.025229 -0.025203 -0.023559
v 0.075636 0.025203 -0.023559
v 0.075636 0.025203 0.026847
v 0.025229 0.025203 0.026847
v 0.025229 0.025203 -0.023559
v -0.023126 -0.330238 -0.328390
v -0.023125 0.330238 0.328390
v -0.007146 -0.314729 -0.343986
v -0.007146 0.345746 0.312795
v 0.018709 -0.320653 -0.338029
v 0.018709 0.339822 0.318752
v 0.018709 -0.339822 -0.318752
v 0.018709 0.320653 0.338029
v -0.007147 -0.345746 -0.312795
v -0.007146 0.314729 0.343986
v -0.023126 0.322044 -0.336429
v -0.023126 -0.322044 0.336429
v -0.007146 0.337932 -0.321220
v -0.007146 -0.306157 0.351638
v 0.018709 0.331864 -0.327029
v 0.018709 -0.312225 0.345828
v 0.018709 0.312225 -0.345828
v 0.018709 -0.331864 0.327029
v -0.007146 0.306157 -0.351638
v -0.007146 -0.337932 0.321220
v -0.023126 0.465722 0.000239
v -0.023126 -0.465722 -0.000239
v -0.007146 0.465711 0.022233
v -0.007146 -0.465733 0.021755
v 0.018709 0.465715 0.013832
v 0.018709 -0.465729 0.013354
v 0.018709 0.465729 -0.013354
v 0.018709 -0.465715 -0.013832
v -0.007146 0.465733 -0.021755
v -0.007146 -0.465711 -0.022233
v -0.023125 0.000000 0.465722
v -0.023126 -0.000000 -0.465722
v -0.007146 -0.021994 0.465722
v -0.007147 -0.021994 -0.465722
v 0.018709 -0.013593 0.465722
v 0.018709 -0.013593 -0.465722
v 0.018709 0.013593 0.465722
v 0.018709 0.013593 -0.465722
v -0.007146 0.021994 0.465722
v -0.007147 0.021994 -0.465722
v 0.000000 -0.366028 0.000000
v 0.050165 -0.279140 0.000000
v -0.050165 -0.279141 0.000000
v 0.000000 -0.258821 -0.258821
v 0.050165 -0.197382 -0.197382
v -0.050165 -0.197382 -0.197382
v 0.000000 -0.000000 -0.366028
v 0.050165 0.000000 -0.279141
v -0.050165 -0.000000 -0.279141
v -0.000000 0.258821 -0.258821
v 0.050165 0.197382 -0.197382
v -0.050165 0.197382 -0.197382
v -0.000000 0.366028 -0.000000
v 0.050165 0.279141 -0.000000
v -0.050165 0.279140 -0.000000
v -0.000000 0.258821 0.258821
v 0.050165 0.197382 0.197382
v -0.050165 0.197382 0.197382
v 0.000000 -0.000000 0.366028
v 0.050165 0.000000 0.279141
v -0.050165 -0.000000 0.279141
v 0.000000 -0.258821 0.258821
v 0.050165 -0.197382 0.197382
v -0.050165 -0.197382 0.197382
vt 0.3782 0.5489
vt 0.7487 0.6551
vt 0.3782 0.5904
vt 0.4971 0.3169
vt 0.8728 0.2946
vt 0.8728 0.3357
vt 0.3782 0.7204
vt 0.7482 0.8267
vt 0.3782 0.7620
vt 0.4971 0.0191
vt 0.8728 0.0413
vt 0.4971 0.0412
vt 0.4971 0.1638
vt 0.6682 0.1228
vt 0.6682 0.1638
vt 0.5192 0.2525
vt 0.4971 0.2941
vt 0.4971 0.2525
vt 0.5373 0.0619
vt 0.5373 0.1021
vt 0.5172 0.0820
vt 0.5626 0.0820
vt 0.5491 0.0820
vt 0.6031 0.0820
vt 0.5705 0.0554
vt 0.5172 0.1222
vt 0.4971 0.1021
vt 0.5705 0.1087
vt 0.4971 0.0619
vt 0.8808 0.8566
vt 0.3782 0.8420
vt 0.8808 0.8420
vt 0.3782 0.8273
vt 0.8808 0.8273
vt 0.3782 0.9006
vt 0.8808 0.8860
vt 0.8808 0.9006
vt 0.5090 0.1875
vt 0.5208 0.1961
vt 0.5163 0.2100
vt 0.8808 0.8713
vt 0.3782 0.8566
vt 0.3782 0.8713
vt 0.5440 0.2433
vt 0.5321 0.2520
vt 0.5202 0.2433
vt 0.3782 0.9452
vt 0.8808 0.9305
vt 0.8808 0.9452
vt 0.3782 0.9305
vt 0.8808 0.9159
vt 0.3782 0.9012
vt 0.8808 0.9012
vt 0.5406 0.1875
vt 0.5451 0.2014
vt 0.5332 0.2100
vt 0.3782 0.9599
vt 0.8808 0.9599
vt 0.3782 0.9746
vt 0.8808 0.9746
vt 0.5633 0.2941
vt 0.5486 0.2941
vt 0.5441 0.2801
vt 0.9997 0.4395
vt 0.4971 0.4541
vt 0.4971 0.4395
vt 0.9997 0.4688
vt 0.4971 0.4688
vt 0.4971 0.4835
vt 0.5197 0.2401
vt 0.5110 0.2520
vt 0.4971 0.2474
vt 0.9997 0.4248
vt 0.4971 0.4248
vt 0.4971 0.4101
vt 0.4971 0.1783
vt 0.5163 0.1643
vt 0.5208 0.1783
vt 0.9997 0.3656
vt 0.4971 0.3802
vt 0.4971 0.3656
vt 0.9997 0.3949
vt 0.4971 0.3949
vt 0.9997 0.4096
vt 0.4971 0.4096
vt 0.5214 0.1730
vt 0.5332 0.1643
vt 0.5451 0.1730
vt 0.9997 0.3509
vt 0.4971 0.3509
vt 0.9997 0.3362
vt 0.4971 0.3362
vt 0.5390 0.2941
vt 0.5243 0.2941
vt 0.5198 0.2801
vt 0.3776 0.7524
vt 0.2450 0.8123
vt 0.3256 0.7318
vt 0.3724 0.2460
vt 0.3814 0.3680
vt 0.3369 0.3276
vt 0.4965 0.2425
vt 0.4302 0.4103
vt 0.1105 0.8636
vt 0.2672 0.8636
vt 0.3327 0.1641
vt 0.4320 0.2400
vt 0.4159 0.0723
vt 0.4955 0.2321
vt 0.0004 0.7520
vt 0.1314 0.8117
vt 0.2462 0.1253
vt 0.3713 0.1181
vt 0.2474 0.0003
vt 0.4147 0.0699
vt 0.0523 0.6158
vt 0.0519 0.7301
vt 0.1599 0.1561
vt 0.2438 0.0651
vt 0.1154 0.1158
vt 0.2413 0.0003
vt 0.1107 0.4840
vt 0.0003 0.5952
vt 0.1244 0.2378
vt 0.0648 0.2437
vt 0.0666 0.0735
vt 0.2465 0.5359
vt 0.1329 0.5353
vt 0.1641 0.3196
vt 0.1255 0.3656
vt 0.0014 0.2516
vt 0.2674 0.4840
vt 0.3260 0.6175
vt 0.2530 0.4187
vt 0.0821 0.4139
vt 0.3775 0.5956
vt 0.2506 0.3584
vt 0.2555 0.4835
vt 0.7487 0.4840
vt 0.4971 0.2947
vt 0.7482 0.6557
vt 0.8728 0.0003
vt 0.4971 0.1228
vt 0.5192 0.2941
vt 0.5172 0.0419
vt 0.3782 0.8860
vt 0.5016 0.2100
vt 0.4971 0.1961
vt 0.5248 0.2294
vt 0.5394 0.2294
vt 0.3782 0.9159
vt 0.5214 0.2014
vt 0.5259 0.1875
vt 0.5559 0.2715
vt 0.5678 0.2801
vt 0.9997 0.4541
vt 0.9997 0.4835
vt 0.4971 0.2328
vt 0.5110 0.2282
vt 0.9997 0.4101
vt 0.5090 0.1869
vt 0.5016 0.1643
vt 0.9997 0.3802
vt 0.5406 0.1869
vt 0.5259 0.1869
vt 0.5317 0.2715
vt 0.5435 0.2801
vt 0.0729 0.0668
vt 0.0003 0.2412
vt 0.0809 0.4115
vt 0.2494 0.4835
vt 0.4239 0.4169
vn 0.5698 0.6343 0.5224
vn 0.5834 -0.5173 -0.6261
vn 0.5698 0.6343 -0.5224
vn -0.5689 -0.5290 0.6297
vn 0.5834 -0.5173 0.6261
vn -0.5869 0.6199 -0.5208
vn -0.5869 0.6199 0.5208
vn -0.5689 -0.5290 -0.6297
vn 0.5773 0.5773 0.5773
vn 0.5773 -0.5773 -0.5773
vn 0.5773 0.5773 -0.5773
vn -0.5773 -0.5773 0.5773
vn 0.5773 -0.5773 0.5773
vn -0.5773 0.5773 -0.5773
vn -0.5773 0.5773 0.5773
vn -0.5773 -0.5773 -0.5773
vn -0.8032 -0.4224 -0.4200
vn -0.2482 0.9610 -0.1216
vn -0.2482 0.1162 -0.9617
vn 0.6498 0.7553 0.0852
vn 0.6498 -0.0895 -0.7548
vn 0.6498 -0.7553 -0.0852
vn -0.2482 -0.1162 0.9617
vn 0.6498 0.0895 0.7548
vn -0.2482 -0.9610 0.1216
vn -0.8032 0.4224 0.4200
vn -0.8032 -0.4119 0.4303
vn -0.2482 0.9637 0.0979
vn -0.8032 0.4119 -0.4303
vn -0.2482 0.1399 0.9585
vn 0.6498 0.7530 -0.1038
vn 0.6498 -0.7530 0.1038
vn 0.6498 0.0709 -0.7568
vn -0.2482 -0.9637 -0.0979
vn 0.6498 -0.0709 0.7568
vn -0.2482 -0.1399 -0.9585
vn -0.8032 -0.5957 -0.0003
vn -0.2482 0.5953 0.7642
vn -0.8032 0.5957 0.0003
vn 0.6498 -0.5959 0.4718
vn 0.6498 0.5954 0.4724
vn 0.6498 0.5959 -0.4718
vn -0.2482 -0.5953 -0.7642
vn 0.6498 -0.5954 -0.4724
vn -0.2482 0.5961 -0.7636
vn -0.8032 0.0000 -0.5957
vn -0.2482 -0.7639 0.5957
vn -0.8032 0.0000 0.5957
vn 0.6498 -0.4721 -0.5957
vn 0.6498 -0.4721 0.5957
vn 0.6498 0.4721 -0.5957
vn 0.6498 0.4721 0.5957
vn -0.2482 0.7639 -0.5957
vn -0.2482 0.7639 0.5957
vn 0.0000 -1.0000 0.0000
vn 0.9526 0.2151 0.2151
vn 0.9526 0.3041 0.0000
vn -0.9526 0.3041 0.0000
vn 0.0000 -0.7071 -0.7071
vn 0.0000 0.0000 -1.0000
vn 0.9526 0.0000 0.3041
vn -0.9526 0.2151 0.2151
vn 0.0000 0.7071 -0.7071
vn 0.9526 -0.2151 0.2151
vn -0.9526 0.0000 0.3041
vn 0.9526 -0.3041 0.0000
vn -0.9526 -0.2151 0.2151
vn -0.9526 -0.3041 0.0000
vn 0.0000 0.7071 0.7071
vn 0.0000 1.0000 0.0000
vn 0.9526 -0.2151 -0.2151
vn -0.9526 -0.2151 -0.2151
vn 0.9526 0.0000 -0.3041
vn -0.9526 0.0000 -0.3041
vn 0.0000 0.0000 1.0000
vn 0.9526 0.2151 -0.2151
vn -0.9526 0.2151 -0.2151
vn 0.0000 -0.7071 0.7071
vn -0.2482 -0.5961 0.7636
vn -0.2482 -0.7639 -0.5957
s 1
f 6/1/1 1/2/2 5/3/3
f 6/4/1 3/5/4 2/6/5
f 8/7/6 3/8/4 7/9/7
f 5/10/3 4/11/8 8/12/6
f 2/13/5 4/14/8 1/15/2
f 8/16/6 6/17/1 5/18/3
f 14/19/9 9/20/10 13/21/11
f 14/19/9 11/22/12 10/23/13
f 16/24/14 11/22/12 15/25/15
f 13/21/11 12/26/16 16/27/14
f 10/23/13 12/28/16 9/20/10
f 16/29/14 14/19/9 13/21/11
f 17/30/17 20/31/18 19/32/19
f 19/32/19 22/33/20 21/34/21
f 22/35/20 23/36/22 21/37/21
f 26/38/23 24/39/24 22/40/20
f 25/41/25 18/42/26 17/30/17
f 23/36/22 26/43/23 25/41/25
f 21/44/21 23/45/22 25/46/25
f 28/47/27 29/48/28 27/49/29
f 30/50/30 31/51/31 29/48/28
f 31/51/31 34/52/32 33/53/33
f 36/54/34 34/55/32 32/56/35
f 36/57/34 27/49/29 35/58/36
f 34/59/32 35/58/36 33/60/33
f 31/61/31 33/62/33 35/63/36
f 38/64/37 39/65/38 37/66/39
f 39/65/38 42/67/40 41/68/41
f 42/67/40 43/69/42 41/68/41
f 46/70/43 44/71/44 42/72/40
f 46/73/43 37/66/39 45/74/45
f 43/75/42 46/73/43 45/74/45
f 39/76/38 43/77/42 45/78/45
f 48/79/46 49/80/47 47/81/48
f 49/80/47 52/82/49 51/83/50
f 51/83/50 54/84/51 53/85/52
f 56/86/53 54/87/51 52/88/49
f 56/89/53 47/81/48 55/90/54
f 54/91/51 55/90/54 53/92/52
f 51/93/50 53/94/52 55/95/54
f 57/96/55 61/97/56 58/98/57
f 61/99/56 59/100/58 58/101/57
f 59/100/58 60/102/59 57/103/55
f 63/104/60 61/97/56 60/105/59
f 64/106/61 62/107/62 61/99/56
f 62/107/62 63/108/60 60/109/59
f 66/110/63 64/111/61 63/104/60
f 67/112/64 65/113/65 64/106/61
f 65/113/65 66/114/63 63/115/60
f 66/110/63 70/116/66 67/117/64
f 70/118/66 68/119/67 67/112/64
f 71/120/68 66/121/63 68/119/67
f 72/122/69 70/116/66 69/123/70
f 73/124/71 71/120/68 70/118/66
f 74/125/72 69/126/70 71/120/68
f 72/122/69 76/127/73 73/128/71
f 76/129/73 74/125/72 73/124/71
f 77/130/74 72/131/69 74/125/72
f 75/132/75 79/133/76 76/127/73
f 76/129/73 80/134/77 77/130/74
f 80/134/77 75/135/75 77/130/74
f 57/96/55 79/133/76 78/136/78
f 79/137/76 59/100/58 80/134/77
f 59/100/58 78/138/78 80/134/77
f 6/1/1 2/139/5 1/2/2
f 6/4/1 7/140/7 3/5/4
f 8/7/6 4/141/8 3/8/4
f 5/10/3 1/142/2 4/11/8
f 2/13/5 3/143/4 4/14/8
f 8/16/6 7/144/7 6/17/1
f 14/19/9 10/23/13 9/20/10
f 14/19/9 15/25/15 11/22/12
f 16/24/14 12/28/16 11/22/12
f 13/21/11 9/20/10 12/26/16
f 10/23/13 11/22/12 12/28/16
f 16/29/14 15/145/15 14/19/9
f 17/30/17 18/42/26 20/31/18
f 19/32/19 20/31/18 22/33/20
f 22/35/20 24/146/24 23/36/22
f 22/40/20 20/147/18 18/148/26
f 18/148/26 26/38/23 22/40/20
f 25/41/25 26/43/23 18/42/26
f 23/36/22 24/146/24 26/43/23
f 25/46/25 17/149/17 19/150/19
f 19/150/19 21/44/21 25/46/25
f 28/47/27 30/50/30 29/48/28
f 30/50/30 32/151/35 31/51/31
f 31/51/31 32/151/35 34/52/32
f 32/56/35 30/152/30 28/153/27
f 28/153/27 36/54/34 32/56/35
f 36/57/34 28/47/27 27/49/29
f 34/59/32 36/57/34 35/58/36
f 35/63/36 27/154/29 29/155/28
f 29/155/28 31/61/31 35/63/36
f 38/64/37 40/156/79 39/65/38
f 39/65/38 40/156/79 42/67/40
f 42/67/40 44/157/44 43/69/42
f 42/72/40 40/158/79 38/159/37
f 38/159/37 46/70/43 42/72/40
f 46/73/43 38/64/37 37/66/39
f 43/75/42 44/160/44 46/73/43
f 45/78/45 37/161/39 39/76/38
f 39/76/38 41/162/41 43/77/42
f 48/79/46 50/163/80 49/80/47
f 49/80/47 50/163/80 52/82/49
f 51/83/50 52/82/49 54/84/51
f 52/88/49 50/164/80 48/165/46
f 48/165/46 56/86/53 52/88/49
f 56/89/53 48/79/46 47/81/48
f 54/91/51 56/89/53 55/90/54
f 55/95/54 47/166/48 49/167/47
f 49/167/47 51/93/50 55/95/54
f 57/96/55 60/105/59 61/97/56
f 61/99/56 62/107/62 59/100/58
f 59/100/58 62/107/62 60/102/59
f 63/104/60 64/111/61 61/97/56
f 64/106/61 65/113/65 62/107/62
f 62/107/62 65/113/65 63/108/60
f 66/110/63 67/117/64 64/111/61
f 67/112/64 68/119/67 65/113/65
f 65/113/65 68/119/67 66/114/63
f 66/110/63 69/123/70 70/116/66
f 70/118/66 71/120/68 68/119/67
f 71/120/68 69/168/70 66/121/63
f 72/122/69 73/128/71 70/116/66
f 73/124/71 74/125/72 71/120/68
f 74/125/72 72/169/69 69/126/70
f 72/122/69 75/132/75 76/127/73
f 76/129/73 77/130/74 74/125/72
f 77/130/74 75/170/75 72/131/69
f 75/132/75 78/136/78 79/133/76
f 76/129/73 79/137/76 80/134/77
f 80/134/77 78/171/78 75/135/75
f 57/96/55 58/98/57 79/133/76
f 79/137/76 58/101/57 59/100/58
f 59/100/58 57/172/55 78/138/78
