# Blender v2.77 (sub 0) OBJ File: 'ChunkyCannonball.blend'
# www.blender.org
o obj.cannonball.000_Sphere.001
v -0.020295 0.035152 0.000000
v -0.035152 0.020295 0.000000
v -0.010148 0.035152 -0.017576
v -0.017576 0.020295 -0.030443
v -0.020295 -0.000000 -0.035152
v -0.017576 -0.020295 -0.030443
v -0.010148 -0.035152 -0.017576
v -0.000000 0.040590 0.000000
v 0.010148 0.035152 -0.017576
v 0.017576 0.020295 -0.030443
v 0.020295 -0.000000 -0.035152
v 0.017576 -0.020295 -0.030443
v 0.010148 -0.035152 -0.017576
v 0.020295 0.035152 -0.000000
v 0.035152 0.020295 0.000000
v 0.040590 -0.000000 0.000000
v 0.035152 -0.020295 0.000000
v 0.020295 -0.035152 -0.000000
v -0.000000 -0.040590 0.000000
v 0.010148 0.035152 0.017576
v 0.017576 0.020295 0.030443
v 0.020295 -0.000000 0.035152
v 0.017576 -0.020295 0.030443
v 0.010148 -0.035152 0.017576
v -0.010148 0.035152 0.017576
v -0.017576 0.020295 0.030443
v -0.020295 -0.000000 0.035152
v -0.017576 -0.020295 0.030443
v -0.010148 -0.035152 0.017576
v -0.040590 -0.000000 0.000000
v -0.035152 -0.020295 0.000000
v -0.020295 -0.035152 0.000000
vt 0.3916 0.6185
vt 0.3266 0.7600
vt 0.3264 0.5615
vt 0.4269 0.3333
vt 0.5455 0.1161
vt 0.5463 0.3485
vt 0.3268 0.2911
vt 0.4263 0.1320
vt 0.6530 0.1697
vt 0.8347 0.1656
vt 0.7345 0.2245
vt 0.6522 0.1313
vt 0.6528 0.3326
vt 0.6109 0.0308
vt 0.4978 0.0000
vt 0.5002 0.8619
vt 0.5920 0.7362
vt 0.6736 0.7653
vt 0.8266 0.0678
vt 0.9348 0.2214
vt 0.1550 0.4648
vt 0.2265 0.3328
vt 0.2678 0.4334
vt 0.0419 0.4341
vt 0.1073 0.3488
vt 0.6734 0.5667
vt 1.0000 0.1644
vt 0.9347 0.3361
vt 0.5919 0.6215
vt 0.4998 0.4648
vt 0.3260 0.1738
vt 0.3264 0.2900
vt 0.2259 0.1316
vt 0.0006 0.3335
vt 0.1066 0.1164
vt 0.8262 0.4648
vt 0.7344 0.3391
vt 0.8345 0.3949
vt 0.1536 0.0000
vt 0.2666 0.0308
vt 0.8376 0.2854
vt 0.4888 0.6824
vt 0.3917 0.7331
vt 0.4993 0.4648
vt 0.6121 0.4334
vt 0.3862 0.4341
vt 0.4919 0.7920
vt 0.4917 0.5627
vt 0.0000 0.1323
vt 0.3264 0.1748
vt 0.3850 0.0315
vt 0.9998 0.3630
vt 0.6528 0.3682
vt 0.0407 0.0315
vn -0.5585 0.8295 0.0000
vn -0.4421 0.4671 -0.7657
vn -0.8842 0.4671 0.0000
vn 0.5000 0.0000 -0.8660
vn -0.5000 0.0000 -0.8660
vn -0.2792 0.8295 -0.4837
vn 0.4421 0.4671 -0.7657
vn -0.4421 -0.4671 -0.7657
vn 0.2792 -0.8295 -0.4837
vn -0.2792 -0.8295 -0.4837
vn 0.4421 -0.4671 -0.7657
vn 0.8842 -0.4671 0.0000
vn 1.0000 0.0000 0.0000
vn 0.5585 0.8295 0.0000
vn 0.8842 0.4671 0.0000
vn 0.5585 -0.8295 0.0000
vn 0.4421 -0.4671 0.7657
vn 0.5000 0.0000 0.8660
vn 0.4421 0.4671 0.7657
vn 0.2792 -0.8295 0.4837
vn 0.2792 0.8295 0.4837
vn -0.4421 0.4671 0.7657
vn -0.2792 -0.8295 0.4837
vn -0.4421 -0.4671 0.7657
vn -0.5000 0.0000 0.8660
vn -0.5585 -0.8295 0.0000
vn -1.0000 0.0000 0.0000
vn -0.8842 -0.4671 0.0000
vn 0.0000 -1.0000 0.0000
vn 0.0000 1.0000 0.0000
vn 0.2792 0.8295 -0.4837
vn -0.2792 0.8295 0.4837
s 1
f 1/1/1 4/2/2 2/3/3
f 4/4/2 11/5/4 5/6/5
f 3/7/6 10/8/7 4/4/2
f 6/9/8 13/10/9 7/11/10
f 5/6/5 12/12/11 6/13/8
f 11/5/4 17/14/12 12/12/11
f 10/8/7 16/15/13 11/5/4
f 10/16/7 14/17/14 15/18/15
f 12/19/11 18/20/16 13/10/9
f 16/21/13 23/22/17 17/23/12
f 15/24/15 22/25/18 16/21/13
f 14/17/14 21/26/19 15/18/15
f 17/27/12 24/28/20 18/20/16
f 20/29/21 26/30/22 21/26/19
f 23/22/17 29/31/23 24/32/20
f 22/25/18 28/33/24 23/22/17
f 21/34/19 27/35/25 22/25/18
f 28/36/24 32/37/26 29/38/23
f 28/33/24 30/39/27 31/40/28
f 19/41/29 32/37/26 7/11/10
f 32/37/26 6/9/8 7/11/10
f 1/1/1 8/42/30 3/43/6
f 30/44/27 6/13/8 31/45/28
f 2/46/3 5/6/5 30/44/27
f 19/41/29 7/11/10 13/10/9
f 3/43/6 8/42/30 9/47/31
f 19/41/29 13/10/9 18/20/16
f 9/47/31 8/42/30 14/17/14
f 14/17/14 8/42/30 20/29/21
f 19/41/29 18/20/16 24/28/20
f 20/29/21 8/42/30 25/48/32
f 19/41/29 24/28/20 29/38/23
f 19/41/29 29/38/23 32/37/26
f 26/30/22 1/1/1 2/3/3
f 25/48/32 8/42/30 1/1/1
f 26/49/22 30/39/27 27/35/25
f 1/1/1 3/43/6 4/2/2
f 4/4/2 10/8/7 11/5/4
f 3/7/6 9/50/31 10/8/7
f 6/9/8 12/19/11 13/10/9
f 5/6/5 11/5/4 12/12/11
f 11/5/4 16/15/13 17/14/12
f 10/8/7 15/51/15 16/15/13
f 10/16/7 9/47/31 14/17/14
f 12/19/11 17/27/12 18/20/16
f 16/21/13 22/25/18 23/22/17
f 15/24/15 21/34/19 22/25/18
f 14/17/14 20/29/21 21/26/19
f 17/27/12 23/52/17 24/28/20
f 20/29/21 25/48/32 26/30/22
f 23/22/17 28/33/24 29/31/23
f 22/25/18 27/35/25 28/33/24
f 21/34/19 26/49/22 27/35/25
f 28/36/24 31/53/28 32/37/26
f 28/33/24 27/35/25 30/39/27
f 32/37/26 31/53/28 6/9/8
f 30/44/27 5/6/5 6/13/8
f 2/46/3 4/4/2 5/6/5
f 26/30/22 25/48/32 1/1/1
f 26/49/22 2/54/3 30/39/27
