# Blender v2.78 (sub 0) OBJ File: 'tempShipModel.blend'
# www.blender.org
o col.tempshiphull5Collision.000_Cube.011
v -0.232124 -1.226089 -6.919634
v -0.215038 -1.189962 -6.891714
v -0.231080 -1.236373 -6.927580
v -0.229867 -1.237629 -6.928551
v -0.154352 -1.420928 -7.070202
v 0.027146 -1.260154 -6.945957
v 0.028194 -1.258749 -6.944872
v 0.033169 -1.227701 -6.920878
v 0.003038 -1.153820 -6.863784
v -0.025160 -1.423580 -7.072252
v -0.152471 -1.423578 -7.072251
v 1.112234 -3.251666 -2.666644
v -1.283919 -3.251666 -2.666612
v 0.494277 -3.251666 -4.120380
v 0.262618 -3.251666 -4.498236
v -0.997408 -3.251666 -3.513224
v -0.686623 -3.251666 -4.122281
v -1.069072 -3.251666 -3.268378
v 0.588088 -3.251666 -3.872302
v 0.896262 -3.251666 -3.268405
v -0.568516 -3.251666 -4.902766
v -0.338098 -3.251666 -5.264185
v 0.151537 -3.251666 -5.297962
v -0.312560 -3.251666 -5.351877
v 0.085877 -3.251666 -5.427840
v 0.068770 -3.251666 -5.502967
v -0.242283 -3.251666 -5.502964
v -0.979614 -2.252348 -3.284232
v 0.677640 -2.094173 -3.508931
v 0.805395 -2.252331 -3.284256
v 0.475952 -1.745554 -4.004173
v -0.725879 -1.745553 -4.004173
v -0.661546 -1.713368 -4.131475
v 0.428688 -1.714804 -4.125798
v -0.724222 -1.744220 -4.009446
v 0.387307 -1.698019 -4.192184
v -0.163099 -1.044021 -6.778933
v -0.162579 -1.059705 -6.716896
v -0.027221 -1.044021 -6.778932
v -0.027608 -1.059130 -6.719171
v 0.180632 -1.281749 -5.838650
v -0.395872 -1.280626 -5.843091
v 0.809600 -2.259397 -3.274219
v 1.139292 -3.105757 -2.556602
v 1.216745 -3.251666 -2.432888
v -0.983780 -2.259396 -3.274219
v -1.310968 -3.105777 -2.556585
v -1.388408 -3.251666 -2.432888
vt 0.6149 0.5027
vt 0.6124 0.5079
vt 0.6098 0.5080
vt 0.5639 0.4473
vt 0.5894 0.5054
vt 0.5468 0.5071
vt 0.3405 0.1413
vt 0.3000 0.1867
vt 0.2999 0.1866
vt 0.5447 0.4540
vt 0.5440 0.5072
vt 0.5293 0.4574
vt 0.7811 0.5851
vt 0.7126 0.5745
vt 0.7819 0.5738
vt 0.5190 0.4589
vt 0.5056 0.4951
vt 0.4961 0.4637
vt 0.4069 0.1824
vt 0.3790 0.1949
vt 0.4051 0.1510
vt 0.4345 0.1598
vt 0.4424 0.1609
vt 0.4374 0.1657
vt 0.3732 0.1958
vt 0.3317 0.1992
vt 0.3645 0.1440
vt 0.3510 0.1429
vt 0.3068 0.1943
vt 0.3067 0.1942
vt 0.3471 0.1416
vt 0.3052 0.1939
vt 0.5281 0.4576
vt 0.5377 0.5064
vt 0.5156 0.4984
vt 0.5713 0.4456
vt 0.6180 0.4954
vt 0.5650 0.4465
vt 0.5736 0.4445
vt 0.6181 0.4953
vt 0.3836 0.1484
vt 0.3788 0.1949
vt 0.3743 0.1953
vt 0.4723 0.4805
vt 0.4748 0.4740
vt 0.4949 0.4639
vt 0.3123 0.2035
vt 0.3100 0.2035
vt 0.3068 0.1977
vt 0.6095 0.5073
vt 0.6156 0.4989
vt 0.6137 0.5023
vt 0.3127 0.2029
vt 0.3073 0.1961
vt 0.3319 0.2003
vt 0.4086 0.1820
vt 0.4147 0.1522
vt 0.4665 0.4759
vt 0.6164 0.4960
vt 0.6160 0.4972
vt 0.7120 0.5833
vt 0.4136 0.1520
vt 0.3825 0.1483
vt 0.3069 0.1946
vt 0.3499 0.1423
vt 0.5426 0.5066
vt 0.6222 0.4872
vt 0.5042 0.4949
vt 0.5038 0.4948
vt 0.5892 0.5066
vt 0.3081 0.1975
vt 0.4082 0.1821
vt 0.0000 0.0000
vt 0.0000 0.0000
vt 0.0000 0.0000
vt 0.0000 0.0000
vt 0.0000 0.0000
vt 0.0000 0.0000
vt 0.0000 0.0000
vt 0.0000 0.0000
vt 0.0000 0.0000
vt 0.0000 0.0000
vt 0.0000 0.0000
vt 0.0000 0.0000
vt 0.0000 0.0000
vt 0.0000 0.0000
vt 0.0000 0.0000
vt 0.0000 0.0000
vt 0.0000 0.0000
vt 0.0000 0.0000
vt 0.0000 0.0000
vt 0.0000 0.0000
vt 0.0000 0.0000
vt 0.0000 0.0000
vt 0.0000 0.0000
vt 0.0000 0.0000
vt 0.0000 0.0000
vt 0.0000 0.0000
vt 0.0000 0.0000
vt 0.0000 0.0000
vt 0.0000 0.0000
vt 0.0000 0.0000
vt 0.0000 0.0000
vt 0.0000 0.0000
vt 0.0000 0.0000
vt 0.0000 0.0000
vt 0.0000 0.0000
vt 0.0000 0.0000
vt 0.0000 0.0000
vt 0.0000 0.0000
vt 0.0000 0.0000
vt 0.0000 0.0000
vt 0.0000 0.0000
vt 0.0000 0.0000
vt 0.0000 0.0000
vt 0.0000 0.0000
vt 0.0000 0.0000
vt 0.0000 0.0000
vt 0.0000 0.0000
vt 0.0000 0.0000
vn 0.5445 0.6362 -0.5465
vn 0.5174 0.8201 -0.2444
vn 0.5302 0.8387 0.1242
vn 0.6779 -0.7176 -0.1596
vn 0.7304 0.6789 0.0750
vn 0.6497 0.7593 -0.0368
vn -0.4147 -0.7942 -0.4442
vn -0.6293 0.2316 -0.7418
vn -0.3857 -0.0767 -0.9194
vn 0.6166 -0.7609 -0.2021
vn 0.6718 0.7219 -0.1661
vn 0.6645 -0.6731 -0.3246
vn 0.4860 -0.0518 -0.8724
vn 0.5280 -0.7489 -0.4003
vn 0.6551 -0.7011 -0.2815
vn 0.7157 0.6894 0.1120
vn 0.6862 -0.6648 -0.2951
vn -0.7064 0.6750 0.2129
vn -0.6603 0.7363 0.1476
vn -0.6984 -0.6666 -0.2606
vn -0.6835 -0.6815 -0.2615
vn -0.7444 -0.2840 0.6042
vn -0.7268 0.6042 0.3267
vn -0.6617 0.7497 -0.0074
vn -0.7062 0.7051 0.0638
vn -0.6958 -0.6952 -0.1805
vn -0.4853 -0.8368 -0.2533
vn -0.6660 0.2371 -0.7072
vn -0.5348 0.2521 -0.8065
vn -0.6120 -0.7637 -0.2055
vn 0.6748 0.7308 0.1028
vn 0.7067 0.6909 0.1523
vn 0.5347 -0.8155 -0.2214
vn 0.6760 0.2635 -0.6882
vn 0.5716 0.2806 -0.7710
vn -0.6396 -0.7404 -0.2064
vn -0.6852 0.7174 -0.1257
vn 0.7267 0.6047 0.3258
vn 0.6836 -0.6810 -0.2626
vn -0.5040 0.8544 0.1259
vn -0.4928 0.8360 -0.2414
vn -0.5206 0.6595 -0.5422
vn 0.6917 0.4465 -0.5676
vn -0.6722 0.4821 -0.5618
vn -0.7086 0.6373 0.3027
vn -0.6927 -0.6851 -0.2254
vn 0.7445 -0.2840 0.6042
vn 0.7082 0.6383 0.3017
vn 0.0000 0.6115 -0.7913
vn 0.0000 0.9695 0.2451
vn 0.0000 -1.0000 0.0000
vn 0.0000 0.6467 0.7627
vn 0.0000 0.8177 0.5756
vn -0.0011 0.6114 -0.7913
vn 0.0001 0.6115 -0.7913
vn 0.0000 0.6116 -0.7912
vn -0.0003 0.6115 -0.7912
vn 0.0002 0.9695 0.2450
vn 0.0000 0.8177 0.5757
s 1
f 9/1/1 39/2/2 40/3/3
f 23/4/4 41/5/5 36/6/6
f 27/7/7 5/8/8 11/9/9
f 15/10/10 34/11/11 14/12/12
f 27/13/7 10/14/13 26/15/14
f 19/16/15 30/17/16 20/18/17
f 28/19/18 32/20/19 16/21/20
f 13/22/21 48/23/22 47/24/23
f 33/25/24 42/26/25 21/27/26
f 22/28/27 3/29/28 4/30/29
f 24/31/30 4/32/29 5/8/8
f 14/33/12 31/34/31 29/35/32
f 25/36/33 7/37/34 23/38/4
f 26/39/14 6/40/35 25/36/33
f 17/41/36 35/42/37 33/43/24
f 44/44/38 12/45/39 20/46/17
f 38/47/40 37/48/41 2/49/42
f 40/50/3 8/51/43 9/52/1
f 38/53/40 1/54/44 42/55/25
f 46/56/45 18/57/46 47/24/23
f 44/44/38 45/58/47 12/45/39
f 36/6/6 15/10/10 23/4/4
f 23/4/4 7/59/34 41/5/5
f 8/60/43 41/5/5 7/59/34
f 27/7/7 24/31/30 5/8/8
f 15/10/10 36/6/6 34/11/11
f 27/13/7 11/61/9 10/14/13
f 19/16/15 29/35/32 30/17/16
f 35/42/37 16/21/20 32/20/19
f 18/62/46 28/19/18 16/21/20
f 3/29/28 21/27/26 42/26/25
f 17/63/36 33/25/24 21/27/26
f 42/26/25 1/64/44 3/29/28
f 22/28/27 21/27/26 3/29/28
f 24/31/30 22/65/27 4/32/29
f 29/35/32 19/16/15 14/33/12
f 14/33/12 34/66/11 31/34/31
f 25/36/33 6/40/35 7/37/34
f 26/39/14 10/67/13 6/40/35
f 17/41/36 16/21/20 35/42/37
f 20/46/17 30/68/16 43/69/48
f 43/69/48 44/44/38 20/46/17
f 40/50/3 41/70/5 8/51/43
f 38/53/40 2/71/42 1/54/44
f 13/22/21 47/24/23 18/57/46
f 46/56/45 28/72/18 18/57/46
s off
f 8/73/49 6/74/49 2/75/49
f 41/76/50 42/77/50 36/78/50
f 17/79/51 19/80/51 16/81/51
f 43/82/52 46/83/52 47/84/52
f 30/85/53 29/86/53 28/87/53
f 3/88/54 1/89/54 4/90/54
f 2/75/49 37/91/49 9/92/49
f 9/92/49 8/73/49 2/75/49
f 37/91/49 39/93/49 9/92/49
f 4/90/55 1/89/55 2/75/55
f 11/94/56 5/95/56 10/96/56
f 6/74/49 10/96/49 5/95/49
f 8/73/57 7/97/57 6/74/57
f 4/90/49 2/75/49 6/74/49
f 6/74/49 5/95/49 4/90/49
f 32/98/50 31/99/50 33/100/50
f 36/78/50 42/77/50 33/100/50
f 31/99/50 36/78/50 33/100/50
f 33/100/58 35/101/58 32/98/58
f 38/102/50 42/77/50 41/76/50
f 39/93/50 37/91/50 40/103/50
f 40/103/50 37/91/50 38/102/50
f 31/99/50 34/104/50 36/78/50
f 40/103/50 38/102/50 41/76/50
f 12/105/51 45/106/51 48/107/51
f 12/105/51 48/107/51 13/108/51
f 19/80/51 20/109/51 16/81/51
f 15/110/51 14/111/51 17/79/51
f 25/112/51 23/113/51 24/114/51
f 27/115/51 26/116/51 25/112/51
f 22/117/51 24/114/51 23/113/51
f 17/79/51 21/118/51 15/110/51
f 18/119/51 16/81/51 20/109/51
f 12/105/51 13/108/51 20/109/51
f 14/111/51 19/80/51 17/79/51
f 27/115/51 25/112/51 24/114/51
f 21/118/51 22/117/51 15/110/51
f 13/108/51 18/119/51 20/109/51
f 23/113/51 15/110/51 22/117/51
f 47/84/52 48/107/52 44/120/52
f 44/120/52 43/82/52 47/84/52
f 48/107/52 45/106/52 44/120/52
f 28/87/59 46/83/59 43/82/59
f 43/82/53 30/85/53 28/87/53
f 29/86/53 31/99/53 32/98/53
f 32/98/53 28/87/53 29/86/53
