# Blender v2.78 (sub 0) OBJ File: 'tempShipModel.blend'
# www.blender.org
o col.tempshiphull3Collision.000_Cube.026
v 1.413382 -0.885670 4.929013
v 1.421770 -0.948425 4.917818
v 1.429570 -0.976972 4.912726
v 1.512242 -1.279526 4.858750
v 1.541681 -1.552773 4.810003
v -1.609728 -1.552774 4.810003
v -1.580559 -1.279553 4.858746
v -1.498214 -0.976976 4.912725
v -1.490448 -0.948437 4.917816
v -1.482097 -0.885671 4.929013
v -1.447741 -0.879412 5.122192
v -1.381598 -0.863258 5.620830
v -1.208748 -0.838568 6.382929
v -1.171196 -0.835262 6.484997
v -0.786352 -0.791979 7.820991
v -0.636168 -0.765874 8.626782
v -0.548094 -0.764631 8.665179
v -0.547716 -0.764610 8.665825
v -0.376235 -0.755132 8.958369
v 0.318976 -0.755132 8.958358
v 0.319398 -0.755154 8.957693
v 0.505470 -0.764631 8.665164
v 0.574461 -0.765875 8.626764
v 0.703276 -0.791980 7.820971
v 1.099208 -0.835263 6.484966
v 1.137727 -0.838569 6.382896
v 1.311799 -0.863259 5.620791
v 1.378707 -0.879413 5.122153
v -1.260170 -1.921100 6.475357
v -1.108136 -2.017741 6.912305
v -0.878338 -2.202334 7.746915
v -0.805032 -2.296430 8.172369
v -0.517650 -2.322480 8.290158
v -0.516392 -2.322925 8.292162
v 0.509584 -2.322922 8.292150
v 0.510937 -2.322479 8.290144
v 0.735486 -2.296425 8.172348
v 0.797210 -2.202327 7.746893
v 1.033735 -2.017734 6.912273
v 1.189758 -1.921092 6.475322
vt 0.7389 0.1802
vt 0.7389 0.1802
vt 0.7389 0.1802
vt 0.7389 0.1802
vt 0.7389 0.1802
vt 0.7389 0.1802
vt 0.7389 0.1802
vt 0.8100 0.1816
vt 0.8100 0.1816
vt 0.8100 0.1816
vt 0.8100 0.1816
vt 0.8100 0.1816
vt 0.8100 0.1816
vt 0.8100 0.1816
vt 0.8446 0.1700
vt 0.8446 0.1700
vt 0.8446 0.1700
vt 0.8446 0.1700
vt 0.8446 0.1700
vt 0.8446 0.1700
vt 0.8882 0.5083
vt 0.8882 0.5083
vt 0.8882 0.5083
vt 0.0625 0.5109
vt 0.0625 0.5109
vt 0.0625 0.5109
vt 0.0625 0.5109
vt 0.0625 0.5109
vt 0.0625 0.5109
vt 0.0966 0.5194
vt 0.0966 0.5194
vt 0.0966 0.5194
vt 0.0966 0.5194
vt 0.0966 0.5194
vt 0.0966 0.5195
vt 0.0966 0.5195
vt 0.0966 0.5195
vt 0.1694 0.5123
vt 0.1694 0.5123
vt 0.1694 0.5123
vt 0.1694 0.5123
vt 0.1694 0.5123
vt 0.1694 0.5123
vt 0.1694 0.5123
vt 0.7389 0.1802
vt 0.1694 0.5123
vt 0.7389 0.1802
vt 0.8100 0.1816
vt 0.8446 0.1700
vt 0.8882 0.5083
vt 0.0625 0.5109
vt 0.0966 0.5194
vt 0.0966 0.5195
vt 0.1694 0.5123
vt 0.0000 0.0000
vt 0.0000 0.0000
vt 0.0000 0.0000
vt 0.0000 0.0000
vt 0.0000 0.0000
vt 0.0000 0.0000
vt 0.0000 0.0000
vt 0.0000 0.0000
vt 0.0000 0.0000
vt 0.0000 0.0000
vt 0.0000 0.0000
vt 0.0000 0.0000
vt 0.0000 0.0000
vt 0.0000 0.0000
vt 0.0000 0.0000
vt 0.0000 0.0000
vt 0.0000 0.0000
vt 0.0000 0.0000
vt 0.0000 0.0000
vt 0.0000 0.0000
vt 0.0000 0.0000
vt 0.0000 0.0000
vt 0.0000 0.0000
vt 0.0000 0.0000
vt 0.0000 0.0000
vt 0.0000 0.0000
vt 0.0000 0.0000
vt 0.0000 0.0000
vt 0.0000 0.0000
vt 0.0000 0.0000
vt 0.0000 0.0000
vt 0.0000 0.0000
vt 0.0000 0.0000
vt 0.0000 0.0000
vt 0.0000 0.0000
vt 0.0000 0.0000
vt 0.0000 0.0000
vt 0.0000 0.0000
vt 0.0000 0.0000
vt 0.0000 0.0000
vn -0.7102 0.2754 -0.6478
vn -0.6119 0.7888 0.0582
vn -0.6007 0.6383 -0.4814
vn -0.7084 0.3062 -0.6359
vn -0.7358 -0.6742 0.0642
vn -0.6719 0.7309 0.1194
vn -0.6734 -0.4245 -0.6052
vn -0.6442 0.7403 0.1921
vn -0.6714 0.7203 0.1743
vn -0.7115 -0.7003 0.0575
vn -0.6621 0.7379 0.1307
vn -0.6468 -0.6850 0.3352
vn -0.6007 0.5766 0.5537
vn -0.3988 -0.8725 0.2823
vn -0.4817 0.7315 0.4825
vn -0.4043 -0.7765 0.4834
vn -0.6557 0.6623 0.3624
vn -0.3781 0.4965 0.7813
vn 0.3597 0.5018 0.7866
vn 0.3988 -0.7750 0.4902
vn 0.6380 0.6673 0.3843
vn 0.4293 -0.8539 0.2940
vn 0.5036 0.7188 0.4793
vn 0.6306 0.5870 0.5077
vn 0.6702 -0.6807 0.2958
vn 0.6588 0.7422 0.1228
vn 0.7107 -0.7006 0.0631
vn 0.6422 0.7407 0.1972
vn 0.7359 -0.6736 0.0686
vn 0.6709 0.7199 0.1777
vn 0.6715 0.7311 0.1204
vn 0.6741 -0.4242 -0.6047
vn 0.6115 0.7890 0.0591
vn 0.7086 0.3070 -0.6352
vn 0.7105 0.2761 -0.6473
vn 0.6010 0.6384 -0.4809
vn -0.7710 0.2238 -0.5961
vn 0.7713 0.2245 -0.5955
vn -0.7146 -0.6995 0.0014
vn 0.7124 -0.7017 -0.0079
vn 0.0000 0.1756 -0.9845
vn -0.0000 0.9995 -0.0326
vn 0.0000 -0.9764 -0.2159
vn -0.0000 0.9995 -0.0324
vn -0.0000 0.9994 -0.0335
vn 0.0000 -0.9764 -0.2160
vn -0.0000 -0.9764 -0.2161
vn 0.0000 -0.9762 -0.2168
s 1
f 9/1/1 11/2/2 10/3/3
f 8/4/4 11/2/2 9/1/1
f 29/5/5 12/6/6 6/7/7
f 29/8/5 14/9/8 13/10/9
f 30/11/10 15/12/11 14/9/8
f 15/12/11 32/13/12 16/14/13
f 16/15/13 33/16/14 17/17/15
f 17/17/15 34/18/16 18/19/17
f 18/19/17 34/18/16 19/20/18
f 34/21/16 20/22/19 19/23/18
f 35/24/20 21/25/21 20/26/19
f 21/25/21 36/27/22 22/28/23
f 36/27/22 23/29/24 22/28/23
f 37/30/25 24/31/26 23/32/24
f 24/31/26 39/33/27 25/34/28
f 25/35/28 40/36/29 26/37/30
f 27/38/31 40/39/29 5/40/32
f 28/41/33 3/42/34 2/43/35
f 1/44/36 28/41/33 2/43/35
f 7/45/37 12/6/6 8/4/4
f 3/42/34 27/38/31 4/46/38
f 8/4/4 12/6/6 11/2/2
f 7/45/37 6/7/7 12/6/6
f 29/5/5 13/47/9 12/6/6
f 29/8/5 30/11/10 14/9/8
f 30/11/10 31/48/39 15/12/11
f 15/12/11 31/48/39 32/13/12
f 16/15/13 32/49/12 33/16/14
f 17/17/15 33/16/14 34/18/16
f 34/21/16 35/50/20 20/22/19
f 35/24/20 36/27/22 21/25/21
f 36/27/22 37/51/25 23/29/24
f 37/30/25 38/52/40 24/31/26
f 24/31/26 38/52/40 39/33/27
f 25/35/28 39/53/27 40/36/29
f 5/40/32 4/46/38 27/38/31
f 27/38/31 26/54/30 40/39/29
f 28/41/33 27/38/31 3/42/34
s off
f 3/55/41 7/56/41 8/57/41
f 18/58/42 22/59/42 17/60/42
f 33/61/43 31/62/43 38/63/43
f 10/64/41 1/65/41 2/66/41
f 3/55/41 4/67/41 7/56/41
f 10/64/41 2/66/41 9/68/41
f 9/68/41 2/66/41 3/55/41
f 4/67/41 5/69/41 6/70/41
f 6/70/41 7/56/41 4/67/41
f 8/57/41 9/68/41 3/55/41
f 1/65/44 10/64/44 28/71/44
f 11/72/44 12/73/44 27/74/44
f 12/73/44 26/75/44 27/74/44
f 28/71/44 10/64/44 11/72/44
f 26/75/44 13/76/44 25/77/44
f 25/77/44 13/76/44 14/78/44
f 28/71/44 11/72/44 27/74/44
f 15/79/44 16/80/44 17/60/44
f 13/76/44 26/75/44 12/73/44
f 24/81/44 14/78/44 15/79/44
f 22/59/44 23/82/44 24/81/44
f 20/83/45 21/84/45 19/85/45
f 18/58/44 19/85/44 21/84/44
f 15/79/44 17/60/44 24/81/44
f 25/77/44 14/78/44 24/81/44
f 21/84/44 22/59/44 18/58/44
f 17/60/44 22/59/44 24/81/44
f 6/70/46 5/69/46 40/86/46
f 6/70/46 40/86/46 29/87/46
f 30/88/46 29/87/46 39/89/46
f 33/61/43 32/90/43 31/62/43
f 31/62/46 30/88/46 38/63/46
f 40/86/46 39/89/46 29/87/46
f 38/63/46 37/91/46 36/92/46
f 36/92/47 35/93/47 33/61/47
f 33/61/46 38/63/46 36/92/46
f 35/93/48 34/94/48 33/61/48
f 39/89/46 38/63/46 30/88/46
