# Blender v2.78 (sub 0) OBJ File: 'PirateCube.blend'
# www.blender.org
o obj.pirateCube.000_Cube
v 0.432000 -0.820891 -0.432000
v 0.432000 -0.820891 0.432000
v -0.432000 -0.820891 0.432000
v -0.432000 -0.820891 -0.432000
v 0.432000 0.788545 -0.432000
v 0.432000 0.788545 0.432000
v -0.432000 0.788545 0.432000
v -0.432000 0.788545 -0.432000
vt 0.9999 0.0001
vt 0.7499 0.2501
vt 0.7499 0.0001
vt 0.7500 0.9656
vt 0.9999 0.7157
vt 0.9999 0.9656
vt 0.2500 0.2501
vt 0.0001 0.7157
vt 0.0001 0.2501
vt 0.9999 0.2500
vt 0.7500 0.7157
vt 0.5000 0.2501
vt 0.5000 0.7157
vt 0.2500 0.7157
vn 0.0000 -1.0000 0.0000
vn 0.0000 1.0000 0.0000
vn 1.0000 0.0000 0.0000
vn -0.0000 -0.0000 1.0000
vn -1.0000 -0.0000 -0.0000
vn 0.0000 0.0000 -1.0000
s off
f 1/1/1 3/2/1 4/3/1
f 8/4/2 6/5/2 5/6/2
f 1/7/3 6/8/3 2/9/3
f 6/5/4 3/2/4 2/10/4
f 7/11/5 4/12/5 3/2/5
f 1/7/6 8/13/6 5/14/6
f 1/1/1 2/10/1 3/2/1
f 8/4/2 7/11/2 6/5/2
f 1/7/3 5/14/3 6/8/3
f 6/5/4 7/11/4 3/2/4
f 7/11/5 8/13/5 4/12/5
f 1/7/6 4/12/6 8/13/6
