# Blender v2.78 (sub 0) OBJ File: 'roundedDoor.blend'
# www.blender.org
o obj.roundedDoor.000_Cube
v 0.512529 -0.913769 0.083534
v -0.512529 -0.913769 0.083534
v -0.512529 -0.913769 -0.083534
v 0.512529 -0.913769 -0.083534
v 0.512529 0.751337 0.083534
v -0.512529 0.751337 0.083534
v -0.512529 0.751337 -0.083534
v 0.512529 0.751337 -0.083534
v 0.307517 -0.913769 0.083534
v 0.102506 -0.913769 0.083534
v -0.102506 -0.913769 0.083534
v -0.307517 -0.913769 0.083534
v -0.307517 -0.913769 -0.083534
v -0.102506 -0.913769 -0.083534
v 0.102506 -0.913769 -0.083534
v 0.307518 -0.913769 -0.083534
v 0.307517 0.942012 0.083534
v 0.102506 1.034544 0.083534
v -0.102506 1.034544 0.083534
v -0.307518 0.942012 0.083534
v -0.307517 0.942012 -0.083534
v -0.102506 1.034544 -0.083534
v 0.102506 1.034544 -0.083534
v 0.307517 0.942012 -0.083534
vt 0.9813 0.9001
vt 0.9416 0.9893
vt 0.9416 0.9001
vt 0.9448 0.8922
vt 0.9863 0.9890
vt 0.9448 0.9890
vt 0.1954 0.0089
vt 0.0272 0.8500
vt 0.0272 0.0089
vt 0.9901 0.0174
vt 0.9514 0.4309
vt 0.9901 0.4309
vt 0.1959 0.0089
vt 0.0267 0.8492
vt 0.0278 0.0087
vt 0.9911 0.0158
vt 0.9441 0.4333
vt 0.9441 0.0158
vt 0.8673 0.8503
vt 0.7002 0.0095
vt 0.8683 0.0097
vt 0.6991 0.9463
vt 0.5321 0.0093
vt 0.5309 0.9928
vt 0.3640 0.0091
vt 0.1947 0.9457
vt 0.8683 0.8500
vt 0.7000 0.0089
vt 0.8683 0.0089
vt 0.7001 0.9463
vt 0.5318 0.0089
vt 0.5318 0.9930
vt 0.3636 0.0089
vt 0.1954 0.9463
vt 0.9448 0.5372
vt 0.9863 0.6340
vt 0.9448 0.6340
vt 0.9863 0.7211
vt 0.9448 0.7211
vt 0.9863 0.8051
vt 0.9448 0.8051
vt 0.9863 0.8922
vt 0.9813 0.5432
vt 0.9416 0.6324
vt 0.9416 0.5432
vt 0.9813 0.6324
vt 0.9416 0.7216
vt 0.9813 0.7216
vt 0.9416 0.8109
vt 0.9813 0.8109
vt 0.9813 0.9893
vt 0.9514 0.0174
vt 0.9911 0.4333
vt 0.3628 0.9926
vt 0.3636 0.9930
vt 0.9863 0.5372
vn 0.0000 -0.7071 0.7071
vn -0.5773 -0.5773 -0.5773
vn 0.0000 -0.7071 -0.7071
vn -0.4097 0.6164 0.6724
vn -0.7140 0.3110 -0.6273
vn -0.7140 0.3110 0.6273
vn -0.5773 -0.5773 0.5773
vn 0.7140 0.3110 -0.6273
vn 0.5773 -0.5773 -0.5773
vn 0.5773 -0.5773 0.5773
vn 0.7140 0.3110 0.6273
vn -0.4097 0.6164 -0.6724
vn -0.1576 0.7321 -0.6626
vn 0.4097 0.6164 -0.6724
vn 0.4097 0.6164 0.6724
vn 0.1576 0.7321 0.6626
vn 0.1576 0.7321 -0.6626
vn -0.1576 0.7321 0.6626
s 1
f 12/1/1 3/2/2 13/3/3
f 20/4/4 7/5/5 6/6/6
f 12/7/1 6/8/6 2/9/7
f 6/10/6 3/11/2 2/12/7
f 16/13/3 8/14/8 4/15/9
f 1/16/10 8/17/8 5/18/11
f 7/19/5 13/20/3 3/21/2
f 21/22/12 14/23/3 13/20/3
f 22/24/13 15/25/3 14/23/3
f 15/25/3 24/26/14 16/13/3
f 5/27/11 9/28/1 1/29/10
f 17/30/15 10/31/1 9/28/1
f 18/32/16 11/33/1 10/31/1
f 11/33/1 20/34/4 12/7/1
f 5/35/11 24/36/14 17/37/15
f 17/37/15 23/38/17 18/39/16
f 18/39/16 22/40/13 19/41/18
f 19/41/18 21/42/12 20/4/4
f 1/43/10 16/44/3 4/45/9
f 9/46/1 15/47/3 16/44/3
f 10/48/1 14/49/3 15/47/3
f 11/50/1 13/3/3 14/49/3
f 12/1/1 2/51/7 3/2/2
f 20/4/4 21/42/12 7/5/5
f 12/7/1 20/34/4 6/8/6
f 6/10/6 7/52/5 3/11/2
f 16/13/3 24/26/14 8/14/8
f 1/16/10 4/53/9 8/17/8
f 7/19/5 21/22/12 13/20/3
f 21/22/12 22/24/13 14/23/3
f 22/24/13 23/54/17 15/25/3
f 15/25/3 23/54/17 24/26/14
f 5/27/11 17/30/15 9/28/1
f 17/30/15 18/32/16 10/31/1
f 18/32/16 19/55/18 11/33/1
f 11/33/1 19/55/18 20/34/4
f 5/35/11 8/56/8 24/36/14
f 17/37/15 24/36/14 23/38/17
f 18/39/16 23/38/17 22/40/13
f 19/41/18 22/40/13 21/42/12
f 1/43/10 9/46/1 16/44/3
f 9/46/1 10/48/1 15/47/3
f 10/48/1 11/50/1 14/49/3
f 11/50/1 12/1/1 13/3/3
