# Blender v2.78 (sub 0) OBJ File: 'tempCannonModel.blend'
# www.blender.org
o obj.cannon.000_cannon
v 0.070814 -0.071903 0.099585
v 0.070814 0.069509 0.099652
v 0.000096 0.108982 0.017389
v -0.070621 0.069509 0.099652
v -0.110007 -0.001103 0.017337
v 0.000096 -0.111154 -0.056641
v 0.077951 0.076774 -0.056553
v -0.110007 -0.001068 -0.056589
v 0.042424 -0.043310 -0.470886
v 0.000096 0.058863 -0.470838
v -0.042232 0.041333 -0.470847
v -0.042232 -0.043310 -0.470886
v 0.000096 -0.021881 0.140924
v 0.014711 -0.015829 0.140926
v 0.020764 -0.001217 0.140933
v 0.014711 0.013395 0.140940
v 0.000096 0.019448 0.140943
v -0.014518 0.013395 0.140940
v -0.020572 -0.001217 0.140933
v -0.014518 -0.015829 0.140926
v -0.119391 -0.074050 -0.056633
v -0.123151 -0.192623 0.072956
v -0.123151 -0.192536 -0.112351
v 0.118704 -0.074935 0.017292
v 0.119429 0.002907 0.017329
v 0.125481 -0.192963 0.073548
v 0.127309 0.003497 -0.112854
v 0.000096 -0.101191 0.099571
v 0.000096 -0.111188 0.017285
v 0.077951 -0.078945 0.017300
v 0.100106 -0.001197 0.099618
v 0.110199 -0.001103 0.017337
v 0.077951 0.076739 0.017373
v 0.000096 0.098796 0.099665
v -0.077758 0.076739 0.017373
v -0.099913 -0.001197 0.099618
v -0.070621 -0.071903 0.099585
v -0.077758 -0.078945 0.017300
v 0.110199 -0.001068 -0.056589
v 0.077951 -0.078910 -0.056626
v -0.077758 -0.078910 -0.056626
v -0.077758 0.076774 -0.056553
v 0.000096 0.109017 -0.056538
v 0.000096 -0.060840 -0.470895
v 0.059957 -0.000988 -0.470866
v 0.042424 0.041333 -0.470847
v -0.059765 -0.000988 -0.470866
v -0.119391 -0.074085 0.017293
v -0.119607 0.003758 0.017330
v -0.119607 0.003792 -0.056596
v -0.123693 0.002500 0.073048
v -0.123693 0.002587 -0.112260
v 0.119429 0.002942 -0.056598
v 0.118704 -0.074900 -0.056634
v 0.127309 0.003409 0.073640
v 0.125481 -0.192875 -0.112946
v 0.157502 0.003128 0.073640
v 0.155674 -0.193244 0.073548
v 0.157502 0.003216 -0.112854
v 0.155674 -0.193156 -0.112946
v -0.155456 -0.192713 0.072956
v -0.155998 0.002410 0.073048
v -0.155456 -0.192626 -0.112351
v -0.155998 0.002498 -0.112260
vt 0.9181 0.1657
vt 0.8402 0.0893
vt 0.9106 0.0800
vt 0.7717 0.0691
vt 0.8300 0.1657
vt 0.4824 0.1638
vt 0.3966 0.0918
vt 0.4681 0.0760
vt 0.3950 0.1686
vt 0.3225 0.0791
vt 0.3079 0.1413
vt 0.2124 0.2049
vt 0.2337 0.1312
vt 0.1298 0.1740
vt 0.1702 0.0944
vt 0.1054 0.2489
vt 0.6474 0.0885
vt 0.5672 0.1633
vt 0.5768 0.0775
vt 0.7165 0.0700
vt 0.6556 0.1655
vt 0.4112 0.0004
vt 0.9181 0.2428
vt 0.8502 0.6778
vt 0.8300 0.2428
vt 0.1189 0.1704
vt 0.0944 0.2453
vt 0.5653 0.2408
vt 0.4837 0.2432
vt 0.4932 0.1636
vt 0.4945 0.2430
vt 0.3946 0.2427
vt 0.3079 0.2417
vt 0.3104 0.1644
vt 0.2938 0.2259
vt 0.1892 0.2751
vt 0.2181 0.7422
vt 0.2181 0.7931
vt 0.3408 0.7422
vt 0.3381 0.6784
vt 0.6538 0.2430
vt 0.6805 0.6854
vt 0.7420 0.2513
vt 0.3962 0.6763
vt 0.0553 0.6865
vt 0.0000 0.6707
vt 0.7928 0.6824
vt 0.7420 0.2490
vt 0.1099 0.7063
vt 0.6230 0.6794
vt 0.5653 0.6774
vt 0.2305 0.8715
vt 0.2181 0.8590
vt 0.2305 0.8291
vt 0.8472 0.0067
vt 0.8629 0.0033
vt 0.3952 0.0054
vt 0.2623 0.0498
vt 0.2792 0.0504
vt 0.2489 0.0392
vt 0.6587 0.0000
vt 0.6436 0.0054
vt 0.8323 0.0000
vt 0.0864 0.8502
vt 0.0014 0.9122
vt 0.2181 0.9119
vt 0.9284 0.5146
vt 0.9293 0.4329
vt 0.9181 0.4288
vt 0.9749 0.5146
vt 0.9284 0.5966
vt 0.9293 0.6783
vt 0.9749 0.5966
vt 0.4347 0.9481
vt 0.2181 0.9122
vt 0.4347 0.9122
vt 0.0514 0.3113
vt 0.0864 0.7683
vt 0.0014 0.7063
vt 0.0000 0.7682
vt 0.3473 0.6784
vt 0.4341 0.7417
vt 0.5653 0.6794
vt 0.9293 0.0033
vt 0.9279 0.0855
vt 0.9181 0.0000
vt 0.9293 0.2492
vt 0.9279 0.1671
vt 0.9181 0.2528
vt 0.9732 0.1671
vt 0.9732 0.0855
vt 0.2181 0.9481
vt 0.4361 0.9816
vt 0.4361 0.9481
vt 0.4341 0.8237
vt 0.5163 0.3193
vt 0.3473 0.8871
vt 0.3476 0.8241
vt 0.5653 0.6854
vt 0.7833 0.8921
vt 0.5653 0.8921
vt 0.8609 0.9481
vt 0.6428 0.9816
vt 0.8609 0.9816
vt 0.5113 0.0170
vt 0.5653 0.3185
vt 1.0000 0.6854
vt 0.7833 0.8908
vt 1.0000 0.8908
vt 0.0963 0.0000
vt 0.0000 0.2945
vt 0.6401 0.9122
vt 0.6401 0.9481
vt 0.8568 0.9122
vt 0.7497 0.1471
vt 0.7366 0.1487
vt 0.9076 0.6773
vt 0.2728 0.3011
vt 0.3049 0.8291
vt 0.3408 0.7931
vt 0.2540 0.8291
vt 0.3049 0.7063
vt 0.2540 0.7063
vt 0.4539 0.6784
vt 0.2480 0.8291
vt 0.2604 0.8415
vt 0.2604 0.8590
vt 0.2480 0.8715
vt 0.2181 0.8415
vt 0.3789 0.0000
vt 0.6278 0.0007
vt 0.0000 0.8503
vt 0.9181 0.6824
vt 0.2181 0.9481
vt 0.1477 0.0168
vt 0.2181 0.7065
vt 0.3476 0.7413
vt 0.2181 0.9816
vt 0.5653 0.8861
vt 0.7833 0.6854
vt 0.6428 0.9481
vt 0.5603 0.0162
vt 0.7833 0.6854
vt 0.8568 0.9481
vn 0.0000 -0.9982 0.0593
vn -0.0309 -0.6133 0.7892
vn 0.0000 -0.8533 0.5213
vn 0.4107 0.4550 0.7901
vn -0.0164 -0.9626 0.2705
vn 0.2037 0.7860 0.5837
vn 0.6030 0.6027 0.5225
vn 0.7057 0.7059 0.0606
vn 0.0000 0.8525 0.5227
vn -0.7057 0.7059 0.0606
vn -0.6030 0.6027 0.5225
vn -0.8642 -0.1394 0.4834
vn -0.8529 -0.0003 0.5220
vn -0.6607 0.1092 0.7427
vn -0.6031 -0.6035 0.5216
vn -0.4703 -0.8496 0.2386
vn 0.2920 -0.0004 0.9564
vn 0.0000 -0.9982 -0.0598
vn 0.5217 -0.5215 -0.6752
vn 0.4763 -0.8698 0.1286
vn -0.8653 0.4210 0.2719
vn -0.8492 0.4136 0.3283
vn 0.7828 0.4407 0.4392
vn 0.1616 0.9655 0.2041
vn 0.1580 0.9430 0.2929
vn 0.7058 0.7059 -0.0592
vn 0.0000 0.9982 -0.0591
vn 0.0000 0.9981 0.0609
vn -0.7058 0.7059 -0.0592
vn -0.5217 0.5220 -0.6748
vn 0.0000 0.7380 -0.6747
vn 0.0000 -0.7376 -0.6752
vn 0.0093 -0.9637 0.2666
vn 0.0002 0.4631 -0.8863
vn 0.5217 0.5220 -0.6748
vn 0.7378 0.0002 -0.6750
vn 0.3271 -0.3269 -0.8866
vn 0.0000 0.2916 0.9565
vn -0.2065 0.2061 0.9565
vn -0.2065 -0.2070 0.9563
vn 0.2065 -0.2070 0.9563
vn 0.0000 -0.2925 0.9562
vn 0.2065 0.2061 0.9565
vn -0.2920 -0.0004 0.9564
vn -0.8965 -0.2761 0.3463
vn -0.5932 0.6026 -0.5339
vn -0.5779 0.5895 -0.5644
vn -0.9174 -0.2826 0.2800
vn 0.5757 0.5792 -0.5771
vn -0.5659 0.5748 -0.5910
vn 0.5326 0.5822 0.6142
vn 0.8863 -0.2702 0.3761
vn 0.5729 -0.5568 0.6015
vn 0.9261 -0.2824 0.2500
vn 0.5327 0.5828 -0.6137
vn 0.5719 -0.5824 -0.5776
vn 0.5728 -0.5562 -0.6020
vn 0.5827 0.5722 -0.5771
vn 0.5719 -0.5830 0.5771
vn 0.5827 0.5717 0.5776
vn -0.5702 0.5816 -0.5802
s 1
f 29/1/1 1/2/2 28/3/3
f 31/4/4 30/5/5 1/2/2
f 32/6/6 2/7/7 31/8/4
f 33/9/8 34/10/9 2/7/7
f 34/11/9 35/12/10 4/13/11
f 4/13/11 5/14/12 36/15/13
f 35/12/10 8/16/14 5/14/12
f 37/17/15 29/18/1 28/19/3
f 36/20/13 38/21/16 37/17/15
f 2/7/7 15/22/17 31/8/4
f 6/23/18 9/24/19 40/25/20
f 8/16/14 49/26/21 50/27/22
f 38/21/16 6/28/18 29/18/1
f 39/29/23 25/30/24 53/31/25
f 32/6/6 7/32/26 33/9/8
f 30/5/5 6/23/18 40/25/20
f 33/9/8 43/33/27 3/34/28
f 3/35/28 42/36/29 35/12/10
f 11/37/30 10/38/31 44/39/32
f 7/32/26 10/40/31 43/33/27
f 41/41/33 47/42/34 8/43/14
f 39/29/23 46/44/35 7/32/26
f 8/16/14 11/45/30 47/46/34
f 40/25/20 45/47/36 39/48/23
f 42/36/29 10/49/31 11/45/30
f 6/28/18 12/50/37 44/51/32
f 17/52/38 18/53/39 20/54/40
f 28/3/3 14/55/41 13/56/42
f 34/10/9 16/57/43 2/7/7
f 34/11/9 18/58/39 17/59/38
f 4/13/11 19/60/44 18/58/39
f 37/17/15 19/61/44 36/20/13
f 28/19/3 20/62/40 37/17/15
f 1/2/2 15/63/17 14/55/41
f 21/64/45 52/65/46 23/66/47
f 21/67/45 8/68/14 50/69/22
f 41/70/33 48/71/48 21/67/45
f 5/72/12 48/71/48 38/73/16
f 63/74/49 52/75/46 23/76/47
f 52/77/46 49/26/21 50/27/22
f 23/66/47 48/78/48 21/64/45
f 48/78/48 51/79/50 49/80/21
f 27/81/51 54/82/52 56/83/53
f 32/84/6 24/85/54 25/86/24
f 39/87/23 54/88/52 53/89/25
f 40/90/20 24/85/54 30/91/5
f 55/92/55 58/93/56 26/94/57
f 24/95/54 56/83/53 54/82/52
f 25/30/24 27/96/51 53/31/25
f 55/97/55 24/95/54 25/98/24
f 57/99/58 60/100/59 59/101/60
f 27/102/51 60/103/59 59/104/60
f 26/94/57 60/103/59 58/93/56
f 55/105/55 59/106/60 27/96/51
f 63/107/49 62/108/49 61/109/49
f 62/110/49 52/77/46 64/111/49
f 63/74/49 22/112/61 23/76/47
f 61/113/49 51/114/50 22/112/61
f 29/1/1 30/5/5 1/2/2
f 31/4/4 32/115/6 30/5/5
f 32/6/6 33/9/8 2/7/7
f 33/9/8 3/34/28 34/10/9
f 34/11/9 3/35/28 35/12/10
f 4/13/11 35/12/10 5/14/12
f 35/12/10 42/36/29 8/16/14
f 37/17/15 38/21/16 29/18/1
f 36/20/13 5/116/12 38/21/16
f 2/7/7 16/57/43 15/22/17
f 6/23/18 44/117/32 9/24/19
f 8/16/14 5/14/12 49/26/21
f 38/21/16 41/41/33 6/28/18
f 39/29/23 32/6/6 25/30/24
f 32/6/6 39/29/23 7/32/26
f 30/5/5 29/1/1 6/23/18
f 33/9/8 7/32/26 43/33/27
f 3/35/28 43/118/27 42/36/29
f 45/119/36 9/120/19 46/121/35
f 44/39/32 12/122/37 11/37/30
f 47/123/34 11/37/30 12/122/37
f 10/38/31 46/121/35 44/39/32
f 9/120/19 44/39/32 46/121/35
f 7/32/26 46/44/35 10/40/31
f 41/41/33 12/50/37 47/42/34
f 39/29/23 45/124/36 46/44/35
f 8/16/14 42/36/29 11/45/30
f 40/25/20 9/24/19 45/47/36
f 42/36/29 43/118/27 10/49/31
f 6/28/18 41/41/33 12/50/37
f 20/54/40 13/125/42 17/52/38
f 14/126/41 15/127/17 16/128/43
f 16/128/43 17/52/38 13/125/42
f 18/53/39 19/129/44 20/54/40
f 13/125/42 14/126/41 16/128/43
f 28/3/3 1/2/2 14/55/41
f 34/10/9 17/130/38 16/57/43
f 34/11/9 4/13/11 18/58/39
f 4/13/11 36/15/13 19/60/44
f 37/17/15 20/62/40 19/61/44
f 28/19/3 13/131/42 20/62/40
f 1/2/2 31/4/4 15/63/17
f 21/64/45 50/132/22 52/65/46
f 21/67/45 41/70/33 8/68/14
f 41/70/33 38/73/16 48/71/48
f 5/72/12 49/133/21 48/71/48
f 63/74/49 64/134/49 52/75/46
f 52/77/46 51/135/50 49/26/21
f 23/66/47 22/136/61 48/78/48
f 48/78/48 22/136/61 51/79/50
f 27/81/51 53/137/25 54/82/52
f 32/84/6 30/91/5 24/85/54
f 39/87/23 40/90/20 54/88/52
f 40/90/20 54/88/52 24/85/54
f 55/92/55 57/138/58 58/93/56
f 24/95/54 26/139/57 56/83/53
f 25/30/24 55/105/55 27/96/51
f 55/97/55 26/139/57 24/95/54
f 57/99/58 58/140/56 60/100/59
f 27/102/51 56/141/53 60/103/59
f 26/94/57 56/141/53 60/103/59
f 55/105/55 57/142/58 59/106/60
f 63/107/49 64/143/49 62/108/49
f 62/110/49 51/135/50 52/77/46
f 63/74/49 61/113/49 22/112/61
f 61/113/49 62/144/49 51/114/50
