# Blender v2.78 (sub 0) OBJ File: 'anchor.blend'
# www.blender.org
o obj.anchor.000_Cube
v 0.027702 0.204903 -0.034930
v 0.027702 0.291739 -0.034930
v 0.034686 0.323085 0.011409
v 0.042066 0.306367 0.017657
v -0.269008 0.247544 -0.258928
v -0.269008 0.292865 -0.258928
v 0.060445 0.381652 0.033217
v 0.075185 0.381667 0.045696
v 0.034614 0.440164 0.011349
v 0.041974 0.456897 0.017580
v -0.016976 0.440110 -0.032328
v -0.024356 0.456828 -0.038576
v 0.297588 0.292865 0.220753
v 0.297588 0.247544 0.220753
v -0.042735 0.381543 -0.054135
v -0.057475 0.381528 -0.066614
v -0.016905 0.323031 -0.032267
v -0.024264 0.306298 -0.038498
v 0.003880 -0.336916 -0.033469
v 0.032370 -0.336916 -0.009349
v 0.003880 0.336916 -0.033469
v 0.032370 0.336916 -0.009349
v 0.018024 -0.349475 -0.050176
v 0.046514 -0.349475 -0.026056
v 0.018024 -0.399710 -0.050176
v 0.046514 -0.399710 -0.026056
v 0.045845 -0.353378 -0.082721
v 0.074022 -0.353378 -0.058866
v 0.064435 -0.390327 -0.104680
v 0.091792 -0.390579 -0.079855
v 0.097175 -0.338499 -0.143351
v 0.125352 -0.338499 -0.119496
v 0.118636 -0.364527 -0.168701
v 0.146813 -0.364527 -0.144846
v 0.142917 -0.287379 -0.197381
v 0.171094 -0.287379 -0.173526
v 0.159568 -0.314412 -0.217050
v 0.187746 -0.314412 -0.193195
v 0.162029 -0.247367 -0.219957
v 0.190206 -0.247367 -0.196102
v 0.182978 -0.265910 -0.244701
v 0.211155 -0.265910 -0.220846
v 0.144094 -0.229565 -0.198772
v 0.172272 -0.229565 -0.174917
v 0.217102 -0.258307 -0.285008
v 0.245279 -0.258307 -0.261153
v 0.196905 -0.088110 -0.244401
v 0.208561 -0.088110 -0.234533
v 0.202928 -0.089566 -0.251515
v 0.214584 -0.089566 -0.241647
v -0.029881 0.204903 0.033086
v -0.029881 0.291739 0.033086
v 0.016976 0.323085 0.032328
v 0.024356 0.306367 0.038576
v -0.299766 0.247544 -0.222597
v -0.299766 0.292865 -0.222597
v 0.042735 0.381652 0.054135
v 0.057475 0.381667 0.066614
v 0.016905 0.440164 0.032267
v 0.024264 0.456897 0.038498
v -0.034686 0.440110 -0.011409
v -0.042066 0.456828 -0.017657
v 0.266830 0.292865 0.257084
v 0.266830 0.247544 0.257084
v -0.060445 0.381543 -0.033217
v -0.075185 0.381528 -0.045696
v -0.034614 0.323031 -0.011349
v -0.041974 0.306298 -0.017580
v -0.032370 -0.336916 0.009349
v -0.003880 -0.336916 0.033469
v -0.032370 0.336916 0.009349
v -0.003880 0.336916 0.033469
v -0.046514 -0.349475 0.026056
v -0.018024 -0.349475 0.050176
v -0.046514 -0.399710 0.026056
v -0.018024 -0.399710 0.050176
v -0.074022 -0.353378 0.058866
v -0.045845 -0.353378 0.082721
v -0.100356 -0.389761 0.089971
v -0.072179 -0.389761 0.113826
v -0.136385 -0.330846 0.132528
v -0.108207 -0.330846 0.156383
v -0.146813 -0.364527 0.144846
v -0.118636 -0.364527 0.168701
v -0.171094 -0.287379 0.173526
v -0.142917 -0.287379 0.197381
v -0.187746 -0.314412 0.193195
v -0.159568 -0.314412 0.217050
v -0.190206 -0.247367 0.196102
v -0.162029 -0.247367 0.219957
v -0.211155 -0.265910 0.220846
v -0.182978 -0.265910 0.244701
v -0.172272 -0.229565 0.174917
v -0.144094 -0.229565 0.198772
v -0.245279 -0.258307 0.261153
v -0.217102 -0.258307 0.285008
v -0.208561 -0.088110 0.234533
v -0.196905 -0.088110 0.244401
v -0.214584 -0.089566 0.241647
v -0.202928 -0.089566 0.251515
vt 0.9149 0.9861
vt 0.9542 0.9427
vt 0.9220 0.9985
vt 0.4579 0.8031
vt 0.1256 0.8281
vt 0.1275 0.7871
vt 0.7881 0.7869
vt 0.4577 0.7316
vt 0.7881 0.7477
vt 0.9399 0.9427
vt 0.9220 0.8869
vt 0.2226 0.1744
vt 0.2752 0.1278
vt 0.2605 0.1744
vt 0.8648 0.8993
vt 0.9149 0.8993
vt 0.8397 0.9427
vt 0.8576 0.8869
vt 0.7899 0.8280
vt 0.4579 0.8805
vt 0.8576 0.9985
vt 0.8254 0.9427
vt 0.8648 0.9861
vt 0.9941 0.9997
vt 0.9665 0.5003
vt 0.9941 0.5003
vt 0.4024 0.0345
vt 0.3734 0.0070
vt 0.4024 0.0068
vt 0.4198 0.0068
vt 0.9317 0.1035
vt 0.8938 0.0758
vt 0.9317 0.0758
vt 0.3187 0.0344
vt 0.3187 0.0070
vt 0.6530 0.0352
vt 0.6051 0.0076
vt 0.6530 0.0075
vt 0.6043 0.0350
vt 0.5446 0.0076
vt 0.5446 0.0350
vt 0.4880 0.0076
vt 0.2577 0.0344
vt 0.2577 0.0070
vt 0.4880 0.0350
vt 0.4445 0.0076
vt 0.2220 0.0070
vt 0.8309 0.6646
vt 0.8035 0.6417
vt 0.8309 0.6417
vt 0.8035 0.3573
vt 0.8309 0.3934
vt 0.8035 0.3934
vt 0.8061 0.5274
vt 0.7947 0.5210
vt 0.8061 0.5210
vt 0.8229 0.5270
vt 0.8116 0.5206
vt 0.2641 0.9851
vt 0.2140 0.9666
vt 0.2641 0.9666
vt 0.9165 0.7786
vt 0.9561 0.8218
vt 0.9418 0.8219
vt 0.6046 0.9838
vt 0.6690 0.9654
vt 0.6690 0.9838
vt 0.1256 0.7068
vt 0.1275 0.7478
vt 0.0403 0.9548
vt 0.1096 0.8822
vt 0.1096 0.9548
vt 0.2140 0.9851
vt 0.1639 0.9666
vt 0.9241 0.8778
vt 0.9169 0.8654
vt 0.5402 0.9654
vt 0.6046 0.9654
vt 0.1138 0.9851
vt 0.1138 0.9666
vt 0.8668 0.8656
vt 0.4757 0.9838
vt 0.4757 0.9654
vt 0.4600 0.8980
vt 0.7936 0.9536
vt 0.4600 0.9367
vt 0.0426 0.8741
vt 0.1119 0.8016
vt 0.1119 0.8741
vt 0.0637 0.9666
vt 0.8597 0.8780
vt 0.8416 0.8223
vt 0.4113 0.9654
vt 0.1256 0.8812
vt 0.4593 0.9367
vt 0.1256 0.9536
vt 0.7899 0.7066
vt 0.0637 0.9851
vt 0.0136 0.9666
vt 0.8272 0.8223
vt 0.8664 0.7788
vt 0.4113 0.9838
vt 0.3469 0.9654
vt 0.3142 0.9851
vt 0.3142 0.9666
vt 0.8592 0.7664
vt 0.7334 0.9838
vt 0.7334 0.9654
vt 0.9941 0.0003
vt 0.9665 0.4997
vt 0.9665 0.0003
vt 0.0526 0.0067
vt 0.0236 0.0342
vt 0.0236 0.0065
vt 0.0062 0.0342
vt 0.0062 0.0065
vt 0.7204 0.0075
vt 0.8057 0.1346
vt 0.8407 0.1732
vt 0.7872 0.1622
vt 0.7772 0.0076
vt 0.7204 0.0352
vt 0.1198 0.0067
vt 0.0526 0.0340
vt 0.8292 0.0076
vt 0.7772 0.0350
vt 0.8858 0.0076
vt 0.8292 0.0350
vt 0.1683 0.0340
vt 0.1198 0.0340
vt 0.9292 0.0076
vt 0.8858 0.0350
vt 0.2040 0.0067
vt 0.1683 0.0067
vt 0.8315 0.6417
vt 0.8588 0.6646
vt 0.8315 0.6646
vt 0.8588 0.3573
vt 0.8315 0.3934
vt 0.8315 0.3573
vt 0.8395 0.5270
vt 0.8508 0.5206
vt 0.8508 0.5270
vt 0.8588 0.6417
vt 0.8588 0.3934
vt 0.8395 0.5206
vt 0.0578 0.2407
vt 0.0765 0.2539
vt 0.0298 0.3590
vt 0.0236 0.3579
vt 0.0359 0.2270
vt 0.0603 0.1910
vt 0.0777 0.2111
vt 0.0003 0.2326
vt 0.1030 0.1539
vt 0.1596 0.1348
vt 0.2079 0.1278
vt 0.1790 0.1622
vt 0.3316 0.1352
vt 0.3041 0.1622
vt 0.3801 0.1539
vt 0.4228 0.1910
vt 0.3692 0.1789
vt 0.4472 0.2270
vt 0.4828 0.2326
vt 0.4253 0.2407
vt 0.4596 0.3579
vt 0.4533 0.3590
vt 0.4066 0.2539
vt 0.2079 0.1651
vt 0.1254 0.1732
vt 0.4054 0.2111
vt 0.2605 0.6738
vt 0.2226 0.6738
vt 0.2752 0.1651
vt 0.9665 0.9997
vt 0.3734 0.0344
vt 0.4198 0.0345
vt 0.8938 0.1035
vt 0.4445 0.0350
vt 0.2220 0.0344
vt 0.8035 0.6646
vt 0.8309 0.3573
vt 0.7947 0.5274
vt 0.8116 0.5270
vt 0.8229 0.5206
vt 0.9237 0.7662
vt 0.4577 0.6542
vt 0.0403 0.8822
vt 0.1639 0.9851
vt 0.5402 0.9838
vt 0.7936 0.8812
vt 0.0426 0.8016
vt 0.4593 0.8980
vt 0.0136 0.9851
vt 0.3469 0.9838
vt 0.9941 0.4997
vt 0.7436 0.1744
vt 0.7436 0.6738
vt 0.7057 0.6738
vt 0.7057 0.1744
vt 0.7583 0.1651
vt 0.7583 0.1278
vt 0.6910 0.1278
vt 0.5408 0.2407
vt 0.5596 0.2539
vt 0.5129 0.3590
vt 0.5066 0.3579
vt 0.5190 0.2270
vt 0.5434 0.1910
vt 0.5608 0.2111
vt 0.4834 0.2326
vt 0.5861 0.1539
vt 0.5970 0.1789
vt 0.6346 0.1352
vt 0.6621 0.1622
vt 0.8631 0.1539
vt 0.9059 0.1910
vt 0.8885 0.2111
vt 0.9303 0.2270
vt 0.9659 0.2326
vt 0.9084 0.2407
vt 0.9426 0.3579
vt 0.9364 0.3590
vt 0.8897 0.2539
vt 0.6910 0.1651
vt 0.9292 0.0350
vt 0.2040 0.0340
vn 0.3337 0.4715 -0.8162
vn 0.9989 0.0006 0.0464
vn 0.6969 -0.6859 -0.2092
vn 0.4652 0.6941 -0.5494
vn -0.1092 -0.5426 -0.8328
vn -0.0895 0.5813 -0.8087
vn 0.8124 0.5813 -0.0451
vn -0.4652 0.6941 0.5494
vn 0.0895 0.5813 0.8087
vn 0.1261 -0.0004 -0.9920
vn 0.6961 0.6865 -0.2099
vn -0.3361 0.2727 -0.9015
vn -0.5583 -0.7182 -0.4153
vn -0.9446 0.2727 -0.1827
vn 0.7500 -0.4715 -0.4638
vn 0.3343 -0.4719 -0.8158
vn 0.9576 0.0004 -0.2881
vn 0.0913 0.6859 -0.7219
vn 0.8394 -0.5426 -0.0297
vn 0.4489 -0.7192 -0.5303
vn 0.0922 -0.6865 -0.7212
vn -0.2106 -0.0006 -0.9775
vn 0.7494 0.4719 -0.4643
vn -0.0676 0.5773 -0.8137
vn 0.9446 0.2727 0.1827
vn 0.7068 0.6207 0.3393
vn -0.5830 0.6734 -0.4545
vn -0.4512 0.6207 -0.6411
vn 0.0676 0.5773 0.8137
vn -0.8137 0.5773 0.0676
vn 0.4142 0.5976 0.6865
vn -0.7455 0.5976 -0.2952
vn -0.4982 -0.7190 -0.4845
vn 0.6245 -0.7085 0.3284
vn 0.5600 -0.7190 0.4115
vn -0.4247 -0.7083 -0.5638
vn 0.7333 -0.6589 0.1674
vn -0.2860 -0.6588 -0.6958
vn 0.8583 -0.5118 0.0371
vn 0.2635 0.4756 0.8393
vn -0.8712 0.4756 -0.1214
vn -0.1783 -0.5118 -0.8404
vn 0.8100 -0.5108 0.2880
vn -0.9555 -0.0424 -0.2919
vn -0.0342 -0.2038 0.9784
vn -0.9593 -0.2038 0.1952
vn -0.0178 -0.4561 -0.8897
vn 0.8805 -0.4561 -0.1292
vn -0.6750 0.7326 -0.0869
vn 0.7983 0.5999 -0.0530
vn -0.0794 0.5999 -0.7961
vn -0.7500 0.4715 0.4638
vn 0.2106 0.0006 0.9775
vn -0.9576 -0.0004 0.2881
vn -0.0913 -0.6859 0.7219
vn -0.8394 -0.5426 0.0297
vn -0.8124 0.5813 0.0451
vn -0.0922 0.6865 0.7212
vn -0.7494 -0.4719 0.4643
vn -0.3337 -0.4715 0.8162
vn -0.6970 0.6859 0.2092
vn -0.4489 -0.7192 0.5303
vn -0.1261 0.0004 0.9920
vn -0.9989 -0.0006 -0.0464
vn 0.1092 -0.5426 0.8328
vn -0.3343 0.4719 0.8158
vn -0.6961 -0.6865 0.2099
vn 0.3361 0.2727 0.9015
vn -0.5391 0.6667 -0.5145
vn 0.4512 0.6207 0.6411
vn -0.7068 0.6207 -0.3393
vn 0.5017 -0.7182 0.4821
vn 0.5445 0.6734 0.5000
vn 0.4145 -0.7112 0.5678
vn -0.3967 0.5827 -0.7092
vn 0.5964 0.6667 0.4469
vn 0.2818 -0.6489 0.7068
vn -0.6284 -0.7112 -0.3151
vn 0.1783 -0.5118 0.8404
vn -0.7436 -0.6489 -0.1613
vn 0.8779 0.4675 0.1032
vn 0.7650 0.5827 0.2742
vn 0.4177 -0.5108 0.7513
vn -0.8583 -0.5118 -0.0371
vn -0.4456 -0.0424 -0.8942
vn -0.2467 0.4675 -0.8488
vn 0.0342 -0.2038 -0.9784
vn 0.9555 -0.0424 0.2919
vn -0.8805 -0.4561 0.1292
vn -0.8100 -0.5108 -0.2880
vn -0.1971 0.7326 -0.6514
vn 0.0794 0.5999 0.7961
vn 0.6750 0.7326 0.0869
vn 0.9593 -0.2038 -0.1952
vn 0.0178 -0.4561 0.8897
vn -0.7983 0.5999 0.0530
vn -0.4177 -0.5108 -0.7513
vn 0.8137 0.5773 -0.0676
vn 0.4456 -0.0424 0.8942
vn 0.1971 0.7326 0.6514
s 1
f 3/1/1 8/2/2 4/3/3
f 2/4/4 5/5/5 6/6/6
f 13/7/7 52/8/8 63/9/9
f 7/10/10 10/11/11 8/2/2
f 19/12/12 75/13/13 69/14/14
f 11/15/15 10/11/11 9/16/16
f 15/17/17 12/18/18 11/15/15
f 2/4/4 14/19/19 1/20/20
f 15/17/17 18/21/21 16/22/22
f 3/1/1 18/21/21 17/23/23
f 21/24/24 20/25/25 19/26/12
f 24/27/26 27/28/27 23/29/28
f 19/30/12 24/27/26 23/29/28
f 72/31/29 21/32/24 71/33/30
f 27/28/27 32/34/31 31/35/32
f 25/36/33 30/37/34 26/38/35
f 29/39/36 34/40/37 30/37/34
f 33/41/38 38/42/39 34/40/37
f 31/35/32 36/43/40 35/44/41
f 37/45/42 42/46/43 38/42/39
f 36/43/40 39/47/44 35/44/41
f 39/48/44 44/49/45 43/50/46
f 42/51/43 45/52/47 46/53/48
f 47/54/49 50/55/50 49/56/51
f 44/49/45 47/57/49 43/50/46
f 45/52/47 50/58/50 46/53/48
f 53/59/52 7/60/10 3/61/1
f 53/62/52 58/63/53 57/64/54
f 8/65/2 54/66/55 4/67/3
f 55/68/56 52/8/8 56/69/57
f 6/70/6 55/71/56 56/72/57
f 57/73/54 9/74/16 7/60/10
f 57/64/54 60/75/58 59/76/59
f 8/65/2 60/77/58 58/78/53
f 9/74/16 61/79/60 11/80/15
f 60/75/58 61/81/60 59/76/59
f 60/77/58 12/82/18 62/83/61
f 5/84/5 51/85/62 55/86/56
f 63/87/9 14/88/19 13/89/7
f 61/79/60 15/90/17 11/80/15
f 62/91/61 65/92/63 61/81/60
f 12/82/18 66/93/64 62/83/61
f 1/94/20 64/95/65 51/96/62
f 52/8/8 64/97/65 63/9/9
f 65/98/63 17/99/23 15/90/17
f 66/100/64 67/101/66 65/92/63
f 16/102/22 68/103/67 66/93/64
f 67/104/66 3/61/1 17/105/23
f 68/106/67 53/62/52 67/101/66
f 18/107/21 54/66/55 68/108/67
f 70/109/68 71/110/30 69/111/14
f 77/112/69 74/113/70 73/114/71
f 73/114/71 70/115/68 69/116/14
f 76/117/72 25/36/33 26/38/35
f 30/118/34 32/119/31 28/120/73
f 80/121/74 75/122/13 76/117/72
f 81/123/75 78/124/76 77/112/69
f 84/125/77 79/126/78 80/121/74
f 88/127/79 83/128/80 84/125/77
f 81/123/75 86/129/81 82/130/82
f 92/131/83 87/132/84 88/127/79
f 89/133/85 86/129/81 85/134/86
f 93/135/87 90/136/88 89/137/85
f 92/138/83 95/139/89 91/140/90
f 97/141/91 100/142/92 98/143/93
f 97/141/91 94/144/94 93/135/87
f 96/145/95 99/146/96 95/139/89
f 6/6/6 52/8/8 2/4/4
f 3/1/1 7/10/10 8/2/2
f 2/4/4 1/20/20 5/5/5
f 13/7/7 2/4/4 52/8/8
f 7/10/10 9/16/16 10/11/11
f 39/147/44 43/148/46 47/149/49
f 47/149/49 49/150/51 39/147/44
f 41/151/97 37/152/42 35/153/41
f 49/150/51 45/154/47 39/147/44
f 39/147/44 45/154/47 41/151/97
f 37/152/42 33/155/38 35/153/41
f 29/156/36 25/157/33 27/158/27
f 75/13/13 79/159/78 77/160/69
f 83/161/80 87/162/84 81/163/75
f 91/164/90 95/165/89 89/166/85
f 99/167/96 97/168/91 89/166/85
f 97/168/91 93/169/87 89/166/85
f 25/157/33 23/170/28 27/158/27
f 35/153/41 39/147/44 41/151/97
f 31/171/32 35/153/41 33/155/38
f 95/165/89 99/167/96 89/166/85
f 91/164/90 89/166/85 85/172/86
f 31/171/32 33/155/38 29/156/36
f 27/158/27 31/171/32 29/156/36
f 87/162/84 91/164/90 85/172/86
f 87/162/84 85/172/86 81/163/75
f 25/157/33 19/12/12 23/170/28
f 25/157/33 75/13/13 19/12/12
f 83/161/80 81/163/75 79/159/78
f 81/163/75 77/160/69 79/159/78
f 71/173/30 21/174/24 19/12/12
f 69/14/14 71/173/30 19/12/12
f 75/13/13 77/160/69 73/175/71
f 73/175/71 69/14/14 75/13/13
f 11/15/15 12/18/18 10/11/11
f 15/17/17 16/22/22 12/18/18
f 2/4/4 13/7/7 14/19/19
f 15/17/17 17/23/23 18/21/21
f 3/1/1 4/3/3 18/21/21
f 21/24/24 22/176/98 20/25/25
f 24/27/26 28/177/73 27/28/27
f 19/30/12 20/178/25 24/27/26
f 72/31/29 22/179/98 21/32/24
f 27/28/27 28/177/73 32/34/31
f 25/36/33 29/39/36 30/37/34
f 29/39/36 33/41/38 34/40/37
f 33/41/38 37/45/42 38/42/39
f 31/35/32 32/34/31 36/43/40
f 37/45/42 41/180/97 42/46/43
f 36/43/40 40/181/99 39/47/44
f 39/48/44 40/182/99 44/49/45
f 42/51/43 41/183/97 45/52/47
f 47/54/49 48/184/100 50/55/50
f 44/49/45 48/185/100 47/57/49
f 45/52/47 49/186/51 50/58/50
f 53/59/52 57/73/54 7/60/10
f 53/62/52 54/187/55 58/63/53
f 8/65/2 58/78/53 54/66/55
f 55/68/56 51/188/62 52/8/8
f 6/70/6 5/189/5 55/71/56
f 57/73/54 59/190/59 9/74/16
f 57/64/54 58/63/53 60/75/58
f 8/65/2 10/191/11 60/77/58
f 9/74/16 59/190/59 61/79/60
f 60/75/58 62/91/61 61/81/60
f 60/77/58 10/191/11 12/82/18
f 5/84/5 1/192/20 51/85/62
f 63/87/9 64/193/65 14/88/19
f 61/79/60 65/98/63 15/90/17
f 62/91/61 66/100/64 65/92/63
f 12/82/18 16/102/22 66/93/64
f 1/94/20 14/194/19 64/95/65
f 52/8/8 51/188/62 64/97/65
f 65/98/63 67/195/66 17/99/23
f 66/100/64 68/106/67 67/101/66
f 16/102/22 18/196/21 68/103/67
f 67/104/66 53/59/52 3/61/1
f 68/106/67 54/187/55 53/62/52
f 18/107/21 4/67/3 54/66/55
f 70/109/68 72/197/29 71/110/30
f 77/112/69 78/124/76 74/113/70
f 73/114/71 74/113/70 70/115/68
f 76/117/72 75/122/13 25/36/33
f 20/198/25 22/199/98 72/200/29
f 20/198/25 72/200/29 70/201/68
f 24/202/26 20/198/25 26/203/35
f 20/198/25 70/201/68 26/203/35
f 28/120/73 24/202/26 26/203/35
f 70/201/68 76/204/72 26/203/35
f 90/205/88 94/206/94 98/207/93
f 98/207/93 100/208/92 90/205/88
f 92/209/83 88/210/79 86/211/81
f 100/208/92 96/212/95 90/205/88
f 90/205/88 96/212/95 92/209/83
f 88/210/79 84/213/77 82/214/82
f 80/215/74 76/204/72 78/216/76
f 26/203/35 30/118/34 28/120/73
f 34/217/37 38/218/39 36/219/40
f 42/220/43 46/221/48 40/222/99
f 50/223/50 48/224/100 40/222/99
f 48/224/100 44/225/45 40/222/99
f 76/204/72 74/226/70 78/216/76
f 86/211/81 90/205/88 92/209/83
f 82/214/82 86/211/81 88/210/79
f 46/221/48 50/223/50 40/222/99
f 42/220/43 40/222/99 36/219/40
f 82/214/82 84/213/77 80/215/74
f 78/216/76 82/214/82 80/215/74
f 38/218/39 42/220/43 36/219/40
f 34/217/37 36/219/40 32/119/31
f 76/204/72 70/201/68 74/226/70
f 34/217/37 32/119/31 30/118/34
f 80/121/74 79/126/78 75/122/13
f 81/123/75 82/130/82 78/124/76
f 84/125/77 83/128/80 79/126/78
f 88/127/79 87/132/84 83/128/80
f 81/123/75 85/134/86 86/129/81
f 92/131/83 91/227/90 87/132/84
f 89/133/85 90/228/88 86/129/81
f 93/135/87 94/144/94 90/136/88
f 92/138/83 96/145/95 95/139/89
f 97/141/91 99/146/96 100/142/92
f 97/141/91 98/143/93 94/144/94
f 96/145/95 100/142/92 99/146/96
f 6/6/6 56/69/57 52/8/8
